<svg xmlns="http://www.w3.org/2000/svg" width="197.415" height="101.782" viewBox="0 0 197.415 101.782">
  <path id="Path_12649" data-name="Path 12649" d="M19.819,10.932c6.125,1.371,12.248,2.745,18.992,4.255A8.35,8.35,0,0,0,32.95,7.7,247.491,247.491,0,0,0,6.67.192C1.571-.882-1.105,2.676.432,7.624,3,15.88,5.991,24.006,8.814,32.183c.165.478.3,1.123.658,1.348,1.155.724,2.411,1.29,3.628,1.916.513-1.05,1.569-2.171,1.442-3.139-.424-3.262-1.263-6.472-1.95-9.7a11.2,11.2,0,0,1-.073-5.883c1.949,1.768,3.98,3.456,5.836,5.316,37.724,37.828,45.82,94.518,20.1,141.582-3.288,6.017-7.321,11.625-10.972,17.445-1.272,2.028-2.438,4.123-3.653,6.187l1.131,1.287c1.445-.532,3.3-.672,4.265-1.669a102.664,102.664,0,0,0,9.517-10.912c28.6-39.451,29.71-94.242,2.452-136.63-5.2-8.083-11.885-15.211-17.937-22.74-1.244-1.55-2.716-2.916-4.084-4.368Q19.5,11.576,19.819,10.932Z" transform="translate(0 59.369) rotate(-77)" fill="#fff"/>
</svg>
