<svg xmlns="http://www.w3.org/2000/svg" xmlns:xlink="http://www.w3.org/1999/xlink" width="44.659" height="72" viewBox="0 0 44.659 72">
  <defs>
    <radialGradient id="radial-gradient" cx="-0.289" cy="-0.541" r="3.035" gradientUnits="objectBoundingBox">
      <stop offset="0" stop-color="#fcac00"/>
      <stop offset="1" stop-color="#ff7300"/>
    </radialGradient>
    <radialGradient id="radial-gradient-2" cx="0.379" cy="0.222" r="2.077" xlink:href="#radial-gradient"/>
    <radialGradient id="radial-gradient-3" cx="0.904" cy="0.734" r="1.745" xlink:href="#radial-gradient"/>
    <radialGradient id="radial-gradient-4" cx="0.5" cy="0.5" r="0.409" gradientUnits="objectBoundingBox">
      <stop offset="0" stop-color="#fff"/>
      <stop offset="0.096" stop-color="#fefcf9"/>
      <stop offset="0.221" stop-color="#fdf5e9"/>
      <stop offset="0.36" stop-color="#fceace"/>
      <stop offset="0.511" stop-color="#fadaa9"/>
      <stop offset="0.671" stop-color="#f8c67a"/>
      <stop offset="0.835" stop-color="#f6ad40"/>
      <stop offset="1" stop-color="#f39200"/>
    </radialGradient>
    <radialGradient id="radial-gradient-5" cx="0.037" cy="0.098" r="0.983" xlink:href="#radial-gradient-4"/>
    <radialGradient id="radial-gradient-6" cx="0.552" cy="0.526" r="0.626" gradientUnits="objectBoundingBox">
      <stop offset="0.582"/>
      <stop offset="0.738" stop-color="#010101"/>
      <stop offset="0.794" stop-color="#080804"/>
      <stop offset="0.834" stop-color="#14130b"/>
      <stop offset="0.866" stop-color="#252214"/>
      <stop offset="0.894" stop-color="#3b3721"/>
      <stop offset="0.918" stop-color="#565030"/>
      <stop offset="0.941" stop-color="#776f42"/>
      <stop offset="0.961" stop-color="#9c9257"/>
      <stop offset="0.98" stop-color="#c7ba70"/>
      <stop offset="0.997" stop-color="#f5e589"/>
      <stop offset="1" stop-color="#ffee8f"/>
    </radialGradient>
    <radialGradient id="radial-gradient-7" cx="0.376" cy="0.011" r="0.993" gradientUnits="objectBoundingBox">
      <stop offset="0" stop-color="#fcf800"/>
      <stop offset="1" stop-color="#fc9700"/>
    </radialGradient>
    <radialGradient id="radial-gradient-8" cx="-0.126" cy="-0.693" r="2.895" gradientUnits="objectBoundingBox">
      <stop offset="0" stop-color="#fff"/>
      <stop offset="0.096" stop-color="#fffcf9"/>
      <stop offset="0.221" stop-color="#fff6e9"/>
      <stop offset="0.36" stop-color="#ffecce"/>
      <stop offset="0.511" stop-color="#ffdea9"/>
      <stop offset="0.671" stop-color="#ffcb7a"/>
      <stop offset="0.835" stop-color="#ffb540"/>
      <stop offset="1" stop-color="#ff9d00"/>
    </radialGradient>
    <radialGradient id="radial-gradient-9" cx="0.011" cy="0.05" r="2.898" xlink:href="#radial-gradient-8"/>
    <radialGradient id="radial-gradient-10" cx="0.782" cy="0.938" r="2.148" gradientUnits="objectBoundingBox">
      <stop offset="0"/>
      <stop offset="0.078" stop-color="#222111"/>
      <stop offset="0.219" stop-color="#5c582e"/>
      <stop offset="0.361" stop-color="#8e8747"/>
      <stop offset="0.5" stop-color="#b6ae5b"/>
      <stop offset="0.635" stop-color="#d6cc6b"/>
      <stop offset="0.766" stop-color="#ece176"/>
      <stop offset="0.89" stop-color="#faee7d"/>
      <stop offset="1" stop-color="#fff380"/>
    </radialGradient>
    <radialGradient id="radial-gradient-11" cx="1.274" cy="1.481" r="1.604" gradientUnits="objectBoundingBox">
      <stop offset="0" stop-color="#ffd000"/>
      <stop offset="0.11" stop-color="#facc00"/>
      <stop offset="0.234" stop-color="#ecc100"/>
      <stop offset="0.365" stop-color="#d6ae00"/>
      <stop offset="0.5" stop-color="#b69500"/>
      <stop offset="0.639" stop-color="#8e7300"/>
      <stop offset="0.781" stop-color="#5c4b00"/>
      <stop offset="0.922" stop-color="#221c00"/>
      <stop offset="1"/>
    </radialGradient>
    <linearGradient id="linear-gradient" x1="0.866" y1="-0.097" x2="-0.062" y2="1.322" gradientUnits="objectBoundingBox">
      <stop offset="0" stop-color="#fffacf"/>
      <stop offset="1"/>
    </linearGradient>
    <linearGradient id="linear-gradient-2" x1="0" y1="0.5" x2="1" y2="0.5" xlink:href="#linear-gradient"/>
    <radialGradient id="radial-gradient-12" cx="-0.158" cy="-0.324" r="1.379" gradientUnits="objectBoundingBox">
      <stop offset="0" stop-color="aqua"/>
      <stop offset="0.11" stop-color="#00fafa"/>
      <stop offset="0.234" stop-color="#00ecec"/>
      <stop offset="0.365" stop-color="#00d6d6"/>
      <stop offset="0.5" stop-color="#00b6b6"/>
      <stop offset="0.639" stop-color="#008e8e"/>
      <stop offset="0.781" stop-color="#005c5c"/>
      <stop offset="0.922" stop-color="#022"/>
      <stop offset="1"/>
    </radialGradient>
    <radialGradient id="radial-gradient-13" cx="-0.643" cy="0.03" r="1.031" gradientUnits="objectBoundingBox">
      <stop offset="0" stop-color="#fff261"/>
      <stop offset="0.11" stop-color="#faed5f"/>
      <stop offset="0.234" stop-color="#ece05a"/>
      <stop offset="0.365" stop-color="#d6cb51"/>
      <stop offset="0.5" stop-color="#b6ad45"/>
      <stop offset="0.639" stop-color="#8e8636"/>
      <stop offset="0.781" stop-color="#5c5723"/>
      <stop offset="0.922" stop-color="#22210d"/>
      <stop offset="1"/>
    </radialGradient>
  </defs>
  <g id="Group_968" data-name="Group 968" transform="translate(-30.673 -29.508)">
    <path id="Path_17201" data-name="Path 17201" d="M43.2,46.794a115.691,115.691,0,0,1-11.652.1.986.986,0,0,1-.79-.445,23.986,23.986,0,0,0,2.594,3.46,14.93,14.93,0,0,0,2.4,2.546c1.286.067,3.1.1,4.987.1.815-1.966,1.647-3.913,2.464-5.76Z" transform="translate(0.094 18.648)" fill="url(#radial-gradient)"/>
    <path id="Path_17202" data-name="Path 17202" d="M56.728,31.195c-4.062,6.48-9.146,14.156-13.542,20.6,2.3-.109,5.319-.181,8.087-.193,3.323-4.972,6.751-10.217,9.658-14.851A1.2,1.2,0,0,0,61,35.793a42.521,42.521,0,0,0-4.388-5.842l0,0h0l0,0,0,0,0,.006,0,0,.006.008h0l0,0,.006.008h0l0,0,0,0,0,0v0l0,0,0,0,0,0,0,0,0,0,.006.008h0l0,0,0,0,0,0h0l0,0,.006.008h0l0,0,0,0,0,0v0l0,0,0,0,0,.006h0l0,0,0,.008h0l0,0,0,0,0,0,0,0,0,0,0,.006,0,0h0l0,0,0,0,0,0v0l0,0,0,0,0,0h0l0,0,0,.006,0,0h0l0,0,0,0,0,.006h0l0,0,0,0,0,.006h0l0,0,0,0,0,.006h0l0,0,0,0,0,.006h0l.006.015a.99.99,0,0,1-.065.96Z" transform="translate(13.771 0.488)" fill="url(#radial-gradient-2)"/>
    <path id="Path_17203" data-name="Path 17203" d="M69.813,41.664A451.959,451.959,0,0,1,36.66,79.99c-1.594,1.638-4.317,4.1-4.884,3.81l-.025-.017h0a.288.288,0,0,1-.046-.042c.239.456,3.56,4.894,4.18,5.527a.417.417,0,0,0,.095.09c.563.3,3.289-2.172,4.882-3.81A451.692,451.692,0,0,0,74.017,47.222a1.189,1.189,0,0,0,.105-1.05c-.1-.21-.074-.134-.118-.193-.473-.769-3.319-4.55-4.132-5.455l0,0v0l0,0h0v0h0v0h0v0h0v0l0,0,0,0h0l0,0v0h0l0,0v0l.006.011h0v0l.015.027v0h0v0h0v0h0v0h0v0h0v0h0a1,1,0,0,1-.107,1.052Z" transform="translate(1.135 12.123)" fill="url(#radial-gradient-3)"/>
    <path id="Path_17204" data-name="Path 17204" d="M54,30.117Zm-.17,1.338c.989.834,2.231,2.3,2.369,3.357.569,4.317-3.565,9.988-5.837,13.147-1.769,2.458-3.084,3.327-4.688,3.676.958-.017,1.926-.027,2.865-.032,3.323-4.972,6.751-10.217,9.658-14.851a1.2,1.2,0,0,0,.065-.962,42.665,42.665,0,0,0-4.384-5.837l0,0,0,0,0,.006,0,0,.006.008h0l0,0,.006.008h0l0,0,0,0,0,0v0l0,0,0,0,0,0,0,0,0,0,.006.008h0l0,0,0,0,0,0h0l0,0,.006.008h0l0,0,0,0,0,0v0l0,0,0,0,0,.006h0l0,0,0,.008h0l0,0,0,0,0,0,0,0,0,0,0,.006,0,0,0,0,0,0,0,.006,0,0,0,0,0,0,0,0,0,.006,0,0,0,0,0,0,0,.006,0,0,0,0,0,.006,0,0,0,0,0,.006,0,0,0,0,0,.006h0l.006.015a.99.99,0,0,1-.065.96l-.164.263Z" transform="translate(16.507 0.49)" opacity="0.5" fill="url(#radial-gradient-4)" style="mix-blend-mode: multiply;isolation: isolate"/>
    <path id="Path_17205" data-name="Path 17205" d="M73.321,45.687c-.405-.657-2.544-3.518-3.663-4.9,2.264,4.741,2.267,6.449-.834,10.618C65,56.544,61.083,61.613,56.957,66.509c-3.773,4.476-7.7,8.833-11.811,13A44.679,44.679,0,0,1,39.1,84.578c-2.512,1.767-5.01,1.727-6.779.708,1.08,1.458,2.491,3.3,2.876,3.691a.417.417,0,0,0,.095.09c.563.3,3.289-2.172,4.882-3.81A451.694,451.694,0,0,0,73.333,46.93a1.189,1.189,0,0,0,.105-1.05c-.1-.21-.074-.134-.118-.193Z" transform="translate(1.819 12.414)" opacity="0.5" fill="url(#radial-gradient-5)" style="mix-blend-mode: multiply;isolation: isolate"/>
    <path id="Path_17206" data-name="Path 17206" d="M38.929,87.408c-.481.252-1.063.41-1.359.185a29.892,29.892,0,0,1-2.92-3.651c-.032-.05-.063-.1-.095-.155a2.137,2.137,0,0,1,.061-1.838c-1.256,1.118-2.481,2.04-2.84,1.853a.3.3,0,0,1-.071-.059c.239.456,3.56,4.894,4.18,5.527a.417.417,0,0,0,.095.09c.365.2,1.657-.79,2.949-1.951ZM68.616,43.424a1.278,1.278,0,0,1,1.166-.092c.044.036.09.071.132.107a32.889,32.889,0,0,1,2.882,3.7,1.989,1.989,0,0,1,.015,1.641q.6-.778,1.206-1.559a1.189,1.189,0,0,0,.105-1.05c-.1-.21-.074-.134-.118-.193-.473-.769-3.319-4.55-4.132-5.455.017.029.034.059.048.088a1,1,0,0,1-.107,1.052q-.677.879-1.363,1.76l-.107.137c.086-.048.179-.095.273-.137Z" transform="translate(1.135 12.123)" fill="url(#radial-gradient-6)" style="mix-blend-mode: screen;isolation: isolate"/>
    <path id="Path_17207" data-name="Path 17207" d="M48.565,30.239c4.287-.9,15.712-1.006,21.235-.1a1.019,1.019,0,0,1,.7,1.546c-4.062,6.48-9.146,14.156-13.542,20.6,3.918-.187,9.919-.258,13.217-.132a1.018,1.018,0,0,1,.775,1.632A451.956,451.956,0,0,1,37.8,92.113c-1.594,1.638-4.317,4.1-4.884,3.81s.288-3.262.643-4.73c1.069-4.417,5.581-16.349,9.74-25.751a115.693,115.693,0,0,1-11.652.1,1.02,1.02,0,0,1-.914-1.342c2.882-8.577,12.2-27.034,16.6-33.159a1.968,1.968,0,0,1,1.233-.8Z" transform="translate(0 0)" fill="url(#radial-gradient-7)"/>
    <path id="Path_17208" data-name="Path 17208" d="M55.126,37.491C52.281,40.056,46.807,41.728,45.56,40q-1.21,1.8-2.374,3.5c2.3-.109,5.319-.181,8.087-.193,1.281-1.916,2.577-3.871,3.852-5.816Z" transform="translate(13.771 8.786)" fill="url(#radial-gradient-8)" style="mix-blend-mode: multiply;isolation: isolate"/>
    <path id="Path_17209" data-name="Path 17209" d="M36.822,46.789c1.557,1.208-.849,5.027-4,4.953a2.076,2.076,0,0,0,.655.536c1.286.067,3.1.1,4.987.1.815-1.966,1.647-3.913,2.464-5.76-1.065.086-2.531.143-4.107.174Z" transform="translate(2.366 18.827)" fill="url(#radial-gradient-9)" style="mix-blend-mode: multiply;isolation: isolate"/>
    <path id="Path_17210" data-name="Path 17210" d="M44.62,34.984a61.888,61.888,0,0,1,15.156-.323,3.479,3.479,0,0,1,1.834.7c1.008.84.319,2.7-.557,4.319,1.8-2.754,3.542-5.468,5.127-8a1.018,1.018,0,0,0-.7-1.546c-5.522-.9-16.947-.8-21.235.1a1.968,1.968,0,0,0-1.233.8A132.567,132.567,0,0,0,34.6,45.8c2.17-3.676,6.755-10.272,10.022-10.812Z" transform="translate(4.319 0)" fill="url(#radial-gradient-10)" style="mix-blend-mode: screen;isolation: isolate"/>
    <path id="Path_17211" data-name="Path 17211" d="M31.815,84.075l.025.017-.025-.017ZM69.1,40.322c-1.067-.04-2.42-.061-3.892-.063,2.47.8,2.474,2.611.483,5.2C60.349,52.4,46.128,69.7,39.157,74.8c-3.529,2.579-4.676.947-4.817-1.363-.872,2.493-1.527,4.567-1.857,5.926-.338,1.4-1.141,4.159-.714,4.672a.288.288,0,0,0,.046.042l.025.017c.359.187,1.584-.735,2.84-1.853.725-.647,1.46-1.359,2.044-1.958a451.726,451.726,0,0,0,31.683-36.43q.737-.948,1.47-1.9a1,1,0,0,0,.107-1.052h0v0h0v0h0v0h0v0h0l-.015-.032h0l-.006-.011v0l0,0h0l0,0h0l0,0,0,0v0h0v0l-.006-.011a.991.991,0,0,0-.834-.492Z" transform="translate(1.071 11.832)" fill="url(#radial-gradient-11)" style="mix-blend-mode: screen;isolation: isolate"/>
    <path id="Path_17212" data-name="Path 17212" d="M47.367,30.436a2.886,2.886,0,0,0-1.508.7c-3.445,3.539-11.782,19.867-13,24.19-.082.3-.189.8.048,1,.336.275.853-.439,1.027-.716,3.077-4.85,5.816-9.91,8.85-14.79C44.3,38.376,46.1,35.576,47.855,33.3c1.1-1.439,3.182-1.834,4.793-2.283,2.3-.645,1.37-1.21-.292-1.139a32.456,32.456,0,0,0-4.989.563Z" transform="translate(2.299 0.395)" fill="url(#linear-gradient)" style="mix-blend-mode: screen;isolation: isolate"/>
    <path id="Path_17213" data-name="Path 17213" d="M55.3,40.434c-3.756-.034-7.518-.034-11.274.151-1.83.088-.414,1.956.863,2.038a32.635,32.635,0,0,0,10.3-1.378c.309-.1.767-.229.809-.55.034-.248-.452-.258-.7-.26Z" transform="translate(13.736 12.006)" fill="url(#linear-gradient-2)" style="mix-blend-mode: screen;isolation: isolate"/>
    <path id="Path_17214" data-name="Path 17214" d="M33.642,78.65c-.233,4.1,9.192-3.462,11.328-5.422,7.251-6.648,15.9-15.861,20.819-24.488,1.693-2.968,1.905-6.806-.582-6.115a451.628,451.628,0,0,1-30.441,34.9l-.233.242c-.271.277-.571.578-.891.884Z" transform="translate(3.263 14.347)" opacity="0.5" fill="url(#radial-gradient-12)" style="mix-blend-mode: screen;isolation: isolate"/>
    <path id="Path_17215" data-name="Path 17215" d="M46.616,34.453a9.315,9.315,0,0,0-2.59,2.643c-3.462,5.913-6.438,12.1-9.6,18.176-.66,1.267-1.395,3.672.97,3.884,2.758.248,5.537,0,8.306,0-2.865,6.255-6.321,12.662-8.253,19.256-.594,2.035,1.067,2.075,2.374.863,6.054-5.615,16.645-17.208,20.928-24.6,1.122-1.933-.775-2.855-2.374-2.913-2.317-.084-4.638.074-6.957.109,2.7-4.388,5.52-8.7,8.091-13.162a5.771,5.771,0,0,0,.7-2.1,3.139,3.139,0,0,0-1.078-2.752c-1.193-1.1-4.487-1.145-7.18-.622a8.876,8.876,0,0,0-3.338,1.216Z" transform="translate(3.414 3.747)" fill="url(#radial-gradient-13)" style="mix-blend-mode: screen;isolation: isolate"/>
  </g>
</svg>
