<svg xmlns="http://www.w3.org/2000/svg" width="32" height="32" viewBox="0 0 32 32">
  <g id="Group_1020" data-name="Group 1020" transform="translate(-38 -68)">
    <rect id="Rectangle_832" data-name="Rectangle 832" width="32" height="32" transform="translate(38 68)" fill="none"/>
    <g id="Group_1207" data-name="Group 1207" transform="translate(-507.888 -195.998)">
      <g id="Group_1206" data-name="Group 1206" transform="translate(552.591 271.998)">
        <path id="Path_17498" data-name="Path 17498" d="M566.634,274.413v-.349A2.066,2.066,0,0,0,564.568,272H550.544a2.5,2.5,0,0,0-2.5,2.5h0a2.5,2.5,0,0,0,2.5,2.5h14.023a2.066,2.066,0,0,1,2.066,2.066v7.376A1.549,1.549,0,0,1,565.084,288H551.139a3.1,3.1,0,0,1-3.1-3.1v-10.28A2.621,2.621,0,0,1,550.661,272h10.083" transform="translate(-548.04 -271.998)" fill="none" stroke="#2c3149" stroke-linecap="round" stroke-linejoin="round" stroke-width="2"/>
        <path id="Rectangle_848" data-name="Rectangle 848" d="M1.852,0H6.159a0,0,0,0,1,0,0V3.7a0,0,0,0,1,0,0H1.852A1.852,1.852,0,0,1,0,1.852v0A1.852,1.852,0,0,1,1.852,0Z" transform="translate(12.435 8.506)" fill="none" stroke="#2c3149" stroke-linecap="round" stroke-linejoin="round" stroke-width="2"/>
      </g>
      <path id="Path_17499" data-name="Path 17499" d="M592.849,282.839" transform="translate(-21.665 -5.242)" fill="none" stroke="#2c3149" stroke-linecap="round" stroke-linejoin="round" stroke-width="2"/>
    </g>
  </g>
</svg>
