<svg xmlns="http://www.w3.org/2000/svg" width="32" height="32" viewBox="0 0 32 32">
  <g id="Group_1020" data-name="Group 1020" transform="translate(-38 -68)">
    <rect id="Rectangle_832" data-name="Rectangle 832" width="32" height="32" transform="translate(38 68)" fill="none"/>
    <g id="Group_1019" data-name="Group 1019" transform="translate(-883.088 -568.024)">
      <g id="Group_1018" data-name="Group 1018" transform="translate(934.593 644.024)">
        <path id="Path_17256" data-name="Path 17256" d="M942.262,651.2l-.786,3.236,3.236-.786,6.665-6.664a1.733,1.733,0,0,0,0-2.45h0a1.733,1.733,0,0,0-2.45,0Z" transform="translate(-941.476 -644.024)" fill="none" stroke="#2c3149" stroke-linecap="round" stroke-linejoin="round" stroke-width="2"/>
        <line id="Line_70" data-name="Line 70" x2="1.334" y2="1.334" transform="translate(7.329 2.088)" fill="none" stroke="#2c3149" stroke-linecap="round" stroke-linejoin="round" stroke-width="2"/>
      </g>
      <path id="Path_17257" data-name="Path 17257" d="M943.7,653.131v6.784a1.778,1.778,0,0,1-1.778,1.778H930.865a1.778,1.778,0,0,1-1.778-1.778V648.409a1.333,1.333,0,0,1,1.333-1.333l6.875-.049" transform="translate(0 -1.668)" fill="none" stroke="#2c3149" stroke-linecap="round" stroke-linejoin="round" stroke-width="2"/>
    </g>
  </g>
</svg>
