<svg xmlns="http://www.w3.org/2000/svg" width="129.245" height="56" viewBox="0 0 129.245 56">
  <g id="Group_1248" data-name="Group 1248" transform="translate(-781.755 -678)" opacity="0.57">
    <g id="Group_1247" data-name="Group 1247" transform="translate(777.382 675.199)">
      <path id="Path_17503" data-name="Path 17503" d="M20.353,25.656V23.4c0-6.283,4.3-13.587,9.838-13.587H31.65c5.542,0,9.839,7.3,9.839,13.587v2.253h5.922V20.119A18.47,18.47,0,0,0,42.942,8.343,14.725,14.725,0,0,0,31.766,2.8h-1.69A14.724,14.724,0,0,0,18.9,8.343a18.465,18.465,0,0,0-4.469,11.776v5.537Z" transform="translate(-5.424 0)" fill="#5d92db"/>
      <path id="Path_17504" data-name="Path 17504" d="M42.942,13.8q-.39-.457-.8-.878a3.069,3.069,0,0,1-.853,3.652,2.234,2.234,0,0,1-2.358.22,11.506,11.506,0,0,1-1.576-.939,10.787,10.787,0,0,0-1.868-.938,11.609,11.609,0,0,0-4-.761,11.82,11.82,0,0,0-7,2.067,13.816,13.816,0,0,0-4.252,5.3c-.69,1.431-.956,3.109-2.019,4.345a1.83,1.83,0,0,1-1.754.74,2.21,2.21,0,0,1-1.624-1.377,4.807,4.807,0,0,1-.316-1.372,16.337,16.337,0,0,0-.093,1.72v5.537h5.922V28.862c0-6.283,4.3-13.587,9.838-13.587H31.65c5.542,0,9.839,7.3,9.839,13.587v2.253h5.922V25.578A18.47,18.47,0,0,0,42.942,13.8Z" transform="translate(-5.424 -5.459)" fill="#2e5594"/>
      <rect id="Rectangle_861" data-name="Rectangle 861" width="5.922" height="1.987" transform="translate(36.064 23.669)" fill="#173670" opacity="0.5"/>
      <rect id="Rectangle_862" data-name="Rectangle 862" width="5.922" height="1.987" transform="translate(9.007 23.669)" fill="#173670" opacity="0.5"/>
      <path id="Path_17505" data-name="Path 17505" d="M46.539,52.234a2.168,2.168,0,0,0-.637-.88,3.225,3.225,0,0,0-1.36-.558H6.32a2.55,2.55,0,0,0-1.375.592,1.688,1.688,0,0,0-.556,1.067c-.008.065-.009.146-.017.226v8.184c0,31.365,42.285,32.151,42.285,0V52.641A2.735,2.735,0,0,0,46.539,52.234Z" transform="translate(0 -25.883)" fill="#00184d"/>
      <path id="Path_17506" data-name="Path 17506" d="M46.58,53.39a2.015,2.015,0,0,0-.611-.815,3.173,3.173,0,0,0-1.307-.516H7.949a2.492,2.492,0,0,0-1.321.548,1.543,1.543,0,0,0-.534.987c-.007.06-.008.135-.016.209v7.575c0,29.032,40.618,29.759,40.618,0V53.766A2.479,2.479,0,0,0,46.58,53.39Z" transform="translate(-0.919 -26.564)" fill="#2e5594"/>
      <path id="Path_17507" data-name="Path 17507" d="M46.582,54.737a1.733,1.733,0,0,0-.563-.695,3.06,3.06,0,0,0-1.2-.44H11a2.4,2.4,0,0,0-1.217.467,1.293,1.293,0,0,0-.492.842c-.006.051-.007.115-.014.178v6.458c0,24.754,37.413,25.374,37.413,0v-6.49A1.971,1.971,0,0,0,46.582,54.737Z" transform="translate(-2.644 -27.396)" fill="#5d92db"/>
      <path id="Path_17508" data-name="Path 17508" d="M48.907,68.36a4.995,4.995,0,0,0-9.974,0,4.723,4.723,0,0,0,3.161,4.381L38.5,83.5H48.9l-3.26-10.726A4.732,4.732,0,0,0,48.907,68.36Z" transform="translate(-18.405 -32.813)" fill="#0a4cff"/>
      <g id="Group_1240" data-name="Group 1240" transform="translate(20.096 30.834)">
        <path id="Path_17509" data-name="Path 17509" d="M40.291,68.36A4.81,4.81,0,0,1,44.6,63.692a5.393,5.393,0,0,0-.678-.044,4.856,4.856,0,0,0-4.987,4.712,4.723,4.723,0,0,0,3.161,4.381L38.5,83.5h1.357l3.593-10.763A4.723,4.723,0,0,1,40.291,68.36Z" transform="translate(-38.501 -63.648)" fill="#2e5594"/>
        <path id="Path_17510" data-name="Path 17510" d="M50.5,68.412a4.811,4.811,0,0,0-4.309-4.668,4.81,4.81,0,0,0-4.307,4.668,4.723,4.723,0,0,0,3.16,4.381L41.447,83.555h9.044l-3.26-10.726A4.732,4.732,0,0,0,50.5,68.412Z" transform="translate(-40.09 -63.7)" fill="#00184d"/>
      </g>
      <path id="Path_17511" data-name="Path 17511" d="M16.029,18.642S18.55,3.612,34.162,4.194C34.162,4.194,20.3,5.212,16.029,18.642Z" transform="translate(-6.286 -0.742)" fill="#75b1ff"/>
      <path id="Path_17512" data-name="Path 17512" d="M11.857,55.98a3.188,3.188,0,0,0,.076,2.366c.569,1.1,6.885-.532,6.733-2.03S12.806,53.694,11.857,55.98Z" transform="translate(-3.929 -27.977)" fill="#7db0f2"/>
      <path id="Path_17513" data-name="Path 17513" d="M11.64,67.73a4.969,4.969,0,0,0,.038,2.11c.283.985,3.423-.474,3.348-1.811S12.111,65.689,11.64,67.73Z" transform="translate(-3.866 -34.388)" fill="#7db0f2"/>
    </g>
    <text id="LOCKED" transform="translate(840 711.5)" fill="#6092e6" font-size="16" font-family="Montserrat-ExtraBold, Montserrat" font-weight="800"><tspan x="0" y="0">LOCKED</tspan></text>
  </g>
</svg>
