<svg xmlns="http://www.w3.org/2000/svg" xmlns:xlink="http://www.w3.org/1999/xlink" width="96" height="96" viewBox="0 0 96 96">
  <defs>
    <linearGradient id="linear-gradient" x1="0.5" x2="0.5" y2="1" gradientUnits="objectBoundingBox">
      <stop offset="0" stop-color="#fcfcfc"/>
      <stop offset="1" stop-color="#f0f0f0"/>
    </linearGradient>
  </defs>
  <g id="Group_821" data-name="Group 821" transform="translate(-118 -489)">
    <g id="Rectangle" transform="translate(118 489)" stroke="#e3e3e3" stroke-width="1" fill="url(#linear-gradient)">
      <rect width="96" height="96" rx="6" stroke="none"/>
      <rect x="0.5" y="0.5" width="95" height="95" rx="5.5" fill="none"/>
    </g>
    <g id="Group_1246" data-name="Group 1246" transform="translate(-359.836 60.5)">
      <text id="LOCKED" transform="translate(499.337 505.5)" fill="#00184d" font-size="12" font-family="Montserrat-ExtraBold, Montserrat" font-weight="800"><tspan x="0" y="0">LOCKED</tspan></text>
      <g id="Group_1245" data-name="Group 1245" transform="translate(505.463 440.699)">
        <path id="Path_17503" data-name="Path 17503" d="M18.661,19.126V17.517c0-4.488,3.069-9.7,7.027-9.7H26.73c3.958,0,7.028,5.217,7.028,9.7v1.609h4.23V15.171A13.193,13.193,0,0,0,34.8,6.759,10.518,10.518,0,0,0,26.813,2.8H25.606a10.517,10.517,0,0,0-7.983,3.958,13.189,13.189,0,0,0-3.192,8.411v3.955Z" transform="translate(-6.748 0)" fill="#5d92db"/>
        <path id="Path_17504" data-name="Path 17504" d="M34.8,13.551q-.279-.327-.571-.627a2.192,2.192,0,0,1-.609,2.609,1.6,1.6,0,0,1-1.684.157,8.219,8.219,0,0,1-1.126-.671,7.705,7.705,0,0,0-1.334-.67,8.292,8.292,0,0,0-2.858-.544,8.443,8.443,0,0,0-5,1.476,9.868,9.868,0,0,0-3.037,3.783,13.06,13.06,0,0,1-1.442,3.1,1.307,1.307,0,0,1-1.253.529,1.578,1.578,0,0,1-1.16-.983,3.433,3.433,0,0,1-.225-.98,11.669,11.669,0,0,0-.066,1.229v3.955h4.23V24.308c0-4.488,3.069-9.7,7.027-9.7H26.73c3.958,0,7.028,5.217,7.028,9.7v1.609h4.23V21.962A13.193,13.193,0,0,0,34.8,13.551Z" transform="translate(-6.748 -6.792)" fill="#2e5594"/>
        <rect id="Rectangle_861" data-name="Rectangle 861" width="4.23" height="1.419" transform="translate(27.01 17.707)" fill="#173670" opacity="0.5"/>
        <rect id="Rectangle_862" data-name="Rectangle 862" width="4.23" height="1.419" transform="translate(7.683 17.707)" fill="#173670" opacity="0.5"/>
        <path id="Path_17505" data-name="Path 17505" d="M34.492,51.823a1.548,1.548,0,0,0-.455-.629,2.3,2.3,0,0,0-.971-.4H5.764a1.822,1.822,0,0,0-.982.423,1.206,1.206,0,0,0-.4.762c-.006.046-.007.1-.012.161v5.846c0,22.4,30.2,22.965,30.2,0V52.114A1.953,1.953,0,0,0,34.492,51.823Z" transform="translate(0 -32.201)" fill="#00184d"/>
        <path id="Path_17506" data-name="Path 17506" d="M35.008,53.01a1.439,1.439,0,0,0-.437-.582,2.267,2.267,0,0,0-.933-.369H7.414a1.78,1.78,0,0,0-.943.391,1.1,1.1,0,0,0-.382.705c-.005.043-.006.1-.011.149v5.411c0,20.737,29.013,21.257,29.013,0V53.279A1.771,1.771,0,0,0,35.008,53.01Z" transform="translate(-1.144 -33.048)" fill="#2e5594"/>
        <path id="Path_17507" data-name="Path 17507" d="M35.923,54.413a1.238,1.238,0,0,0-.4-.5,2.185,2.185,0,0,0-.859-.315H10.506a1.712,1.712,0,0,0-.869.334.923.923,0,0,0-.351.6c0,.036-.005.082-.01.127v4.613C9.275,76.959,36,77.4,36,59.278V54.642A1.408,1.408,0,0,0,35.923,54.413Z" transform="translate(-3.289 -34.083)" fill="#5d92db"/>
        <path id="Path_17508" data-name="Path 17508" d="M45.934,67.014a3.568,3.568,0,0,0-7.124,0,3.373,3.373,0,0,0,2.258,3.129L38.5,77.831h7.43L43.6,70.169A3.38,3.38,0,0,0,45.934,67.014Z" transform="translate(-22.897 -40.823)" fill="#0a4cff"/>
        <g id="Group_1240" data-name="Group 1240" transform="translate(15.604 22.825)">
          <path id="Path_17509" data-name="Path 17509" d="M39.78,67.014a3.436,3.436,0,0,1,3.077-3.334,3.852,3.852,0,0,0-.484-.032,3.468,3.468,0,0,0-3.562,3.366,3.373,3.373,0,0,0,2.258,3.129L38.5,77.831h.969l2.567-7.688A3.373,3.373,0,0,1,39.78,67.014Z" transform="translate(-38.501 -63.648)" fill="#2e5594"/>
          <path id="Path_17510" data-name="Path 17510" d="M47.911,67.078a3.437,3.437,0,0,0-3.078-3.334,3.436,3.436,0,0,0-3.077,3.334,3.373,3.373,0,0,0,2.257,3.129L41.447,77.9h6.46l-2.329-7.661A3.38,3.38,0,0,0,47.911,67.078Z" transform="translate(-40.478 -63.712)" fill="#00184d"/>
        </g>
        <path id="Path_17511" data-name="Path 17511" d="M16.029,14.509s1.8-10.736,12.952-10.32C28.981,4.189,19.077,4.916,16.029,14.509Z" transform="translate(-7.82 -0.923)" fill="#75b1ff"/>
        <path id="Path_17512" data-name="Path 17512" d="M11.8,55.609a2.277,2.277,0,0,0,.054,1.69c.406.789,4.918-.38,4.81-1.45S12.478,53.975,11.8,55.609Z" transform="translate(-4.888 -34.806)" fill="#7db0f2"/>
        <path id="Path_17513" data-name="Path 17513" d="M11.611,67.4a3.55,3.55,0,0,0,.027,1.507c.2.7,2.445-.339,2.391-1.293S11.948,65.941,11.611,67.4Z" transform="translate(-4.809 -42.782)" fill="#7db0f2"/>
      </g>
    </g>
  </g>
</svg>
