<svg xmlns="http://www.w3.org/2000/svg" xmlns:xlink="http://www.w3.org/1999/xlink" width="72" height="72" viewBox="0 0 72 72">
  <defs>
    <radialGradient id="radial-gradient" cx="0.5" cy="0.5" r="2.112" gradientUnits="objectBoundingBox">
      <stop offset="0" stop-color="#3d8a00"/>
      <stop offset="1" stop-color="#7dcc00"/>
    </radialGradient>
    <radialGradient id="radial-gradient-2" cx="0.5" cy="0.5" r="1.1" xlink:href="#radial-gradient"/>
    <radialGradient id="radial-gradient-3" cx="0.264" cy="0.378" r="0.907" gradientUnits="objectBoundingBox">
      <stop offset="0" stop-color="#327300"/>
      <stop offset="1" stop-color="#6bad00"/>
    </radialGradient>
    <radialGradient id="radial-gradient-4" cx="-0.079" cy="-0.352" r="8.969" gradientUnits="objectBoundingBox">
      <stop offset="0" stop-color="#528500"/>
      <stop offset="1" stop-color="#365c00"/>
    </radialGradient>
    <radialGradient id="radial-gradient-5" cx="0.524" cy="-0.054" r="1.144" xlink:href="#radial-gradient-4"/>
    <radialGradient id="radial-gradient-6" cx="0.5" cy="0.5" r="0.585" gradientUnits="objectBoundingBox">
      <stop offset="0" stop-color="#85b319"/>
      <stop offset="1" stop-color="#a9de28"/>
    </radialGradient>
    <radialGradient id="radial-gradient-7" cx="0.36" cy="0.602" r="0.88" gradientUnits="objectBoundingBox">
      <stop offset="0" stop-color="#bfc6e3"/>
      <stop offset="1" stop-color="#fff"/>
    </radialGradient>
    <linearGradient id="linear-gradient" x1="0.824" y1="0.637" x2="0.183" y2="0.367" gradientUnits="objectBoundingBox">
      <stop offset="0" stop-color="#85a5c7"/>
      <stop offset="1" stop-color="#bfc6e3"/>
    </linearGradient>
    <radialGradient id="radial-gradient-8" cx="0.6" cy="1.175" r="1.765" gradientUnits="objectBoundingBox">
      <stop offset="0.312"/>
      <stop offset="1" stop-color="#c9fc10"/>
    </radialGradient>
    <radialGradient id="radial-gradient-9" cx="1.431" cy="0.999" r="1.224" gradientUnits="objectBoundingBox">
      <stop offset="0" stop-color="#9c71e3"/>
      <stop offset="1" stop-color="#fff"/>
    </radialGradient>
    <radialGradient id="radial-gradient-10" cx="0.5" cy="0.5" r="1.45" gradientUnits="objectBoundingBox">
      <stop offset="0" stop-color="#d7001e"/>
      <stop offset="1" stop-color="#eb716d"/>
    </radialGradient>
    <radialGradient id="radial-gradient-11" cx="0.548" cy="-0.155" r="1.239" gradientUnits="objectBoundingBox">
      <stop offset="0" stop-color="#5e7800"/>
      <stop offset="1"/>
    </radialGradient>
    <radialGradient id="radial-gradient-12" cx="0.746" cy="-0.694" r="1.789" xlink:href="#radial-gradient-11"/>
    <radialGradient id="radial-gradient-13" cx="1.278" cy="-1.38" r="2.672" xlink:href="#radial-gradient-11"/>
    <radialGradient id="radial-gradient-14" cx="0.5" cy="0.5" r="0.691" xlink:href="#radial-gradient-11"/>
    <radialGradient id="radial-gradient-15" cx="-0.066" cy="-2.023" r="6.349" xlink:href="#radial-gradient-11"/>
    <radialGradient id="radial-gradient-16" cx="-0.177" cy="-0.383" r="7.128" xlink:href="#radial-gradient-11"/>
    <radialGradient id="radial-gradient-17" cx="0.979" cy="0.829" r="1.938" gradientUnits="objectBoundingBox">
      <stop offset="0"/>
      <stop offset="1" stop-color="#f24c7c"/>
    </radialGradient>
    <radialGradient id="radial-gradient-18" cx="-0.573" cy="0.014" r="1.345" gradientUnits="objectBoundingBox">
      <stop offset="0.335" stop-color="#fff"/>
      <stop offset="0.406" stop-color="#fdfafa"/>
      <stop offset="0.488" stop-color="#f7ecec"/>
      <stop offset="0.576" stop-color="#eed4d4"/>
      <stop offset="0.668" stop-color="#e1b4b4"/>
      <stop offset="0.763" stop-color="#d08a8a"/>
      <stop offset="0.86" stop-color="#bb5757"/>
      <stop offset="0.958" stop-color="#a41b1b"/>
      <stop offset="1" stop-color="#900"/>
    </radialGradient>
    <radialGradient id="radial-gradient-19" cx="0.24" cy="0.266" r="1.379" xlink:href="#radial-gradient-17"/>
    <radialGradient id="radial-gradient-20" cx="0.635" cy="-0.067" r="1.715" xlink:href="#radial-gradient-8"/>
  </defs>
  <g id="Group_807" data-name="Group 807" transform="translate(-130 -391)">
    <rect id="Rectangle_802" data-name="Rectangle 802" width="72" height="72" transform="translate(130 391)" fill="none"/>
    <g id="Group_806" data-name="Group 806" transform="translate(1 -3)">
      <circle id="Ellipse_24" data-name="Ellipse 24" cx="24" cy="24" r="24" transform="translate(141 406)" fill="#58aa4f" opacity="0.18"/>
      <g id="Group_805" data-name="Group 805" transform="translate(-106.206 315.775)">
        <path id="Path_16996" data-name="Path 16996" d="M269.2,101.134l6.233,2.077,5.642-9.7c-7.1-1.367,1.08.209-6.024-1.16l-5.851,8.782Z" transform="translate(15.369 3.883)" fill="#38572e"/>
        <path id="Path_16997" data-name="Path 16997" d="M268.128,99.541l6.231,2.075,5.642-9.7-6.022-1.16-5.851,8.782Z" transform="translate(14.69 2.874)" fill="#38572e"/>
        <path id="Path_16998" data-name="Path 16998" d="M267.462,98.444l6.231,2.075,5.642-9.7-6.022-1.16-5.851,8.782Z" transform="translate(14.268 2.178)" fill="#38572e"/>
        <path id="Path_16999" data-name="Path 16999" d="M269.9,109.493l-5.034-1.241,5.918-.563-.885,1.8Z" transform="translate(12.624 13.604)" fill="#782f15"/>
        <path id="Path_17000" data-name="Path 17000" d="M248.948,131.479l-.319.683,21.378,5.271A340.4,340.4,0,0,1,295.13,93.919l-1.653-.132-.225.191L291.6,96.623l1.229-2.286-43.877,37.141Z" transform="translate(2.332 4.793)" fill="#3a560d"/>
        <path id="Path_17001" data-name="Path 17001" d="M246.52,126.718q-.458.728-.913,1.454c1.606,1.982,3.163,3.977,4.524,6.027l21.319,5.187c7.808-14.755,16.457-29.149,25.1-43.39q-.265-.358-.524-.722l-2.514,4.021,2.313-4.3q-.8-1.14-1.55-2.32l-1.619,2.289,1.454-2.554q-.473-.755-.923-1.528l-4.026,6.565,3.733-7.073q-.223-.395-.441-.791l-3.026-.008q-21.453,18.574-42.907,37.146Z" transform="translate(0.416 2.121)" fill="#483"/>
        <path id="Path_17002" data-name="Path 17002" d="M245.607,128.172l21.416,5.037q13.447-21.181,25.43-43.629l-3.026-.008L246.52,126.718l-.913,1.454Z" transform="translate(0.416 2.121)" fill="url(#radial-gradient)"/>
        <path id="Path_17003" data-name="Path 17003" d="M245.257,129.484q10.761,2.51,21.52,5.021a306.839,306.839,0,0,0,25.461-43.75l-21.313-4.106a171.654,171.654,0,0,1-25.669,42.835Z" transform="translate(0.195 0.269)" fill="url(#radial-gradient-2)"/>
        <path id="Path_17004" data-name="Path 17004" d="M244.95,128.651l21.52,5.021a183.55,183.55,0,0,0,25.288-43.343l-21.313-4.1a168.635,168.635,0,0,1-25.5,42.426Z" transform="translate(0 0)" fill="url(#radial-gradient-3)"/>
        <path id="Path_17005" data-name="Path 17005" d="M271.45,124.412l-4.428-6.177L245.607,113.2c1.606,1.982,3.163,3.977,4.524,6.027l21.319,5.187Z" transform="translate(0.416 17.095)" fill="url(#radial-gradient-4)"/>
        <path id="Path_17006" data-name="Path 17006" d="M258.715,133.206l4.428,6.177c7.808-14.755,16.457-29.149,25.1-43.39q-.265-.358-.524-.722L285.2,99.292l2.313-4.3q-.8-1.14-1.55-2.32l-1.619,2.289L285.8,92.4q-.473-.755-.923-1.528l-4.026,6.565,3.733-7.073q-.223-.395-.441-.791Q272.129,112,258.715,133.206Z" transform="translate(8.724 2.124)" fill="url(#radial-gradient-5)"/>
        <path id="Path_17007" data-name="Path 17007" d="M248.03,123.813c4.029-5.472,7.893-10.951,11.278-16.616,3.341-5.591,6.2-11.361,8.934-17.124a3.77,3.77,0,0,0,3.906-2.25c2.085.4,4.168.812,6.244,1.216s4.165.809,6.248,1.207c-.668,1.552-.029,3.054,1.456,3.344-2.737,5.847-5.6,11.711-8.906,17.413-3.344,5.769-7.154,11.358-11.128,16.946a5.178,5.178,0,0,0-4.717,2.019q-3.152-.73-6.306-1.461t-6.3-1.465c1.113-1.438.792-2.889-.707-3.23Zm22.934-16.665q2.6-4.664,4.962-9.391a.408.408,0,0,1,.4-.222c.309.062.629.129.941.19a.212.212,0,0,1,.131.327c-1.588,3.153-3.228,6.3-4.957,9.407a.426.426,0,0,1-.425.211c-.314-.065-.632-.124-.943-.194-.142-.033-.2-.173-.113-.327Zm-4.225-1.031c1.279-2.286,2.541-4.571,3.715-6.875s2.287-4.625,3.367-6.949a.573.573,0,0,1,.58-.337c.457.095.918.181,1.382.273a.329.329,0,0,1,.216.487c-1.088,2.336-2.2,4.656-3.375,6.967s-2.431,4.6-3.71,6.891a.631.631,0,0,1-.626.31l-1.384-.291c-.219-.044-.284-.265-.165-.477ZM256.382,115.5a11.426,11.426,0,0,1,4.874-3.944,9.959,9.959,0,0,1,5.993-.781A4.876,4.876,0,0,1,271,113.671a5.411,5.411,0,0,1-.794,4.882,11.1,11.1,0,0,1-5.014,3.959,10.563,10.563,0,0,1-6.176.7,4.623,4.623,0,0,1-3.616-2.9,5.537,5.537,0,0,1,.98-4.808Z" transform="translate(1.952 1.013)" fill="url(#radial-gradient-6)"/>
        <path id="Path_17008" data-name="Path 17008" d="M252.192,104.862l21.7,4.776,4.045,6.074c1.34-2.377,2.728-4.767,4.192-7.179l-4.068-6.063L256.4,97.876q-2.029,3.524-4.209,6.986Z" transform="translate(4.59 7.384)" fill="url(#radial-gradient-7)"/>
        <path id="Path_17009" data-name="Path 17009" d="M269.642,100.688q-2.01,3.666-4.168,7.166l0,0,.085.126,3.723,5.594.136.2.1.15c1.34-2.377,2.728-4.767,4.192-7.179l-.124-.185-.109-.163-3.75-5.588-.085-.127Z" transform="translate(13.007 9.167)" fill="url(#linear-gradient)"/>
        <path id="Path_17010" data-name="Path 17010" d="M266.193,99.971c1.474.457,3.049,1.095,3.209,2.634.078.765-1.479,3.421-2.454,3.944-1.655.887-2.908.768-4.751.583l5.352,1.178,0,0q2.152-3.5,4.168-7.166l-5.525-1.171Z" transform="translate(10.931 8.712)" fill="#f2f2f2"/>
        <path id="Path_17011" data-name="Path 17011" d="M256.213,99.948c1.372-1.124,3.638-1.165,5.372-.972l-5.184-1.1q-2.029,3.524-4.209,6.986l4.535,1c-1.464-.387-3.256-1.09-2.57-2.934a8.412,8.412,0,0,1,2.055-2.978Z" transform="translate(4.59 7.384)" fill="#f2f2f2"/>
        <path id="Path_17012" data-name="Path 17012" d="M254.249,106.891c3.148-4.41,6.042-9.231,9.238-13.317a9.22,9.22,0,0,1,5.2-3.524c3.1-.85,9.224-.652,11.747,1.51,2.764,2.369,1.068,7.777-.681,12.036q3.3-6.494,6.11-13.266l-21.313-4.1a176.854,176.854,0,0,1-10.3,20.666Z" transform="translate(5.894 0)" opacity="0.5" fill="url(#radial-gradient-8)" style="mix-blend-mode: screen;isolation: isolate"/>
        <path id="Path_17013" data-name="Path 17013" d="M269.311,109.884c-1.26.559-2.124-.082-2.866-.848l2.457,3.691c1.34-2.377,2.728-4.767,4.192-7.179l-1.988-2.962a6.469,6.469,0,0,1,.616,2.411c.09,1.722-.747,4.148-2.411,4.887Z" transform="translate(13.623 10.37)" opacity="0.5" fill="url(#radial-gradient-9)" style="mix-blend-mode: multiply;isolation: isolate"/>
        <path id="Path_17014" data-name="Path 17014" d="M255.361,99.629q10.815,2.362,21.63,4.727.532-.936,1.051-1.885l-21.659-4.594q-.5.88-1.021,1.753Zm19.606,8.3L253.3,103.132q-.537.872-1.082,1.742l21.7,4.776v0q.527-.858,1.044-1.722Z" transform="translate(4.609 7.384)" fill="url(#radial-gradient-10)"/>
        <path id="Path_17015" data-name="Path 17015" d="M268.674,102.591q1.987,2.965,3.972,5.931.527-.882,1.065-1.771l-4.068-6.063q-.52.948-1.051,1.885l.082.018Zm1.877,9.522-3.983-5.97-.049-.011-1.046,1.724,4.045,6.074q.512-.907,1.033-1.817Z" transform="translate(13.007 9.167)" fill="#952f0e"/>
        <path id="Path_17016" data-name="Path 17016" d="M250.309,120.142l14.1,3.109,10.619-17.169-10.288,17.631-14.428-3.571Z" transform="translate(3.397 12.586)" fill="#37532e" opacity="0.25" style="mix-blend-mode: multiply;isolation: isolate"/>
        <path id="Path_17017" data-name="Path 17017" d="M255.757,120l6.3,1.276,6-9.639-5.653,10.129L255.757,120Z" transform="translate(6.85 16.104)" fill="#37532e" opacity="0.25" style="mix-blend-mode: multiply;isolation: isolate"/>
        <path id="Path_17018" data-name="Path 17018" d="M253,122.236l12.427,2.739,8.322-15.6L265.81,125.5,253,122.236Z" transform="translate(5.105 14.675)" fill="#37532e" opacity="0.25" style="mix-blend-mode: multiply;isolation: isolate"/>
        <path id="Path_17019" data-name="Path 17019" d="M276.469,93.8q.642-1.007,1.278-2.019l.356-.569c-.1-.163-.2-.325-.3-.49-.186.322-.371.642-.557.962q-.593,1.022-1.189,2.037-2.206,3.752-4.47,7.471l-1.019,1.681-.157.258.167-.255q.547-.828,1.088-1.658,2.424-3.7,4.8-7.419Z" transform="translate(16.139 2.853)" opacity="0.5" fill="url(#radial-gradient-11)" style="mix-blend-mode: screen;isolation: isolate"/>
        <path id="Path_17020" data-name="Path 17020" d="M279.33,91.637q-.527.912-1.059,1.822-1.995,3.406-4.026,6.792-.767,1.282-1.539,2.56-1.617,2.681-3.243,5.354,1.735-2.637,3.46-5.282,1.1-1.679,2.184-3.361,1.914-2.963,3.8-5.94l.83-1.315c-.139-.209-.274-.418-.41-.629Z" transform="translate(15.536 3.43)" opacity="0.5" fill="url(#radial-gradient-12)" style="mix-blend-mode: screen;isolation: isolate"/>
        <path id="Path_17021" data-name="Path 17021" d="M278.727,92.461q-.221.382-.444.765-1.061,1.821-2.14,3.634-1.757,2.953-3.544,5.89-.39.642-.781,1.284.417-.632.833-1.266,2.147-3.272,4.264-6.561.924-1.441,1.836-2.89c.09-.142.18-.284.27-.428q-.147-.211-.294-.426Z" transform="translate(17.029 3.952)" opacity="0.5" fill="url(#radial-gradient-13)" style="mix-blend-mode: screen;isolation: isolate"/>
        <path id="Path_17022" data-name="Path 17022" d="M250.958,119.882l14.888,3.224,7.369-12.72-6.986,13.255-15.271-3.758Z" transform="translate(3.808 15.313)" fill="url(#radial-gradient-14)" style="mix-blend-mode: screen;isolation: isolate"/>
        <path id="Path_17023" data-name="Path 17023" d="M246.711,114.584l7.022,1.39,5.367,1.062-5.155-1.242-7.756-1.871q.262.328.521.66Z" transform="translate(0.786 17.556)" opacity="0.5" fill="url(#radial-gradient-15)" style="mix-blend-mode: screen;isolation: isolate"/>
        <path id="Path_17024" data-name="Path 17024" d="M250.2,116.705l-2.369-.609q.235.331.461.662l1.48.31,10.18,2.142-9.752-2.5Z" transform="translate(1.827 18.932)" opacity="0.5" fill="url(#radial-gradient-16)" style="mix-blend-mode: screen;isolation: isolate"/>
        <path id="Path_17025" data-name="Path 17025" d="M256.729,105.86c-1.363-.359-3.011-.993-2.679-2.567-.242-.054-.533-.121-.776-.173l-1.082,1.742,4.537,1Zm-.379-6.019c1.382-1.019,3.558-1.052,5.235-.866l-5.184-1.1q-.5.88-1.021,1.753l.97.212Z" transform="translate(4.59 7.384)" fill="url(#radial-gradient-17)" style="mix-blend-mode: screen;isolation: isolate"/>
        <path id="Path_17026" data-name="Path 17026" d="M269.263,109.9a2.371,2.371,0,0,1-2.818-.868l2.457,3.691q.512-.907,1.033-1.817l-.671-1.006ZM271.722,105a6.029,6.029,0,0,1-.155,1.631l.462.691q.527-.882,1.065-1.771l-1.988-2.962a6.469,6.469,0,0,1,.616,2.411Z" transform="translate(13.623 10.37)" fill="url(#radial-gradient-18)" style="mix-blend-mode: multiply;isolation: isolate"/>
        <path id="Path_17027" data-name="Path 17027" d="M267.294,106.3a1.976,1.976,0,0,1-.346.25,6.24,6.24,0,0,1-.928.41,5.563,5.563,0,0,1-1.689.3,15.963,15.963,0,0,1-2.042-.118l-.091-.01.093.021,1.719.379,1.456.319,1.76.389.325.07,0,0h0l0,0,1.041-1.719-.016,0-.3-.067-.98-.217Zm2.31-3.5.757.167.289.062.018,0q.532-.936,1.051-1.885l-.131-.026-.167-.036-1.742-.369-3.486-.74a4.982,4.982,0,0,1,2.921,1.755,2.117,2.117,0,0,1,.288.879.868.868,0,0,1,0,.145l.2.044Z" transform="translate(10.931 8.712)" fill="url(#radial-gradient-19)" style="mix-blend-mode: screen;isolation: isolate"/>
        <path id="Path_17028" data-name="Path 17028" d="M252.838,114.5c-2.127-2.394-.747-6.3.905-9.442q-4.117,6-8.793,11.662l21.52,5.021q4.524-5.747,8.528-11.788c-2.539,3.119-5.181,6.063-9.239,7.316-3.663,1.129-10.229.26-12.922-2.769Z" transform="translate(0 11.934)" opacity="0.5" fill="url(#radial-gradient-20)" style="mix-blend-mode: screen;isolation: isolate"/>
      </g>
    </g>
  </g>
</svg>
