<svg id="Group_525" data-name="Group 525" xmlns="http://www.w3.org/2000/svg" xmlns:xlink="http://www.w3.org/1999/xlink" width="390.311" height="547.001" viewBox="0 0 390.311 547.001">
  <defs>
    <linearGradient id="linear-gradient" x1="0.556" y1="1.071" x2="0.462" y2="-0.078" gradientUnits="objectBoundingBox">
      <stop offset="0" stop-color="#067eff"/>
      <stop offset="1" stop-color="#3e37a0"/>
    </linearGradient>
    <linearGradient id="linear-gradient-2" x1="0.5" y1="1" x2="0.5" gradientUnits="objectBoundingBox">
      <stop offset="0" stop-color="#744fd8"/>
      <stop offset="1" stop-color="#3996f7"/>
    </linearGradient>
    <linearGradient id="linear-gradient-3" x1="0.5" y1="1" x2="0.5" gradientUnits="objectBoundingBox">
      <stop offset="0" stop-color="#9d68c2"/>
      <stop offset="1" stop-color="#ccedff"/>
    </linearGradient>
    <linearGradient id="linear-gradient-4" x1="0.5" y1="1" x2="0.5" gradientUnits="objectBoundingBox">
      <stop offset="0" stop-color="#1c257b"/>
      <stop offset="1" stop-color="#482c83"/>
    </linearGradient>
    <linearGradient id="linear-gradient-5" x1="0.5" y1="1" x2="0.5" gradientUnits="objectBoundingBox">
      <stop offset="0" stop-color="#8b8be0"/>
      <stop offset="1" stop-color="#a177b7"/>
    </linearGradient>
    <linearGradient id="linear-gradient-6" x1="0.5" y1="1" x2="0.5" gradientUnits="objectBoundingBox">
      <stop offset="0.016" stop-color="#ffc2a9"/>
      <stop offset="1" stop-color="#ff9595"/>
    </linearGradient>
    <linearGradient id="linear-gradient-7" x1="0.5" y1="1" x2="0.5" gradientUnits="objectBoundingBox">
      <stop offset="0" stop-color="#d1c8f8"/>
      <stop offset="1" stop-color="#eee5f9"/>
    </linearGradient>
    <linearGradient id="linear-gradient-9" x1="0.5" y1="1" x2="0.5" gradientUnits="objectBoundingBox">
      <stop offset="0.016" stop-color="#ffa58b"/>
      <stop offset="1" stop-color="#ff898e"/>
    </linearGradient>
    <linearGradient id="linear-gradient-16" x1="0.405" y1="0.955" x2="0.574" y2="0.031" gradientUnits="objectBoundingBox">
      <stop offset="0" stop-color="#d49092"/>
      <stop offset="0.127" stop-color="#d18e91"/>
      <stop offset="0.204" stop-color="#c98891"/>
      <stop offset="0.266" stop-color="#ba7e90"/>
      <stop offset="0.322" stop-color="#a6708e"/>
      <stop offset="0.372" stop-color="#8c5e8c"/>
      <stop offset="0.42" stop-color="#6c488a"/>
      <stop offset="0.463" stop-color="#462e87"/>
      <stop offset="0.472" stop-color="#3e2987"/>
      <stop offset="0.607" stop-color="#352177"/>
      <stop offset="0.846" stop-color="#281661"/>
      <stop offset="1" stop-color="#24135a"/>
    </linearGradient>
    <linearGradient id="linear-gradient-25" x1="0.5" y1="1" x2="0.5" gradientUnits="objectBoundingBox">
      <stop offset="0" stop-color="#d0c7f8"/>
      <stop offset="1" stop-color="#fff"/>
    </linearGradient>
    <linearGradient id="linear-gradient-27" x1="1" y1="0.5" x2="0" y2="0.5" gradientUnits="objectBoundingBox">
      <stop offset="0" stop-color="#cf6074"/>
      <stop offset="1" stop-color="#ff817f"/>
    </linearGradient>
    <radialGradient id="radial-gradient" cx="0.484" cy="0.703" r="0.489" gradientUnits="objectBoundingBox">
      <stop offset="0" stop-color="#cf95ff"/>
      <stop offset="1" stop-color="#8161ff"/>
    </radialGradient>
    <linearGradient id="linear-gradient-28" x1="0.5" y1="1" x2="0.5" gradientUnits="objectBoundingBox">
      <stop offset="0" stop-color="#8642a0"/>
      <stop offset="1" stop-color="#4e37b7"/>
    </linearGradient>
    <radialGradient id="radial-gradient-2" cx="0.484" cy="0.703" r="0.329" xlink:href="#radial-gradient"/>
    <linearGradient id="linear-gradient-32" x1="0.608" y1="0.882" x2="0.433" y2="-0.316" gradientUnits="objectBoundingBox">
      <stop offset="0" stop-color="#ff8883"/>
      <stop offset="1" stop-color="#e8868d"/>
    </linearGradient>
    <linearGradient id="linear-gradient-33" x1="0.5" y1="1" x2="0.5" gradientUnits="objectBoundingBox">
      <stop offset="0" stop-color="#ff8883"/>
      <stop offset="1" stop-color="#ffb1a4"/>
    </linearGradient>
    <linearGradient id="linear-gradient-34" x1="0.137" y1="0.03" x2="0.137" y2="-1.094" xlink:href="#linear-gradient-4"/>
    <linearGradient id="linear-gradient-35" x1="7.008" y1="0.021" x2="7.008" y2="-1.114" xlink:href="#linear-gradient-4"/>
    <linearGradient id="linear-gradient-36" x1="-10.534" y1="-16.949" x2="-10.534" y2="-17.865" xlink:href="#linear-gradient-4"/>
    <linearGradient id="linear-gradient-37" x1="-0.475" y1="-1.238" x2="-0.475" y2="-2.165" gradientUnits="objectBoundingBox">
      <stop offset="0" stop-color="#6a4fac"/>
      <stop offset="1" stop-color="#513689"/>
    </linearGradient>
    <linearGradient id="linear-gradient-41" x1="21.63" y1="2.634" x2="21.63" y2="1.589" gradientUnits="objectBoundingBox">
      <stop offset="0.016" stop-color="#ffac8b"/>
      <stop offset="1" stop-color="#ff9595"/>
    </linearGradient>
    <linearGradient id="linear-gradient-43" x1="0.5" y1="1" x2="0.5" gradientUnits="objectBoundingBox">
      <stop offset="0.016" stop-color="#ff997c"/>
      <stop offset="1" stop-color="#ff898e"/>
    </linearGradient>
    <linearGradient id="linear-gradient-45" x1="0.5" y1="1" x2="0.5" y2="0" xlink:href="#linear-gradient-27"/>
    <linearGradient id="linear-gradient-52" x1="0.5" y1="1" x2="0.5" gradientUnits="objectBoundingBox">
      <stop offset="0" stop-color="#9d68c2"/>
      <stop offset="1" stop-color="#90aeff"/>
    </linearGradient>
    <linearGradient id="linear-gradient-58" x1="0.5" y1="1" x2="0.5" gradientUnits="objectBoundingBox">
      <stop offset="0" stop-color="#8642a0"/>
      <stop offset="1" stop-color="#6456c0"/>
    </linearGradient>
    <linearGradient id="linear-gradient-59" x1="1" y1="0.5" x2="0" y2="0.5" xlink:href="#linear-gradient-27"/>
    <linearGradient id="linear-gradient-60" x1="0.499" y1="1" x2="0.499" y2="0" xlink:href="#linear-gradient-3"/>
    <linearGradient id="linear-gradient-61" x1="0.5" y1="1" x2="0.5" gradientUnits="objectBoundingBox">
      <stop offset="0" stop-color="#b9acf4"/>
      <stop offset="1" stop-color="#e1d1f5"/>
    </linearGradient>
    <linearGradient id="linear-gradient-66" x1="0.5" y1="1" x2="0.5" gradientUnits="objectBoundingBox">
      <stop offset="0" stop-color="#3d2cb0"/>
      <stop offset="1" stop-color="#0355c7"/>
    </linearGradient>
    <linearGradient id="linear-gradient-67" x1="0.38" y1="0.95" x2="0.555" y2="0.06" gradientUnits="objectBoundingBox">
      <stop offset="0" stop-color="#5e3187"/>
      <stop offset="0.378" stop-color="#412271"/>
      <stop offset="0.756" stop-color="#2b1760"/>
      <stop offset="1" stop-color="#24135a"/>
    </linearGradient>
    <linearGradient id="linear-gradient-71" x1="0.5" y1="1" x2="0.5" gradientUnits="objectBoundingBox">
      <stop offset="0" stop-color="#f2c7cc"/>
      <stop offset="1" stop-color="#a177b7"/>
    </linearGradient>
    <linearGradient id="linear-gradient-72" x1="0.555" y1="0.991" x2="0.448" y2="-0.033" xlink:href="#linear-gradient-4"/>
    <linearGradient id="linear-gradient-73" x1="0.555" y1="0.991" x2="0.448" y2="-0.033" gradientUnits="objectBoundingBox">
      <stop offset="0" stop-color="#1c257b"/>
      <stop offset="1" stop-color="#65459c"/>
    </linearGradient>
    <linearGradient id="linear-gradient-74" x1="0.629" y1="0.984" x2="0.437" y2="-0.006" xlink:href="#linear-gradient-4"/>
    <linearGradient id="linear-gradient-75" x1="0.629" y1="0.984" x2="0.437" y2="-0.006" xlink:href="#linear-gradient-73"/>
    <linearGradient id="linear-gradient-76" x1="0.533" y1="1.147" x2="0.489" y2="-0.117" xlink:href="#linear-gradient-73"/>
    <linearGradient id="linear-gradient-77" x1="0.561" y1="1.045" x2="0.44" y2="-0.058" xlink:href="#linear-gradient-73"/>
    <linearGradient id="linear-gradient-79" x1="0.5" y1="1" x2="0.5" gradientUnits="objectBoundingBox">
      <stop offset="0"/>
      <stop offset="1" stop-color="#e1d1f5"/>
    </linearGradient>
    <linearGradient id="linear-gradient-81" x1="0.5" y1="1" x2="0.5" gradientUnits="objectBoundingBox">
      <stop offset="0" stop-color="#d93de3"/>
      <stop offset="1" stop-color="#ff6dba"/>
    </linearGradient>
    <linearGradient id="linear-gradient-82" x1="0.5" y1="1" x2="0.5" gradientUnits="objectBoundingBox">
      <stop offset="0" stop-color="#a242ea"/>
      <stop offset="1" stop-color="#fe117e"/>
    </linearGradient>
    <linearGradient id="linear-gradient-83" x1="1.989" y1="2.037" x2="1.989" y2="0.884" gradientUnits="objectBoundingBox">
      <stop offset="0" stop-color="#dbccff"/>
      <stop offset="1" stop-color="#d1bbff"/>
    </linearGradient>
    <linearGradient id="linear-gradient-84" x1="2.001" y1="2.045" x2="2.001" y2="0.893" gradientUnits="objectBoundingBox">
      <stop offset="0" stop-color="#b5a6e7"/>
      <stop offset="1" stop-color="#7760bf"/>
    </linearGradient>
    <linearGradient id="linear-gradient-85" x1="4.006" y1="3.313" x2="4.006" y2="2.194" xlink:href="#linear-gradient-84"/>
    <linearGradient id="linear-gradient-86" x1="34.819" y1="9.946" x2="33.453" y2="9.946" xlink:href="#linear-gradient-5"/>
    <linearGradient id="linear-gradient-87" x1="17.45" y1="5.195" x2="17.45" y2="4.775" gradientUnits="objectBoundingBox">
      <stop offset="0" stop-color="#fff"/>
      <stop offset="1" stop-color="#a177b7"/>
    </linearGradient>
    <linearGradient id="linear-gradient-88" x1="10.253" y1="3.589" x2="10.253" y2="2.286" gradientUnits="objectBoundingBox">
      <stop offset="0"/>
      <stop offset="1" stop-color="#fff"/>
    </linearGradient>
    <linearGradient id="linear-gradient-89" x1="0.5" y1="1" x2="0.5" gradientUnits="objectBoundingBox">
      <stop offset="0" stop-color="#d906e3"/>
      <stop offset="1" stop-color="#ff6df9"/>
    </linearGradient>
  </defs>
  <path id="Path_12650" data-name="Path 12650" d="M138.7,275.99A136.3,136.3,0,0,0,275.99,138.7C275.6,62.492,213.5.393,137.288,0A136.3,136.3,0,0,0,0,137.288C.393,213.5,62.492,275.6,138.7,275.99Z" transform="translate(195.156 390.311) rotate(-135)" fill="#e0f3ff"/>
  <g id="Group_507" data-name="Group 507" transform="translate(33.986 85.212)">
    <g id="Group_495" data-name="Group 495" transform="translate(185.806 366.73)">
      <path id="Path_4199" data-name="Path 4199" d="M3081.637,3137.482h50.3c2.238,0,4.067-1.413,4.118-3.182l.939-32.608c.052-1.827-1.806-3.33-4.118-3.33h-52.366c-2.319,0-4.181,1.513-4.118,3.345l1.132,32.608C3077.58,3136.078,3079.406,3137.482,3081.637,3137.482Z" transform="translate(-3076.255 -3098.259)" opacity="0.81" fill="url(#linear-gradient)"/>
      <g id="Group_493" data-name="Group 493" transform="translate(0 0)">
        <path id="Path_4200" data-name="Path 4200" d="M3081.218,3137.252h50.3c2.29,0,4.2-1.472,4.248-3.282l.939-32.608a3,3,0,0,0-1.21-2.425,4.826,4.826,0,0,0-3.038-1.011h-52.366a4.822,4.822,0,0,0-3.045,1.017,2.993,2.993,0,0,0-1.2,2.434l1.132,32.608C3077.034,3135.817,3078.9,3137.252,3081.218,3137.252Zm51.235-39.12a4.527,4.527,0,0,1,2.852.949,2.817,2.817,0,0,1,1.136,2.276l-.939,32.608c-.049,1.7-1.837,3.082-3.988,3.082h-50.3c-2.177,0-3.928-1.347-3.988-3.066l-1.132-32.609a2.811,2.811,0,0,1,1.128-2.285,4.53,4.53,0,0,1,2.859-.954Z" transform="translate(-3075.836 -3097.926)" fill="#473da2"/>
      </g>
      <g id="Group_494" data-name="Group 494" transform="translate(20.725 6.773)">
        <rect id="Rectangle_717" data-name="Rectangle 717" width="26.451" height="0.895" fill="#fff"/>
        <rect id="Rectangle_718" data-name="Rectangle 718" width="13.226" height="0.895" transform="translate(13.226 2.177)" fill="#fff"/>
        <rect id="Rectangle_719" data-name="Rectangle 719" width="13.226" height="0.895" transform="translate(13.226 3.995)" fill="#fff"/>
        <rect id="Rectangle_720" data-name="Rectangle 720" width="10.522" height="0.895" transform="translate(1.22 3.995)" fill="#fff"/>
        <rect id="Rectangle_721" data-name="Rectangle 721" width="21.322" height="0.895" transform="translate(5.129 5.813)" fill="#fff"/>
        <rect id="Rectangle_722" data-name="Rectangle 722" width="7.589" height="0.895" transform="translate(18.862 7.631)" fill="#fff"/>
        <rect id="Rectangle_723" data-name="Rectangle 723" width="13.125" height="0.895" transform="translate(4.176 13.084)" fill="#fff"/>
        <rect id="Rectangle_724" data-name="Rectangle 724" width="23.786" height="0.895" transform="translate(2.665 9.449)" fill="#fff"/>
        <rect id="Rectangle_725" data-name="Rectangle 725" width="18.299" height="0.895" transform="translate(8.152 11.266)" fill="#fff"/>
        <rect id="Rectangle_726" data-name="Rectangle 726" width="8.608" height="0.895" transform="translate(17.843 13.084)" fill="#fff"/>
        <rect id="Rectangle_727" data-name="Rectangle 727" width="13.226" height="0.895" transform="translate(13.226 14.902)" fill="#fff"/>
        <rect id="Rectangle_728" data-name="Rectangle 728" width="3.795" height="0.895" transform="translate(22.656 16.72)" fill="#fff"/>
        <rect id="Rectangle_729" data-name="Rectangle 729" width="13.766" height="0.895" transform="translate(7.33 16.72)" fill="#fff"/>
        <rect id="Rectangle_730" data-name="Rectangle 730" width="13.125" height="0.895" transform="translate(4.176 18.484)" fill="#fff"/>
        <rect id="Rectangle_731" data-name="Rectangle 731" width="8.608" height="0.895" transform="translate(17.843 18.484)" fill="#fff"/>
        <rect id="Rectangle_732" data-name="Rectangle 732" width="13.226" height="0.895" transform="translate(13.226 20.302)" fill="#fff"/>
        <rect id="Rectangle_733" data-name="Rectangle 733" width="3.795" height="0.895" transform="translate(22.656 22.119)" fill="#fff"/>
        <rect id="Rectangle_734" data-name="Rectangle 734" width="13.766" height="0.895" transform="translate(7.33 22.119)" fill="#fff"/>
      </g>
    </g>
    <g id="Group_496" data-name="Group 496" transform="translate(0 0)">
      <path id="Path_4201" data-name="Path 4201" d="M3487.339,1785.873a.83.83,0,1,1-.831.83A.83.83,0,0,1,3487.339,1785.873Z" transform="translate(-3338.673 -1729.608)" fill="#34c7ff"/>
      <path id="Path_4202" data-name="Path 4202" d="M3355.225,1713.385s34.49-5.21,67.076-3.469c0,0,2.9,5.305,7.223,13.753,3.568-16.147,12.28-36.673,15.084-38.738,2.317-1.692,6.654-3.307,9.3-4.2,1.04-2.6,2.149-4.34,3.194-5.128a4.154,4.154,0,0,1,4.115-.781l0-.006a3.665,3.665,0,0,1,.749.351,7,7,0,0,1,2.1,1.914s1.891,1.189,6.964,0,14.509-3.023,14.509-3.023l1.656-.135.007-.024a83.3,83.3,0,0,0,1.556-9.975c.088-1.373.144-2.824.144-4.389l.023-.012c-4.442-.018-8.323-.72-10.784-1.979a4.745,4.745,0,0,1-1.44-1.215.682.682,0,0,0-.126-.138c-5.8-7.226-7.176-35.6-5.873-40.727a22.876,22.876,0,0,1,3.029-6.38c-1.3-4.989-1.5-13.556-.428-15.314a3.5,3.5,0,0,1,2.419-1.245l0-.009s.114-.019.308-.046a13.57,13.57,0,0,1,2.088-.139h.22c.5-.006,1.011.013,1.523.05.218-1.922.47-4.014.794-6.153l-.056,0a5.739,5.739,0,0,1-.45-4.4,37.434,37.434,0,0,1-.391-10.143.519.519,0,0,1,.015-.192,40.641,40.641,0,0,1,.551-4.375c.3-1.837.583-2.99.583-2.99a20.892,20.892,0,0,1,2.166-8.353c0-.025.013-.037.025-.063v-.025h.013a12.869,12.869,0,0,1,3.018-3.895c5.1-4.383,20.877-5.46,27.765,0,2.915,2.315,5.636,6.241,8.131,10.125a19.211,19.211,0,0,0-11.709-1.64c-.11.022-.218.046-.327.071q-.4.09-.791.2c-.084.024-.17.045-.255.07-.319.1-.635.209-.948.329-.116.045-.232.094-.347.142-.218.09-.435.187-.649.289-.12.057-.24.112-.358.172-.294.149-.583.308-.869.48-.112.067-.221.142-.332.213-.2.126-.392.257-.585.394-.125.089-.25.179-.372.273-.283.216-.564.436-.837.677a4.807,4.807,0,0,0-.375.377q-.081.091-.156.183l-.017.022c-.073.091-.141.184-.2.277-.01.016-.023.032-.033.049-.056.085-.1.171-.152.258-.02.038-.042.075-.061.112-.048.1-.091.193-.129.29-.014.036-.026.072-.039.108-.031.087-.06.174-.083.261,0,.015-.008.031-.013.046q-.039.159-.063.318l-.007.047c-.012.093-.02.186-.023.279,0,.038,0,.075,0,.113,0,.1,0,.192.006.287v.021c0,.026.006.052.009.078.008.087.018.174.033.26q0,.026.009.052c0,.022.011.044.015.067.024.115.052.229.086.342.018.061.039.121.06.181.044.124.094.248.15.368l.009.02.02.04c.016.033.035.065.052.1.057.109.118.217.184.322.015.024.03.047.045.07l.067.1c.071.1.145.2.224.3.04.049.081.1.123.143q.122.138.255.266c.046.044.092.088.139.131.093.083.191.163.291.24.048.037.095.075.144.11.111.079.226.151.342.22.043.026.086.055.13.079a4.708,4.708,0,0,0,.451.219l.026.013.059.024c.062.025.124.051.187.073s.121.039.181.057.123.039.187.055.128.029.193.043.123.027.184.037.135.018.2.026.121.016.182.02.141.005.211.007.119,0,.179,0,.146-.008.219-.014c.058,0,.117-.007.175-.014.074-.009.149-.024.222-.037.058-.01.116-.018.173-.031.076-.017.151-.041.226-.062.056-.016.113-.03.169-.049.077-.026.154-.059.231-.09.054-.022.107-.04.161-.065.079-.036.157-.08.236-.122.051-.027.1-.05.152-.079.085-.05.168-.108.251-.164.044-.029.087-.054.13-.085q.189-.137.372-.3c.037-.032.079-.053.115-.084h0c2.624-2.178,7.182-1.117,10.475.873l.067.041c.22.135.432.272.64.414l.065.045a10.63,10.63,0,0,1,2.153,1.924h0l.02.024h0c.048.059.107.118.151.177a4.748,4.748,0,0,0,.615.669c.108.1.226.167.34.25s.225.182.344.254a4.2,4.2,0,0,0,1.646,1.925,17.055,17.055,0,0,0,1.84,1.007,4.122,4.122,0,0,0,.063.566c.007.037.005.072.013.11a4.67,4.67,0,0,0,.2.718,21.164,21.164,0,0,0,4.329,6.686l.51.581c.523.588,1.053,1.177,1.584,1.788h-.009c-.54.087-1.08.157-1.621.231v0c-6.188.852-12.464.951-18.643,1.852-.219.032-.439.057-.657.091-.243.038-.485.082-.728.122-.857.144-1.713.3-2.566.481-.63.137-1.247.3-1.858.465l-.052.015q-.877.248-1.734.532h0l-.1.03c-.173.059-.35.114-.522.175q-.824.289-1.632.61c-.229.092-.456.188-.684.283-.323.134-.644.271-.964.412-.284.126-.568.252-.85.383-.231.107-.461.218-.691.327q-.7.333-1.39.683c-.071.036-.141.074-.212.11-.78.4-1.558.8-2.333,1.22h0q-1.077.583-2.156,1.185h0l-.263.146-.445.246h0l-.967.536a26.957,26.957,0,0,0-2.379,1.448,8.143,8.143,0,0,0-3.615,5.125,16.29,16.29,0,0,0-.149,5.567h0c.082.665.191,1.332.315,2,.006.033.011.065.017.1.115.609.243,1.218.375,1.828.322,1.473.668,2.943.944,4.4q.01.054.021.109c.061.324.115.648.167.971,0,.013,0,.026.006.039.108.68.191,1.358.242,2.031h0c.017.227.037.454.046.679.478,11.813.686,23.63.76,35.449h0q0,.659.01,1.318l0,0c0,.172,0,.345,0,.517,0,.061,0,.121,0,.181h0v.055h0q.029,5.869.02,11.739c0,.932-.011,1.865-.013,2.8h0q-.015,4.593-.058,9.186c.006,0,.01.01.017.014-.008,1.038-.027,2.075-.037,3.113q-.014,1.365-.032,2.73-.019,1.626-.039,3.251h0c0,.108,0,.216-.005.325-.016,1.176-.023,2.351-.042,3.527l-.016,0q-.057,3.578-.13,7.154c0,.165,0,.331-.008.5h0c-.388,18.255-1.127,36.5-2.369,54.717h.011c-.035.518-.063,1.036-.1,1.553l-.021,0c-.128,1.839-.251,3.679-.39,5.517a3.854,3.854,0,0,0-2.582,3.8v99.553q0,3.8-.019,7.6v0h0c-.082.212-.17.422-.252.634-.125.322-.257.641-.383.961l.012.013c-.419,1.063-.852,2.121-1.284,3.18-.1.247-.2.5-.3.743-.053.129-.106.257-.158.385q-1.006,2.448-2.037,4.887v0c-.066.156-.13.312-.2.467h0c-1.49,3.53-2.991,7.056-4.428,10.606A155.3,155.3,0,0,0,3465.77,1936c-1.964,14.387-2.427,28.869-2.783,43.36l.007,0c-.005.184-.009.367-.014.551q-.022.864-.043,1.729h0q-.089,3.7-.189,7.4-.075,2.865-.163,5.729h0a4.888,4.888,0,0,0-1.25.072,4.746,4.746,0,0,0-.906.252,4.322,4.322,0,0,0-6.618-.692,100.622,100.622,0,0,0-1.29-10.025s-2.144-5.6-2.993-9.117v-.013a36.733,36.733,0,0,1-1.365-7.239c-.7-7.827-7.163-67.787,1.365-116.19l0,0,0,0v0s-2.542-1.741-2.192-3.632,3.081-2.492,3.081-2.492l1.358-4.408-.035-.066.636-1.958h0l.444-1.37h0a10.943,10.943,0,0,1-.615-4.058,3.744,3.744,0,0,1,.4-1.4c.037-.1.064-.151.064-.151a23.492,23.492,0,0,1,3.093-4.033,14.513,14.513,0,0,1-.25-6.349.224.224,0,0,0,.012-.062,6.8,6.8,0,0,1,1.211-2.857,12.215,12.215,0,0,1,3.06-3.067c6.162-26.813,1.427-51.572,1.427-51.572a67.315,67.315,0,0,1-4.766-10.47,59.1,59.1,0,0,0-7.059,11.617c4.428,10.2,8.611,20.7,11.825,30.425l-1.9,3.068s-1.18.2-3.331.485l-.215.028q-.553.073-1.186.15c-5.857.749-11.583,1.192-17.055,1.406.187,1.821.434,3.779.434,3.779a57.307,57.307,0,0,1-7.277,5.861c-2.719,1.868-5.592,3.788-7.491,5.049-.085-.112-.174-.223-.273-.332-1.223-1.346-2.217-2.8-3.323-4.195h0a19.645,19.645,0,0,0-2.325-2.515c-.989-.878-2.015-1.712-3.045-2.542h0c-.735-.593-1.471-1.184-2.2-1.785-.649-.532-1.292-1.071-1.921-1.628a4.123,4.123,0,0,0-4.115-.9c-.59-.611-1.169-1.25-1.738-1.907-3.675-.414-7.421-.945-11.2-1.613-1.549-.266-2.391-.439-2.391-.439s-.895-1.857-2.415-5.048l0,0h0c-1.381-2.9-3.279-6.9-5.494-11.619h0l0-.007c-1.3-2.771-2.712-5.788-4.192-8.974-.135.006-.273.012-.417.016.024-.346.032-.688.04-1.031.007-.318,0-.634-.005-.95,0-.192,0-.385-.007-.577,0-.011,0-.023,0-.034-.017-.37-.053-.736-.087-1.1-.018-.187-.026-.376-.047-.563-.043-.377-.1-.752-.163-1.126-.028-.177-.048-.354-.079-.53-.068-.384-.151-.765-.233-1.146-.036-.166-.065-.332-.1-.5-.061-.263-.133-.524-.2-.786-.078-.3-.151-.61-.236-.914-.047-.168-.1-.335-.149-.5-.109-.372-.217-.744-.335-1.116-.038-.119-.08-.239-.119-.358-.134-.416-.27-.831-.413-1.248q-.279-.8-.573-1.608c-.3-.823-.584-1.651-.861-2.48q-.153-.457-.3-.915-.087-.263-.173-.526-.139-.433-.278-.867c-.664-2.077-1.306-4.158-2.005-6.221-.134-.4-.268-.792-.407-1.187-.064-.182-.13-.364-.2-.546q-.247-.683-.507-1.363c-.071-.185-.142-.371-.215-.556-.242-.615-.492-1.229-.757-1.838a4.7,4.7,0,0,0-.309-.584c-.03-.048-.06-.095-.091-.141a3.825,3.825,0,0,0-.306-.4c-.021-.024-.041-.052-.063-.075a3.364,3.364,0,0,0-.4-.364c-.038-.029-.077-.054-.115-.081a3.186,3.186,0,0,0-.346-.211c-.041-.021-.079-.044-.12-.063a3.076,3.076,0,0,0-.453-.17c-.045-.013-.092-.021-.138-.032a3.186,3.186,0,0,0-.35-.063c-.06-.007-.119-.015-.18-.019a3.59,3.59,0,0,0-.409,0c-.074,0-.148.012-.222.02-.1.011-.208.025-.313.045q-.117.022-.234.051c-.087.022-.175.049-.262.076-.126.04-.25.086-.373.137-.084.035-.168.07-.251.11s-.17.088-.254.135c-.066.037-.13.076-.194.115-.083.052-.167.1-.248.16a4.982,4.982,0,0,0-1.828,2.365,35.4,35.4,0,0,1,1.245-4.92,8.4,8.4,0,0,0,.11-4.147c-.577-2.4-2.145-4.8-4.7-5.378-1.906-4.565-3.6-8.789-4.964-12.44Zm119.468-118.995c-1,1.105-1.23,4.2-1.034,7.4a14.785,14.785,0,0,1,3.552,1.969,15.676,15.676,0,0,0,1.409-2.851c.029-.084.056-.183.084-.278a11.476,11.476,0,0,1,.274-1.195c.281-1.532.515-3.734.8-6.282-.33-.034-.663-.057-1-.064C3477.082,1593.124,3475.48,1593.522,3474.693,1594.39Zm-1.138,11.085a49.123,49.123,0,0,1-.429-6.991A35.2,35.2,0,0,0,3473.555,1605.475Z" transform="translate(-3353.96 -1548.091)" fill="#34c7ff"/>
    </g>
    <g id="Group_501" data-name="Group 501" transform="translate(1.412 2.26)">
      <path id="Path_4203" data-name="Path 4203" d="M3657.669,2197.409s3.156-.951,4.421,1.578,5.222,32.9,4.12,41.44-4.27,5.385-4.27,5.385.313,5.06,2.367,6.487l.013-.013a1.065,1.065,0,0,0,.137-.1,2.219,2.219,0,0,0,.188-.125h.012c1.215-.8,5.423-3.582,9.305-6.25a57.272,57.272,0,0,0,7.276-5.861s-.639-5.06-.639-6.475,10.132-35.128,20.088-45.561c9.292-9.731.163-64.547-1.115-71.948l-.15-.826s-8.063,2.378-11.544,4.92-15.983,33.364-16.609,49.181-6.324,24.8-6.324,24.8-1.9-1.152-5.073,0Z" transform="translate(-3597.23 -1983.224)" fill="url(#linear-gradient-2)"/>
      <path id="Path_4204" data-name="Path 4204" d="M3657.669,2252.063c1.215-.8,5.423-3.582,9.305-6.25a57.272,57.272,0,0,0,7.276-5.861s-.639-5.06-.639-6.475,10.132-35.128,20.088-45.561c9.292-9.731.163-64.547-1.115-71.948l-.15-.826s-6.562,8.228-9.405,24.6,1.177,48.654,1.177,48.654-5.686,26.1-19.687,26.575c0,0,11.744,17.2,7.114,25.824C3670.748,2242.438,3659.811,2250.547,3657.669,2252.063Z" transform="translate(-3590.242 -1983.224)" opacity="0.83" fill="url(#linear-gradient-3)" style="mix-blend-mode: multiply;isolation: isolate"/>
      <path id="Path_4205" data-name="Path 4205" d="M3177.694,2912.445a36.784,36.784,0,0,0,1.365,7.238v.013c1.014,3.494,2.292,6.111,2.993,9.117,1.1,4.746,2.367,23.218,2.367,23.218h33.225c-1.264-6.838-2.843-12.135-4.747-29.23-1.815-16.344,7.953-72.674,8.792-77.5.037-.213.062-.326.062-.326,8.541,35.742,29.506,77.2,31.647,79.563a26.051,26.051,0,0,0,6.4,4.508c2.379,4.509,7.364,22.981,7.364,22.981h38.2c-2.129-9.768-11.86-24.4-14.953-29.856s-14.7-42.718-17.8-67.39c-1.29-10.282-2.28-21.14-3.006-30.319v-.025c-1.014-12.824-1.5-22.342-1.5-22.342-9.718-9.956-85.749-19.774-85.749-19.774l-2.4,7.8s-2.718.588-3.081,2.491,2.192,3.632,2.192,3.632C3170.53,2844.655,3176.992,2904.618,3177.694,2912.445Z" transform="translate(-3083.491 -2492.535)" fill="url(#linear-gradient-4)"/>
      <path id="Path_4206" data-name="Path 4206" d="M3420.49,2805.875s-22.992-2.835-37.467,4.047-13.177,18.746-13.177,18.746l4.08,16.294-14.063-14.712-28.636-34.011a43.172,43.172,0,0,0,12.323,4.667s-9.765-6.051-11.426-10.8l2.4-7.8,85.963,18.361Z" transform="translate(-3235.663 -2492.521)" opacity="0.62" fill="url(#linear-gradient-5)" style="mix-blend-mode: multiply;isolation: isolate"/>
      <path id="Path_4207" data-name="Path 4207" d="M3836.745,2586.006s.949,10.677-5.458,15.66c0,0-13.169-6.881-19.656-18.113S3836.745,2586.006,3836.745,2586.006Z" transform="translate(-3765.435 -2337.418)" fill="url(#linear-gradient-6)"/>
      <path id="Path_4208" data-name="Path 4208" d="M3418.057,2802.1l.217,1.652s-17.759-4.494-26.3-4.81-17.6,6.48-35.788,3.158-24.958-16.447-24.958-16.447l1.081-3.327Z" transform="translate(-3233.447 -2492.535)" fill="url(#linear-gradient-7)"/>
      <path id="Path_4209" data-name="Path 4209" d="M3411.453,2802.287a348.952,348.952,0,0,0-41.222-7.063c-23.979-2.729-33.007-3.559-35.25-5.339s-3.754-6.19-3.754-6.19l.445-1.369,85.749,19.774.217,1.652Z" transform="translate(-3232.811 -2492.535)" opacity="0.62" fill="url(#linear-gradient-5)" style="mix-blend-mode: multiply;isolation: isolate"/>
      <path id="Path_4210" data-name="Path 4210" d="M4019.064,2466.049s-3.671,2.975-3.694,5.531,6.067,1.37,6.067,1.37Z" transform="translate(-3998.495 -2251.098)" fill="url(#linear-gradient-9)"/>
      <path id="Path_4211" data-name="Path 4211" d="M3046.3,2172.25l2.6-14.239s6.65,0,16.368,9.017a28.19,28.19,0,0,0,3.569,10.984s11.2,5.4,16.394,12.749,7.164,8.09,12.586,3.92c1.44-1.1,2.417-4.846,2.931-9.943a128.548,128.548,0,0,0-.852-28c-1.1-7.84-2.918-14.791-5.435-18.409a16.782,16.782,0,0,0-2.142-8.629c-.113.075-.238.151-.35.238a7.305,7.305,0,0,1-4.859,1.19c-2.693-.476-4.947-4.6-4.947-4.6a3.605,3.605,0,0,0-2.329,1.278s-10.758-6.525-17.571-17.508-7.9-12.323-7.9-12.323a23.1,23.1,0,0,0-4.095-1.152,15.329,15.329,0,0,0-6.187-.025S3011.026,2147.892,3046.3,2172.25Z" transform="translate(-2845.075 -1968.985)" fill="url(#linear-gradient-2)"/>
      <path id="Path_4212" data-name="Path 4212" d="M3362.63,1998.574s4.121-6.154,4.119-20.477l32.084-15.656s-1.614,11.052,3.825,20.633c1.437,2.531,8.135,6.532,8.135,6.532s-29.319,36.16-43.4,32.69-11.255-18.8-11.255-18.8S3358.519,2004.429,3362.63,1998.574Z" transform="translate(-3231.805 -1866.655)" fill="url(#linear-gradient-9)"/>
      <path id="Path_4213" data-name="Path 4213" d="M3407.553,2066.186s-15.89,15.839-29.571,16.728c-14.652.952-12.237-11.232-12.237-11.232s-6.627,9.29-4.729,16.608,16.373,7.675,27.526,2.81,21.824-23.763,21.824-23.763Z" transform="translate(-3232.508 -1945.852)" fill="url(#linear-gradient-7)"/>
      <path id="Path_4214" data-name="Path 4214" d="M3048.066,2172.25l2.605-14.239s6.65,0,16.368,9.017a28.188,28.188,0,0,0,3.569,10.984s11.2,5.4,16.393,12.749,7.164,8.09,12.586,3.92c1.44-1.1,2.417-4.846,2.93-9.943l-.852-2.042v-25.961c-1.1-7.84-2.918-14.791-5.435-18.409a16.784,16.784,0,0,0-2.142-8.629c-.112.075-.238.151-.35.238-9.2,6-12.457,23.65-13.09,36.78-.088-3.331-2.2-16.224-3.8-15.977-2.057.316-5.531,24.044-5.531,24.044-4.108-20.351,9.142-44.9,10.207-46.851-12.11,16.731-14.164,35.943-14.164,35.943l-18.823-13.763s-11.334-11.4-7.414-31.008,10.908-22.28,10.908-22.28a15.329,15.329,0,0,0-6.187-.025S3012.787,2147.892,3048.066,2172.25Z" transform="translate(-2846.837 -1968.985)" opacity="0.83" fill="url(#linear-gradient-3)" style="mix-blend-mode: multiply;isolation: isolate"/>
      <path id="Path_4215" data-name="Path 4215" d="M3344.7,1717.474a.708.708,0,0,1,.125.138,4.732,4.732,0,0,0,1.44,1.215c7.126,3.645,26.1,2.693,36.381-6.324a43.435,43.435,0,0,0,9.167-11.734.138.138,0,0,1,.026-.05c3.732-6.8,5.849-13.864,7.9-18.748,3.319-7.9,6.049-21.14,5.373-28.792-.626-7.113-2.054-13.124-11.709-21.353s-33.376-8.7-39.387-.476-5.848,26.738-7.276,30.846-6.487,9.017-7.915,14.552C3337.528,1681.87,3338.9,1710.248,3344.7,1717.474Z" transform="translate(-3222.085 -1609.375)" fill="url(#linear-gradient-6)"/>
      <path id="Path_4216" data-name="Path 4216" d="M3347.331,1664.915s.309,4.94,4.162,5.282c3.02.268,4.867-4.192,4.867-4.192s.537-12.085-1-18.033l-1.436-4.746a13.65,13.65,0,0,1,10.3-3.786c6.169.543,8.384,7.134,8.384,7.134s-5.478,15.674-4.687,23.233a15.325,15.325,0,0,0,11.094,3.475c8.055-.549,12.1-5.343,12.1-5.343s4.4,5.133,5.234,9.495c1,5.21-.726,21.712-.726,21.712s5.537-17.876,7.04-23.1,4.272-28.4,2.611-32.35-6.452-16.837-26.994-19.373-24.359,4.345-24.359,4.345l-2.117,10.2.01,5.26s-1.437,13.56-1.947,15.839A15.98,15.98,0,0,1,3347.331,1664.915Z" transform="translate(-3224.779 -1608.119)" fill="url(#linear-gradient-9)"/>
      <path id="Path_4217" data-name="Path 4217" d="M3301.654,1594.181a36.831,36.831,0,0,1,4.509-13.851,31.628,31.628,0,0,0,11.509,7.114,38.194,38.194,0,0,1-4.847-5.435,53.276,53.276,0,0,0,10.9,6.274s-1.778-2.73-1.778-3.92,4.509-6.4,9.731-6.287a25.077,25.077,0,0,1,20.176,13.049c4.972,9.493-.025,10.37-2.755,12.849a176.15,176.15,0,0,1,1.064,21.616,48.787,48.787,0,0,1-.814,7.94c-.075.363-.163.7-.25,1.027l7.125-6.512a30.178,30.178,0,0,1,2.805-10.582c.3-.714.651-1.453,1.04-2.216l.037-.063c.15-.3.313-.6.476-.914,1.7-3.181,6.946-9.133,6.188-15.193-.712-5.7-11.085-10.593-13.615-14.4,0,0,7.953,2.542,11.722,6.337a9.276,9.276,0,0,0-3.557-5.586c-2.943-2.016-5.422-.764-9.706-2.492s-10.094-16.131-16.97-21.591-22.667-4.383-27.765,0a12.888,12.888,0,0,0-3.018,3.895h-.012v.025c-.013.025-.026.037-.026.063a20.9,20.9,0,0,0-2.166,8.354S3298.686,1585.84,3301.654,1594.181Z" transform="translate(-3174.703 -1557.642)" fill="url(#linear-gradient-16)"/>
      <path id="Path_4218" data-name="Path 4218" d="M2665.158,1914.089l4.983,1.661s22.779-13.514,30.135-46.384c0,0-5.695-9.853-5.932-13.412s3.4-10.995,4.509-20.328-1.108-16.452-.949-17.559,5.854-1.266,7.435,3.322-.791,12.813,0,14.4a45.692,45.692,0,0,0,2.689,4.271s8.384-12.655,10.6-13.921,5.695,4.935,7.277,5.235,7.355-7.687,12.932-12.315,16.017-14.356,17.084-14.119,2.492,2.136,2.254,4.034-4.746,10.2-11.627,13.526c0,0-8.305,5.7-12.7,13.407,0,0,1.9,3.2,3.2,3.322s8.78-4.864,14.711-7.237,11.39-3.915,12.339-3.56.594,2.492,0,3.915-5.932,5.577-11.746,7c0,0-8.661,3.441-11.509,7,0,0,.356,3.559,1.3,4.153s8.068-.474,12.458-1.068,9.477.119,10.077.712.126,2.61-3.433,3.915-7.831.475-8.542.593-13.644,4.153-15.187,5.1-8.309,11.059-13.173,14.144-11.86,1.517-11.86,1.517-7.791,43.741-11.587,61.142-18.35,35.435-31.006,36.226c0,0-11.39-4.429-12.023-27.842S2665.158,1914.089,2665.158,1914.089Z" transform="translate(-2420.747 -1746.417)" fill="url(#linear-gradient-6)"/>
      <path id="Path_4219" data-name="Path 4219" d="M3256.835,2162.092s4.734,24.759-1.428,51.572c0,0-3.794,2.6-4.27,5.923a.221.221,0,0,1-.013.063,19.837,19.837,0,0,0,.25,6.349,23.434,23.434,0,0,0-3.093,4.032,3.7,3.7,0,0,0-.464,1.553,13.51,13.51,0,0,0,1.178,5.561s2.855,7.364,32.511,9.969a385.553,385.553,0,0,1,52.674,8.3s1.791-5.924-1.478-10.433c0,0,5.047-4.509,4.809-6.174s-11.159-20.638-8.316-33.926,13.525-24.071,19.461-50.007c0,0,3.957-1.327,4.2-3.231s-1.74-4.984-1.74-4.984l-.715,1.353s-13.525-7.752-9.881-40.5,7.477-34.74,14.252-33.826c0,0-5.4-5-6.663-4.884s-1.741,2.442-1.741,2.442a14.043,14.043,0,0,1-9.217,0,24.5,24.5,0,0,1-8.329-5.06s-30.049,25.442-43.235,23.883c-15.047-1.779-4.434-18.253-4.434-18.253s-9.45,1.846-14.51,3.024-6.963,0-6.963,0-3.005-4.471-6.963-1.478-8.854,19.436-7.277,46.012S3256.835,2162.092,3256.835,2162.092Z" transform="translate(-3149.57 -1945.852)" fill="url(#linear-gradient-2)"/>
      <path id="Path_4220" data-name="Path 4220" d="M3452.185,1795.423a10.731,10.731,0,0,1,.386,4.627c-.416,2.2-8.313,4.335-12.062,1.011S3452.185,1795.423,3452.185,1795.423Z" transform="translate(-3293.583 -1739.158)" fill="#e87a8d"/>
      <path id="Path_4221" data-name="Path 4221" d="M3659.013,2246.229c9.807,26.262,36.707,82.1,36.707,82.1,35.429,6.8,68.654,1.1,68.654,1.1l1.9-3.068c-12.336-37.321-38.924-85.987-38.924-85.987-32.586-1.741-67.076,3.469-67.076,3.469Z" transform="translate(-3659.013 -2078.556)" fill="url(#linear-gradient-4)"/>
      <path id="Path_4222" data-name="Path 4222" d="M3997.26,2402.974s1.5,17.637-2.61,25.921l-16.179-35.3,7.7,1.813-1.012,3.565A20.4,20.4,0,0,1,3997.26,2402.974Z" transform="translate(-3965.854 -2195.79)" opacity="0.62" fill="url(#linear-gradient-5)" style="mix-blend-mode: multiply;isolation: isolate"/>
      <path id="Path_4223" data-name="Path 4223" d="M3983.043,2393.6s-2.576,2.046-3.085,3.717c-.553,1.819-1.266,6.394,4.034,7.83l2.373.633s-1.74.791-2.056,1.978,1.661,3.8,4.825,4.429,8.464-.633,10.045-2.057.554-3.4-1.819-3.955c0,0,3.48-.782,3.322-3.2s-8.146-5.027-16.61-4.236Z" transform="translate(-3969.276 -2195.79)" fill="url(#linear-gradient-6)"/>
      <path id="Path_4224" data-name="Path 4224" d="M3565.939,1785.673a3.844,3.844,0,0,1-4.111,1.443c-2.832-.6-2.568-5.514-2.053-7.235S3565.9,1784.08,3565.939,1785.673Z" transform="translate(-3435.114 -1727.056)" fill="#e87a8d"/>
      <path id="Path_4225" data-name="Path 4225" d="M4029.446,2342.75s-4.271,3.964-4.271,6.692,6.288,6.169,17.085,7.514a5.564,5.564,0,0,0,0-4.35c-1.009-2.254-6.407-5.418-10.856-6.13Z" transform="translate(-4022.085 -2156.974)" fill="url(#linear-gradient-6)"/>
      <path id="Path_4226" data-name="Path 4226" d="M4003.105,2478.765s7.334-.712,6.7,5.988a20.479,20.479,0,0,1-7.109-.293c-3.006-.87-2.61-3.164-2.373-3.955S4000.825,2479.081,4003.105,2478.765Z" transform="translate(-3983.304 -2260.787)" fill="url(#linear-gradient-6)"/>
      <path id="Path_4227" data-name="Path 4227" d="M3425.973,1725.234a15.775,15.775,0,0,0-4.33-7.692c-2.69-2.786-7.886-5.6-11.528-7.02a8.712,8.712,0,0,0-.553,3.4s-.594-2.1-1.107-4.074a14.411,14.411,0,0,0-.573,5.833s3.188,1.123,8.424,2.551A17.378,17.378,0,0,1,3425.973,1725.234Z" transform="translate(-3259.273 -1673.834)" fill="url(#linear-gradient-4)"/>
      <path id="Path_4228" data-name="Path 4228" d="M3562.737,1761.27s0-10.006-2.907-10.559c-2.434-.464-3.579,5.189-3.579,5.189Z" transform="translate(-3431.156 -1705.005)" fill="#77485e"/>
      <path id="Path_4229" data-name="Path 4229" d="M3453.832,1775.209s.1-7.027-5.656-9.519-7.749,5.587-7.749,5.587Z" transform="translate(-3294.844 -1716.096)" fill="#77485e"/>
      <path id="Path_4230" data-name="Path 4230" d="M3440.448,1780.948c.162,1.465,2.142,4.082,6.412,4.082,3.795,0,7.6-1.9,7.589-4.082a6.413,6.413,0,0,0-.551-2.43,10.285,10.285,0,0,0-4.183-4.759,6.738,6.738,0,0,0-4.12-.989C3441,1773.246,3440.3,1779.5,3440.448,1780.948Z" transform="translate(-3295.462 -1721.842)" fill="url(#linear-gradient-25)"/>
      <path id="Path_4231" data-name="Path 4231" d="M3556.234,1765.108c-.062,3.256,1.353,5.736,3.833,5.685a2.731,2.731,0,0,0,2.129-.814,4.185,4.185,0,0,0,.789-1.728c.088-.313.175-.651.25-1.014a29.307,29.307,0,0,0-1.077-5.573,11.449,11.449,0,0,0-.614-1.5,2.96,2.96,0,0,0-1.478-1.578C3558.138,1757.882,3556.284,1761.839,3556.234,1765.108Z" transform="translate(-3431.649 -1710.973)" fill="url(#linear-gradient-25)"/>
      <path id="Path_4232" data-name="Path 4232" d="M2738.867,1912.555a125.925,125.925,0,0,1,7.868,12.568c3.509,6.32,3.759,15.812,3.759,15.812a54.371,54.371,0,0,1,7.712-2.848c2.729-.593-6.65-15.068-6.65-15.068l-10.653-11.738Z" transform="translate(-2433.71 -1827.602)" fill="url(#linear-gradient-27)"/>
      <path id="Path_4233" data-name="Path 4233" d="M3442.706,1781.735a4.941,4.941,0,0,0,9.881,0,.435.435,0,0,0-.012-.125,10.28,10.28,0,0,0-4.183-4.759,4.907,4.907,0,0,0-5.686,4.885Z" transform="translate(-3294.138 -1724.933)" fill="url(#radial-gradient)"/>
      <path id="Path_4234" data-name="Path 4234" d="M3449.129,1786.638a3.423,3.423,0,1,0,3.423-3.422A3.423,3.423,0,0,0,3449.129,1786.638Z" transform="translate(-3299.045 -1729.839)" fill="url(#linear-gradient-28)"/>
      <path id="Path_4235" data-name="Path 4235" d="M3556.232,1770.449c0,2.73,1.5,4.934,3.357,4.934a1.988,1.988,0,0,0,.476-.05,4.185,4.185,0,0,0,.789-1.729c.088-.313.175-.651.25-1.014a29.308,29.308,0,0,0-1.077-5.573,11.461,11.461,0,0,0-.614-1.5C3557.635,1765.652,3556.232,1767.806,3556.232,1770.449Z" transform="translate(-3429.518 -1716.326)" fill="url(#radial-gradient-2)"/>
      <path id="Path_4236" data-name="Path 4236" d="M2727.481,1873.405s-3.322,1.186-4.8.831-2.254-3.584-2.254-3.987,4.251-3.233,4.251-3.233l-5.379,2.712-5.279-6.229a33.031,33.031,0,0,1,7.149-6.581s-4.3,2.606-5.607,1.657a4.973,4.973,0,0,1-1.845-3.619c.007-.89,4.4-5.4,4.4-5.4s-6.624,5.42-7.169,6.332,3.133,14.067,3.133,14.067l7.151,6.469S2725.524,1874.413,2727.481,1873.405Z" transform="translate(-2395.866 -1780.479)" fill="url(#linear-gradient-27)"/>
      <path id="Path_4237" data-name="Path 4237" d="M3556.232,1775.3c0,1.891,1.04,3.419,2.329,3.419a1.8,1.8,0,0,0,.9-.263c.088-.313.175-.651.25-1.014a29.308,29.308,0,0,0-1.077-5.573h-.076C3557.271,1771.865,3556.232,1773.405,3556.232,1775.3Z" transform="translate(-3428.127 -1721.174)" fill="url(#linear-gradient-28)"/>
      <path id="Path_4238" data-name="Path 4238" d="M3555.632,1712.381s2.653,14.074,1.189,21.271c0,0,.854-10.822-2.431-18.533Z" transform="translate(-3425.24 -1675.766)" fill="#e87a8d"/>
      <path id="Path_4239" data-name="Path 4239" d="M3564.066,1700.6s-.316-4.746-1.028-8.779l-.475,1.661-1.379-3.469s-3.565,2.164-1.384,6.817C3559.8,1696.826,3562.089,1696.562,3564.066,1700.6Z" transform="translate(-3433.157 -1658.687)" fill="url(#linear-gradient-4)"/>
      <path id="Path_4240" data-name="Path 4240" d="M3516.328,1880.328s-.3,3.215-6.229,5.034-11,.7-12.846-1.356a9.733,9.733,0,0,0,5.391,2.926c3.481.633,8.748-.188,11.232-2.1,2.729-2.1,3.282-3.955,3.282-3.955Z" transform="translate(-3371.617 -1803.972)" fill="#e87a8d"/>
      <path id="Path_4241" data-name="Path 4241" d="M3495.357,1878.934a22.584,22.584,0,0,0-5.458-1.917,13.383,13.383,0,0,1,3.995-.2C3495.159,1877.136,3495.357,1878.934,3495.357,1878.934Z" transform="translate(-3348.075 -1801.216)" fill="#e37e7f"/>
      <g id="Group_497" data-name="Group 497" transform="translate(124.577 61.688)">
        <path id="Path_4242" data-name="Path 4242" d="M3532.227,1845.755s-4.113,0-7.91.237-7.28-.237-8.7-1.266a8.207,8.207,0,0,0,4.51,7.119,6.186,6.186,0,0,0,3.876,0,9.971,9.971,0,0,1,5.22-2.61S3532.385,1848.286,3532.227,1845.755Z" transform="translate(-3515.613 -1838.484)" fill="url(#linear-gradient-32)"/>
        <path id="Path_4243" data-name="Path 4243" d="M3524.734,1818.391c4.9.686,7.515,7.224,7.515,7.224l-9.254,1.581a14.956,14.956,0,0,1-7.358-2.61S3519.831,1817.7,3524.734,1818.391Z" transform="translate(-3515.635 -1818.343)" fill="url(#linear-gradient-33)"/>
        <path id="Path_4244" data-name="Path 4244" d="M3532.02,1862.161s-.464-.43-1.977-.341-2.956,2.541-2.956,2.541A11.385,11.385,0,0,1,3532.02,1862.161Z" transform="translate(-3518.115 -1851.523)" fill="#9f4a8b"/>
      </g>
      <g id="Group_498" data-name="Group 498" transform="translate(297.547 59.056)">
        <path id="Path_4245" data-name="Path 4245" d="M2704.514,1808.359l15.392,28.624s3.974,16.581,11.333,23.106c0,0,.853,3.178-1.281,7.962l-32.391-60.235S2701.432,1806.166,2704.514,1808.359Z" transform="translate(-2694.188 -1807.22)" fill="url(#linear-gradient-34)"/>
        <path id="Path_4246" data-name="Path 4246" d="M2703.7,1815.83l15.393,28.624s11.641,12.458,13.027,22.195c0,0,2.18,2.464,7.348,3.322l-32.391-60.236S2703.566,1812.05,2703.7,1815.83Z" transform="translate(-2703.692 -1809.141)" fill="url(#linear-gradient-35)"/>
        <path id="Path_4247" data-name="Path 4247" d="M2701.11,2057.783l-2.227,1.2s1.892,2.39,2.535,2.045S2701.11,2057.783,2701.11,2057.783Z" transform="translate(-2664.733 -1998.493)" fill="url(#linear-gradient-36)"/>
        <path id="Path_4248" data-name="Path 4248" d="M2719.936,1956.107l-8.629,4.64s-1-8.34-13.028-22.195L2708.6,1933S2710.99,1945.836,2719.936,1956.107Z" transform="translate(-2682.885 -1903.238)" fill="url(#linear-gradient-37)"/>
      </g>
      <path id="Path_4249" data-name="Path 4249" d="M2754.886,1807.831s5.06-6.271,9.489-13.232,12.418-18.192,15.147-17.005.356,8.3-2.135,12.813-5.7,6.17-7.119,8.542-5.576,11.484-5.576,11.484S2758.25,1811.967,2754.886,1807.831Z" transform="translate(-2459.533 -1725.481)" fill="url(#linear-gradient-9)"/>
      <path id="Path_4250" data-name="Path 4250" d="M3860.361,2624.2s2.011,9.6,1.141,10.192-5.5-10.531-5.5-10.531Z" transform="translate(-3801.068 -2371.565)" fill="url(#linear-gradient-4)"/>
      <g id="Group_499" data-name="Group 499" transform="translate(4.225 262.808)">
        <path id="Path_4251" data-name="Path 4251" d="M3820.158,2865.014l.622-.063c-.033-.329-3.784-33.091-43.652-44.969-21.812-6.5-36.315-21.614-39.791-41.472a53.818,53.818,0,0,1,21.108-52.091c31.8-23.48,34-57.748,34.021-58.091l-.625-.034c-.019.342-2.218,34.324-33.768,57.622a54.449,54.449,0,0,0-21.352,52.7c3.518,20.1,18.18,35.4,40.228,41.964C3816.42,2832.342,3820.125,2864.689,3820.158,2865.014Z" transform="translate(-3735.944 -2668.293)" fill="url(#linear-gradient-4)"/>
      </g>
      <path id="Path_4252" data-name="Path 4252" d="M3312.483,1857.66s7.837-7.81,12.523-3.391c5.56,5.243,1.629,16.793-4.522,21.782-5.344,4.334-11.1,3.184-12.285-1.978C3308.2,1874.073,3306.568,1862.42,3312.483,1857.66Z" transform="translate(-3137.346 -1783.046)" fill="url(#linear-gradient-41)"/>
      <path id="Path_4253" data-name="Path 4253" d="M3324.605,1890.335s4.615-5.411,8.422-4.02,2.714,7.459,2.714,7.459-.045-4.439-2.515-5.1-3.986,2.529-3.986,2.529,1.322.11,1.277,3.851-4.416,7.221-6.148,4.58S3324.605,1890.335,3324.605,1890.335Z" transform="translate(-3149.267 -1808.369)" fill="#e87a8d"/>
      <path id="Path_4254" data-name="Path 4254" d="M3480.539,1796.254a.83.83,0,1,0,.83-.831A.83.83,0,0,0,3480.539,1796.254Z" transform="translate(-3332.703 -1739.158)" fill="#fff"/>
      <path id="Path_4255" data-name="Path 4255" d="M3574.3,1784.052a.837.837,0,1,0,.837-.837A.837.837,0,0,0,3574.3,1784.052Z" transform="translate(-3448.665 -1729.839)" fill="#fff"/>
      <path id="Path_4256" data-name="Path 4256" d="M3440.212,1970.674s-12.33,23.946-33.8,21.81c0,0,1.917-8.4,1.706-14.388,0,0,10-.265,17.411-3.334,8.348-3.459,14.673-12.322,14.673-12.322Z" transform="translate(-3273.176 -1866.655)" fill="url(#linear-gradient-27)"/>
      <path id="Path_4257" data-name="Path 4257" d="M2793.36,1969.544c5.823,1.664,16.642-3.456,17.59-8.384s-6.361-18.271-12.886-17.441-9.661,5.641-8.3,9.967C2791.313,1958.646,2790.038,1968.595,2793.36,1969.544Z" transform="translate(-2498.007 -1852.335)" fill="url(#linear-gradient-43)"/>
      <path id="Path_4258" data-name="Path 4258" d="M2872.407,1945.973s6.486,10.8,5.893,19.695c0,0,1.7-12.887-4.348-21.986Z" transform="translate(-2585.125 -1852.335)" fill="url(#linear-gradient-27)"/>
      <path id="Path_4259" data-name="Path 4259" d="M2887.9,2093.213s-6.051-1.187-8.543-2.966l7.13,10.811S2887.435,2096.742,2887.9,2093.213Z" transform="translate(-2596.15 -1964.219)" fill="url(#linear-gradient-45)"/>
      <path id="Path_4260" data-name="Path 4260" d="M3071.02,2267.9s-4.227,4.995-7.04,24.6,4.92,31.3,4.92,31.3-7.839-1.482-10.176-24.42,7.313-33.141,7.313-33.141Z" transform="translate(-2821.625 -2098.568)" fill="url(#linear-gradient-45)"/>
      <path id="Path_4261" data-name="Path 4261" d="M3246.336,2245.583s2.855,7.364,32.511,9.969a385.627,385.627,0,0,1,52.674,8.3s1.791-5.923-1.478-10.431c0,0,5.047-4.509,4.809-6.175s-11.159-20.638-8.316-33.926,13.525-24.07,19.461-50.007c0,0,3.957-1.327,4.2-3.231s-1.74-4.985-1.74-4.985l-.715,1.353s-13.525-7.752-9.881-40.5,7.477-34.74,14.252-33.826c0,0-5.4-5-6.663-4.884,0,0-8.04,6.042-13.585,38.512-4.645,27.2-12.372,44.175-12.372,44.175a96.094,96.094,0,0,1-33.048,5.1c-17.812-.593-16-2.841-31.639-1.714,0,0,33.776,3.607,46.588,5.924a135.372,135.372,0,0,1,24.509,7.177s-10.852,25.279-9.079,42.121a83.409,83.409,0,0,0,5.69,22.135s-2.234.877-24.013-.062-50.019-12.586-50.019-12.586a.217.217,0,0,1-.013.063,14.519,14.519,0,0,0,.25,6.349s21.754,4.747,41.842,8.541,31.947,9.969,31.947,9.969-4.1,2.3-35.4-1.109-40.345-5.478-41.936-11.84l-.012.025A13.508,13.508,0,0,0,3246.336,2245.583Z" transform="translate(-3146.911 -1954.29)" opacity="0.62" fill="url(#linear-gradient-5)" style="mix-blend-mode: multiply;isolation: isolate"/>
      <path id="Path_4262" data-name="Path 4262" d="M3381.185,2449.978s-3.714-4.951-12.285-6.348-22.168,1.915-30.531,1.9c0,0,23.385,4.429,32.258,5.695S3381.185,2449.978,3381.185,2449.978Z" transform="translate(-3198.048 -2233.721)" opacity="0.62" fill="url(#linear-gradient-5)" style="mix-blend-mode: multiply;isolation: isolate"/>
      <path id="Path_4263" data-name="Path 4263" d="M3657.21,2095.452s-8.544,14.955-10.125,46.91c0,0-1.418-25.264,7.279-49.175A6.123,6.123,0,0,1,3657.21,2095.452Z" transform="translate(-3547.103 -1966.464)" opacity="0.62" fill="url(#linear-gradient-5)" style="mix-blend-mode: multiply;isolation: isolate"/>
      <path id="Path_4264" data-name="Path 4264" d="M3545.25,2159.6s2.6,18.77,22.891,45.641c0,0-13.281-10.765-17.943-21.2C3545.25,2172.969,3545.25,2159.6,3545.25,2159.6Z" transform="translate(-3433.958 -2017.161)" opacity="0.62" fill="url(#linear-gradient-5)" style="mix-blend-mode: multiply;isolation: isolate"/>
      <path id="Path_4265" data-name="Path 4265" d="M3477.459,2668.461a29.288,29.288,0,0,1-18.719,11.921c-12.814,2.373-29.9-2.057-29.9-2.057s16.452,2.848,28.791-1.266A109.6,109.6,0,0,0,3477.459,2668.461Z" transform="translate(-3315.73 -2405.614)" opacity="0.62" fill="url(#linear-gradient-5)" style="mix-blend-mode: multiply;isolation: isolate"/>
      <path id="Path_4266" data-name="Path 4266" d="M3264.207,2320.492s-9.6-3.965-13.3-11.156c0,0,.569,17.813,10.3,24.294A71.361,71.361,0,0,0,3264.207,2320.492Z" transform="translate(-3060.373 -2131.466)" opacity="0.5" fill="url(#linear-gradient-52)" style="mix-blend-mode: multiply;isolation: isolate"/>
      <path id="Path_4267" data-name="Path 4267" d="M3556.133,2927.542l-5.062-18.509s-8.794-12.736-23.064-18.549l14.063,21.554Z" transform="translate(-3417.868 -2575.1)" opacity="0.62" fill="url(#linear-gradient-5)" style="mix-blend-mode: multiply;isolation: isolate"/>
      <path id="Path_4268" data-name="Path 4268" d="M3174.689,3060.5a26.047,26.047,0,0,0,6.4,4.508c2.379,4.508,7.364,22.981,7.364,22.981h38.2c-2.129-9.768-11.86-24.4-14.953-29.856s-14.7-42.718-17.8-67.39c-1.29-10.281-2.28-21.139-3.006-30.319-.037.7-1.3,7.871,2.39,42.711,3.795,35.755,6.39,51.2,6.076,54.359S3183.543,3068.249,3174.689,3060.5Z" transform="translate(-3004.781 -2628.489)" opacity="0.62" fill="url(#linear-gradient-5)" style="mix-blend-mode: multiply;isolation: isolate"/>
      <path id="Path_4269" data-name="Path 4269" d="M3528.287,3122.879c1.015,3.495,2.292,6.112,2.993,9.117,1.1,4.747,2.367,23.219,2.367,23.219h33.225c-1.265-6.838-2.843-12.135-4.747-29.23-1.816-16.343,7.952-72.675,8.792-77.5-1.1,5.184-13.378,63.6-16.148,68.562C3548.758,3127.809,3532.432,3131.446,3528.287,3122.879Z" transform="translate(-3432.719 -2695.718)" opacity="0.62" fill="url(#linear-gradient-5)" style="mix-blend-mode: multiply;isolation: isolate"/>
      <path id="Path_4270" data-name="Path 4270" d="M3315.194,3374.419a18.187,18.187,0,0,1-15.346,13.22l-2.522-6.6s-4.816-2.931-5.608-3.72c0,0,3.55,2.7,11.739,1.429S3315.194,3374.419,3315.194,3374.419Z" transform="translate(-3121.018 -2944.524)" opacity="0.62" fill="url(#linear-gradient-5)" style="mix-blend-mode: multiply;isolation: isolate"/>
      <path id="Path_4271" data-name="Path 4271" d="M3643.207,3364.56s-5.759,6.472-17.23,7.425c0,0-2.145-5.6-2.993-9.117,0,0,4.793,4.559,10.112,4.559A20.86,20.86,0,0,0,3643.207,3364.56Z" transform="translate(-3527.416 -2935.707)" opacity="0.62" fill="url(#linear-gradient-5)" style="mix-blend-mode: multiply;isolation: isolate"/>
      <path id="Path_4272" data-name="Path 4272" d="M3659.013,2246.229c47.94-6.174,67.427-3.318,67.427-3.318,17.15,29.363,37.934,86.525,37.934,86.525l1.9-3.068c-12.336-37.321-38.924-85.987-38.924-85.987-32.586-1.741-67.076,3.469-67.076,3.469Z" transform="translate(-3659.013 -2078.556)" fill="url(#linear-gradient-58)"/>
      <path id="Path_4273" data-name="Path 4273" d="M3994.453,2445.073a74.415,74.415,0,0,0,11,.4s-6.528,1.19-11.807.081Z" transform="translate(-3977.365 -2235.085)" fill="url(#linear-gradient-59)"/>
      <path id="Path_4274" data-name="Path 4274" d="M3355.584,2113.343a2.6,2.6,0,0,1-.1.288C3355.534,2113.493,3355.572,2113.393,3355.584,2113.343Z" transform="translate(-3176.497 -1981.85)" opacity="0.83" fill="url(#linear-gradient-60)" style="mix-blend-mode: multiply;isolation: isolate"/>
      <path id="Path_4275" data-name="Path 4275" d="M3444.261,2708.012s-11.575.375-35.4-3.864c-25.343-4.508-34.359-14.708-34.359-14.708s-3.64,2.369-4.27,5.924c0,0,21.5,9.073,38.629,11.3S3440.789,2709.052,3444.261,2708.012Z" transform="translate(-3268.663 -2421.629)" fill="url(#linear-gradient-61)" style="mix-blend-mode: soft-light;isolation: isolate"/>
      <path id="Path_4276" data-name="Path 4276" d="M3527.04,2773.026s-14.352-2.309-30.368-6.224-21.836-8.187-21.836-8.187-2.638,5.151,7.878,8.122S3527.04,2773.026,3527.04,2773.026Z" transform="translate(-3376.125 -2474.435)" fill="url(#linear-gradient-61)" style="mix-blend-mode: soft-light;isolation: isolate"/>
      <path id="Path_4277" data-name="Path 4277" d="M3710.647,2406.69l-51.635,42.5,2.417,5.054s32.586,6.717,68.654,1.1l1.9-3.069s-11.647-31.151-19.464-47.313Z" transform="translate(-3624.723 -2204.467)" opacity="0.5" fill="url(#linear-gradient-61)" style="mix-blend-mode: soft-light;isolation: isolate"/>
      <path id="Path_4278" data-name="Path 4278" d="M3329.7,3015a183.3,183.3,0,0,1-2.389,53.153Z" transform="translate(-3144.871 -2670.154)" opacity="0.62" fill="url(#linear-gradient-5)" style="mix-blend-mode: multiply;isolation: isolate"/>
      <path id="Path_4279" data-name="Path 4279" d="M3544.2,2992.944s-8.791,34.8-15.909,49.593c0,0,14.011-19.22,19.1-32.2l3.3-15.484-4.014-16.625Z" transform="translate(-3412.496 -2642.085)" opacity="0.62" fill="url(#linear-gradient-5)" style="mix-blend-mode: multiply;isolation: isolate"/>
      <path id="Path_4280" data-name="Path 4280" d="M3541.614,2089.546l1.657-.135s-3.424,5.478-4.136,9.986,2.277,7.41,6.913,8.4c0,0-7.466-.433-8.415-5.574S3541.614,2089.546,3541.614,2089.546Z" transform="translate(-3410.033 -1963.581)" fill="url(#linear-gradient-66)"/>
      <path id="Path_4281" data-name="Path 4281" d="M3310.478,1674.7s7.957,4.583,8.194,10.635-4.878,9.95-4.878,9.95l-.7-3.268a16.957,16.957,0,0,1-7.593-.709,17.885,17.885,0,0,1-5.373-2.856s4.674-2.749,4.787-7.324-7.979-12.824-7.979-12.824l7.25.849A77.533,77.533,0,0,1,3310.478,1674.7Z" transform="translate(-3125.74 -1642.116)" fill="url(#linear-gradient-67)"/>
      <path id="Path_4282" data-name="Path 4282" d="M3499.071,1600.655s-7.288-7.907-8.757-13.444,4.378-8.226,4.378-8.226-2.066,2.3-1.663,7.593S3499.071,1600.655,3499.071,1600.655Z" transform="translate(-3351.831 -1573.934)" opacity="0.84" fill="url(#linear-gradient-5)" style="mix-blend-mode: multiply;isolation: isolate"/>
      <path id="Path_4283" data-name="Path 4283" d="M3417.131,1621.561s-7.41-13.007-14.371-13.165-8.986,12.66-8.281,14.71c0,0,.2-5.073,8.844-5.325S3417.131,1621.561,3417.131,1621.561Z" transform="translate(-3247.24 -1596.385)" opacity="0.84" fill="url(#linear-gradient-5)" style="mix-blend-mode: multiply;isolation: isolate"/>
      <path id="Path_4284" data-name="Path 4284" d="M3562.427,1632.07s-3.812-4.877-4.508-6.65a56.232,56.232,0,0,0-1.134,7.366s-.55,1.43,4.186,2.137Z" transform="translate(-3430.967 -1609.382)" opacity="0.84" fill="url(#linear-gradient-5)" style="mix-blend-mode: multiply;isolation: isolate"/>
      <path id="Path_4285" data-name="Path 4285" d="M3392.811,1779.84l-12.707-10.582s-.478,10.049-9.261,11.828-15.324-1.092-17.725-6.636-2.843-13.248-2.843-13.248-.583-.9-3.392-.867a6.2,6.2,0,0,0-4,1.128v-4.776s5.82-.9,8.342,1.151c0,0-.865,15.4,4.625,19.215s10.148,4.3,16.03,1.323c4.548-2.305,6.45-9.644,5.044-13.887l4.264.858,12.178,14.306Z" transform="translate(-3211.295 -1709.437)" opacity="0.62" fill="url(#linear-gradient-71)" style="mix-blend-mode: multiply;isolation: isolate"/>
      <g id="Group_500" data-name="Group 500" transform="translate(118.657 44.236)">
        <path id="Path_4286" data-name="Path 4286" d="M3411,1753.6c2.4-3.194,19.111-.177,23.8,5.011s-1.321,15.454-8.756,16.921c-8.7,1.715-12.774-1.1-15.186-4.768C3408.315,1766.89,3408.828,1756.494,3411,1753.6Zm.111,15.375c1.953,5.4,9.15,7.225,15.2,5.616,3.734-.992,10.1-6.785,8.677-13.31s-20.748-9.34-23.1-6.854C3409.991,1756.438,3409.161,1763.574,3411.115,1768.978Z" transform="translate(-3388.726 -1750.469)" fill="url(#linear-gradient-72)"/>
        <path id="Path_4287" data-name="Path 4287" d="M3412.907,1753.385c2.4-3.194,19.112-.177,23.8,5.011s-1.321,15.453-8.756,16.92c-8.694,1.715-12.774-1.1-15.185-4.768C3410.219,1766.672,3410.732,1756.275,3412.907,1753.385Zm.111,15.374c1.954,5.4,9.15,7.225,15.205,5.616,3.733-.992,10.1-6.785,8.676-13.31s-20.748-9.34-23.1-6.853C3411.895,1756.22,3411.064,1763.356,3413.018,1768.759Z" transform="translate(-3391.08 -1750.302)" fill="url(#linear-gradient-73)"/>
        <path id="Path_4288" data-name="Path 4288" d="M3555,1746.029c1.425-2.346,9.553-1.451,11.579,0,1.315.941.6,12.325-3,17.112a4.948,4.948,0,0,1-6.479,1.622C3554.41,1762.864,3553.58,1748.374,3555,1746.029Zm1.148,15.53c1.114,3.088,3.875,3.8,6.584,1.3,2.436-2.256,4.585-13.3,3.006-15.695-1.318-2-7.954-2.6-9.852-.511S3554.856,1757.972,3556.151,1761.559Z" transform="translate(-3553.812 -1744.586)" fill="url(#linear-gradient-74)"/>
        <path id="Path_4289" data-name="Path 4289" d="M3557.134,1746.029c1.424-2.346,9.552-1.451,11.578,0,1.314.941.6,12.325-3,17.112a4.947,4.947,0,0,1-6.478,1.622C3556.541,1762.864,3555.71,1748.374,3557.134,1746.029Zm1.147,15.53c1.114,3.088,3.875,3.8,6.584,1.3,2.436-2.256,4.586-13.3,3.006-15.695-1.319-2-7.954-2.6-9.853-.511S3556.986,1757.972,3558.281,1761.559Z" transform="translate(-3556.446 -1744.586)" fill="url(#linear-gradient-75)"/>
        <path id="Path_4290" data-name="Path 4290" d="M3525.925,1755.641a8.579,8.579,0,0,0-8.156-.774,4.1,4.1,0,0,0-.2-1.652s3.211-.954,9.415.547A15.543,15.543,0,0,0,3525.925,1755.641Z" transform="translate(-3504.908 -1750.945)" fill="url(#linear-gradient-76)"/>
        <path id="Path_4291" data-name="Path 4291" d="M3335.621,1784.476l4.264,1.376,13.9,14.836a3.221,3.221,0,0,0-1.719.328l-12.45-13.172a6.631,6.631,0,0,0-3.5-.778A5.731,5.731,0,0,0,3335.621,1784.476Z" transform="translate(-3288.65 -1775.037)" fill="url(#linear-gradient-77)"/>
        <path id="Path_4292" data-name="Path 4292" d="M3375.471,1797.68l-.126,2.131,2.849,3.015.135-2.094Z" transform="translate(-3322.599 -1785.116)" fill="url(#linear-gradient-58)"/>
        <path id="Path_4293" data-name="Path 4293" d="M3530.248,1753.426l-.73.763a23.5,23.5,0,0,0-4.212-.5,7.133,7.133,0,0,0-2.571.231l-.542-.859A19.086,19.086,0,0,1,3530.248,1753.426Z" transform="translate(-3509.265 -1750.855)" fill="#d7e2ff" style="mix-blend-mode: soft-light;isolation: isolate"/>
        <path id="Path_4294" data-name="Path 4294" d="M3572.275,1745.448l-.444.588s-2.892-1.707-7.608-.588l.123-.667A17.423,17.423,0,0,1,3572.275,1745.448Z" transform="translate(-3561.238 -1744.593)" fill="#d7e2ff" style="mix-blend-mode: soft-light;isolation: isolate"/>
        <path id="Path_4295" data-name="Path 4295" d="M3496.415,1753.251l-.225-.667s-5.33-.558-6.777.922-1.854,4.635-1.854,4.635l.66.091s.507-3.344,2.117-4.327C3491.987,1752.9,3496.415,1753.251,3496.415,1753.251Z" transform="translate(-3467.237 -1750.613)" fill="#d7e2ff" style="mix-blend-mode: soft-light;isolation: isolate"/>
        <path id="Path_4296" data-name="Path 4296" d="M3456.409,1830.319s-2.8,3.5-9.208,2.964a11.97,11.97,0,0,1-9.143-5.244,11.894,11.894,0,0,0,9.288,4.943C3453.611,1833.179,3456.409,1830.319,3456.409,1830.319Z" transform="translate(-3415.518 -1808.292)" fill="#d7d9ff" style="mix-blend-mode: soft-light;isolation: isolate"/>
        <path id="Path_4297" data-name="Path 4297" d="M3581.681,1819.16s-1.74,1.947-3.7,1.68-2.69-2.5-2.69-2.5,1.118,2.275,3.194,2.156A4.91,4.91,0,0,0,3581.681,1819.16Z" transform="translate(-3573.263 -1800.89)" fill="#d7d9ff" style="mix-blend-mode: soft-light;isolation: isolate"/>
        <path id="Path_4298" data-name="Path 4298" d="M3471.571,1847.8a3.5,3.5,0,0,1-1.882.409,7.08,7.08,0,0,1-2.84-.689A23.382,23.382,0,0,0,3471.571,1847.8Z" transform="translate(-3437.492 -1823.164)" fill="#d7d9ff"/>
        <path id="Path_4299" data-name="Path 4299" d="M3585.8,1823.277a4.252,4.252,0,0,1-2.769,0,3.4,3.4,0,0,1-1.5-1,1.7,1.7,0,0,0,1.56,1.591A4.493,4.493,0,0,0,3585.8,1823.277Z" transform="translate(-3578.856 -1803.89)" fill="#d7d9ff"/>
        <path id="Path_4300" data-name="Path 4300" d="M3463.7,1810.544s.239-5.133-5.847-8.719a12.457,12.457,0,0,0-11.695-.535,10.614,10.614,0,0,0,3.082,7.538C3452.514,1811.9,3459.652,1812.069,3463.7,1810.544Z" transform="translate(-3424.725 -1786.948)" fill="#d7d9ff" style="mix-blend-mode: soft-light;isolation: isolate"/>
        <path id="Path_4301" data-name="Path 4301" d="M3578.662,1791.341s-4.1-5.224-8.707-6.865c0,0,.1,7.071,1.7,8.943S3576.3,1795.907,3578.662,1791.341Z" transform="translate(-3568.981 -1775.037)" fill="#d7d9ff" style="mix-blend-mode: soft-light;isolation: isolate"/>
        <path id="Path_4302" data-name="Path 4302" d="M3423.389,1781.072s-.653,4.155-3.026,6.393l-2.391-.571s1.858-7.184,1.9-10.763C3419.869,1776.131,3422.915,1777.951,3423.389,1781.072Z" transform="translate(-3377.745 -1768.667)" fill="url(#linear-gradient-79)" style="mix-blend-mode: screen;isolation: isolate"/>
      </g>
      <path id="Path_4303" data-name="Path 4303" d="M3395.023,1960.719a4.737,4.737,0,0,0,1.44,1.215c7.125,3.644,26.1,2.693,36.38-6.324a43.442,43.442,0,0,0,9.167-11.735,38.649,38.649,0,0,1-18.187,14.585C3410.825,1963.631,3395.937,1962.021,3395.023,1960.719Z" transform="translate(-3272.28 -1852.482)" fill="url(#linear-gradient-9)"/>
    </g>
    <g id="Group_502" data-name="Group 502" transform="translate(23.206 59.917)">
      <path id="Path_4304" data-name="Path 4304" d="M4519.612,2633.967V2665.4l-37.594.321-.507-32.759Z" transform="translate(-4479.057 -2632.958)" fill="url(#linear-gradient-81)"/>
      <path id="Path_4305" data-name="Path 4305" d="M4642.835,2632.958l-2.453,4.129,1.227,28.6,1.734.03Z" transform="translate(-4640.382 -2632.958)" fill="url(#linear-gradient-82)"/>
      <path id="Path_4306" data-name="Path 4306" d="M4532.125,2665.791l-3.473-5.039-18.771,15.756,2.88,3.84Z" transform="translate(-4498.283 -2654.175)" fill="#fff"/>
      <path id="Path_4307" data-name="Path 4307" d="M4511.919,2665.791l3.472-5.039,18.772,15.756-2.88,3.84Z" transform="translate(-4500.804 -2654.175)" fill="#fff"/>
    </g>
    <g id="Group_504" data-name="Group 504" transform="translate(295.777 214.558)">
      <path id="Path_4308" data-name="Path 4308" d="M2703.964,2459.115a18.3,18.3,0,0,1,9.913-4.28l1.46,1.36-6.145,5.774a7.916,7.916,0,0,0,1.017,4.95l.009-.009a7.916,7.916,0,0,0,5.01.661l5.323-6.539,1.46,1.359a18.29,18.29,0,0,1-3.565,10.191s-1.281,1.456-1.455,1.563c-.939.575-3.013.918-6.378-.406l-19.168,18.78a6.515,6.515,0,1,1-5.44-5.066l17.363-20.443c-1.526-3.194-1.393-5.279-.857-6.334C2702.622,2460.455,2703.964,2459.115,2703.964,2459.115Zm-22.362,35.846,2.665,2.482,3.482-1.066.816-3.549-2.666-2.482-3.482,1.066Z" transform="translate(-2677.112 -2454.835)" fill="url(#linear-gradient-83)"/>
      <path id="Path_4309" data-name="Path 4309" d="M2710.115,2465.719a18.3,18.3,0,0,1,9.912-4.28l1.46,1.359-6.145,5.773a7.915,7.915,0,0,0,1.016,4.951l.009-.01a7.919,7.919,0,0,0,5.01.662l5.323-6.539,1.46,1.359a18.3,18.3,0,0,1-3.565,10.191s-3.843,2.726-7.833,1.157l-19.168,18.78a6.516,6.516,0,1,1-5.44-5.065l17.363-20.444C2707.668,2469.746,2710.115,2465.719,2710.115,2465.719Zm-22.362,35.846,2.665,2.483,3.482-1.066.816-3.549-2.666-2.483-3.482,1.066Z" transform="translate(-2684.718 -2459.877)" fill="url(#linear-gradient-84)"/>
      <rect id="Rectangle_735" data-name="Rectangle 735" width="1.995" height="2.135" transform="translate(43.442 9.119) rotate(-137.036)" fill="#e5e2ff"/>
      <rect id="Rectangle_736" data-name="Rectangle 736" width="1.995" height="2.135" transform="matrix(-0.732, -0.682, 0.682, -0.732, 36.769, 2.922)" fill="#e5e2ff"/>
      <rect id="Rectangle_737" data-name="Rectangle 737" width="3.643" height="2.135" transform="matrix(-0.732, -0.682, 0.682, -0.732, 5.701, 44.171)" fill="#e5e2ff"/>
      <g id="Group_503" data-name="Group 503" transform="translate(10.158 16.864)">
        <path id="Path_4310" data-name="Path 4310" d="M2764.718,2530.565l-15.524,15.3a4.923,4.923,0,0,1-3.28-3.055l14.013-16.71A7.725,7.725,0,0,1,2764.718,2530.565ZM2746.6,2543.2a5.749,5.749,0,0,0,.977,1.212,4.876,4.876,0,0,0,1.194.821l15.416-14.919a10.383,10.383,0,0,0-1.815-2.259,8.48,8.48,0,0,0-2.144-1.466Z" transform="translate(-2745.913 -2526.102)" fill="url(#linear-gradient-85)"/>
        <path id="Path_4311" data-name="Path 4311" d="M2812.21,2597.11l-.69-.389a4.354,4.354,0,0,0,3.28,3.056l-.419-.633A5.484,5.484,0,0,1,2812.21,2597.11Z" transform="translate(-2811.519 -2580.011)" fill="#e5e2ff"/>
        <path id="Path_4312" data-name="Path 4312" d="M2750.705,2530.565l-.528-.25a9.378,9.378,0,0,0-3.959-3.724l-.3-.489a7.55,7.55,0,0,1,4.792,4.463Z" transform="translate(-2731.901 -2526.102)" opacity="0.62" fill="url(#linear-gradient-86)" style="mix-blend-mode: multiply;isolation: isolate"/>
      </g>
      <path id="Path_4313" data-name="Path 4313" d="M2742.355,2519.625a22.218,22.218,0,0,1-7.245-6.728l-2.22,2.614s1.864-.941,4.554,1.325c3.146,2.648,2.006,5.5,2.006,5.5Z" transform="translate(-2710.312 -2499.158)" opacity="0.62" fill="url(#linear-gradient-87)" style="mix-blend-mode: multiply;isolation: isolate"/>
      <path id="Path_4314" data-name="Path 4314" d="M2779.133,2523.408a3.917,3.917,0,0,1,2.106-.042l-16.5,19.385-.744-1.516Z" transform="translate(-2756.554 -2507.055)" opacity="0.5" fill="url(#linear-gradient-88)" style="mix-blend-mode: screen;isolation: isolate"/>
      <path id="Path_4315" data-name="Path 4315" d="M2776.136,2523.945a3.878,3.878,0,0,1-3.245,3.821Z" transform="translate(-2753.558 -2507.592)" fill="#fff"/>
    </g>
    <g id="Group_506" data-name="Group 506" transform="translate(130.199 257.916)">
      <path id="Path_4316" data-name="Path 4316" d="M3129.8,2715.44h79.475a11.863,11.863,0,0,0,11.855-11.462l1.764-52.272a11.861,11.861,0,0,0-11.854-12.262H3128.2a11.861,11.861,0,0,0-11.856,12.224l1.6,52.272A11.862,11.862,0,0,0,3129.8,2715.44Z" transform="translate(-3116.015 -2639.119)" opacity="0.73" fill="url(#linear-gradient-89)"/>
      <g id="Group_505" data-name="Group 505" transform="translate(0)">
        <path id="Path_4317" data-name="Path 4317" d="M3128.752,2714.716h79.475a12.139,12.139,0,0,0,12.18-11.776l1.765-52.272a12.187,12.187,0,0,0-12.18-12.6h-82.838a12.189,12.189,0,0,0-12.182,12.56l1.6,52.272A12.131,12.131,0,0,0,3128.752,2714.716Zm81.24-76a11.536,11.536,0,0,1,11.529,11.925l-1.765,52.272a11.488,11.488,0,0,1-11.529,11.147h-79.475a11.484,11.484,0,0,1-11.532-11.184l-1.6-52.272a11.538,11.538,0,0,1,11.532-11.888Z" transform="translate(-3114.966 -2638.069)" fill="#953da2"/>
      </g>
      <rect id="Rectangle_738" data-name="Rectangle 738" width="72.789" height="43.23" transform="translate(18.167 8.741)" fill="#d1d4fb" style="mix-blend-mode: multiply;isolation: isolate"/>
      <path id="Path_4318" data-name="Path 4318" d="M3328.844,2720.341v21.776l-18.6-11.885Z" transform="translate(-3267.838 -2700.874)" fill="#fff"/>
      <rect id="Rectangle_739" data-name="Rectangle 739" width="72.789" height="3.953" transform="translate(18.167 59.938)" fill="#d1d4fb" style="mix-blend-mode: multiply;isolation: isolate"/>
      <rect id="Rectangle_740" data-name="Rectangle 740" width="18.844" height="3.953" transform="translate(72.112 59.938)" fill="#fff"/>
    </g>
  </g>
</svg>
