<svg xmlns="http://www.w3.org/2000/svg" xmlns:xlink="http://www.w3.org/1999/xlink" width="72" height="72" viewBox="0 0 72 72">
  <defs>
    <radialGradient id="radial-gradient" cx="0.43" cy="0.302" r="0.682" gradientUnits="objectBoundingBox">
      <stop offset="0" stop-color="#fccd10"/>
      <stop offset="0.221" stop-color="#ecab08"/>
      <stop offset="0.449" stop-color="#df8d02"/>
      <stop offset="0.58" stop-color="#db8300"/>
      <stop offset="0.707" stop-color="#d57c00"/>
      <stop offset="0.878" stop-color="#c76b00"/>
      <stop offset="1" stop-color="#ba5b00"/>
    </radialGradient>
    <radialGradient id="radial-gradient-2" cx="0.402" cy="-0.01" r="1.087" gradientUnits="objectBoundingBox">
      <stop offset="0" stop-color="#ffe58a"/>
      <stop offset="1"/>
    </radialGradient>
    <radialGradient id="radial-gradient-3" cx="0.285" cy="-0.633" r="1.824" xlink:href="#radial-gradient-2"/>
    <radialGradient id="radial-gradient-4" cx="0.541" cy="0.261" r="1.166" xlink:href="#radial-gradient-2"/>
    <linearGradient id="linear-gradient" x1="0.026" y1="0.129" x2="0.974" y2="0.871" gradientUnits="objectBoundingBox">
      <stop offset="0.052" stop-color="#ed9500"/>
      <stop offset="0.403" stop-color="#fc0"/>
      <stop offset="0.926" stop-color="#b36600"/>
    </linearGradient>
    <radialGradient id="radial-gradient-5" cx="0.873" cy="0.966" r="3.684" gradientUnits="objectBoundingBox">
      <stop offset="0" stop-color="#e38812"/>
      <stop offset="0.109" stop-color="#e6952c"/>
      <stop offset="0.73" stop-color="#f7e0c2"/>
      <stop offset="1" stop-color="#fff"/>
    </radialGradient>
    <radialGradient id="radial-gradient-6" cx="0.198" cy="-0.042" r="1.774" gradientUnits="objectBoundingBox">
      <stop offset="0" stop-color="#fff0b0"/>
      <stop offset="1"/>
    </radialGradient>
    <linearGradient id="linear-gradient-2" x1="0.195" y1="0.348" x2="0.794" y2="0.671" gradientUnits="objectBoundingBox">
      <stop offset="0" stop-color="#9c0e0e"/>
      <stop offset="0.69" stop-color="#fc3f00"/>
      <stop offset="1" stop-color="#c4020b"/>
    </linearGradient>
    <linearGradient id="linear-gradient-3" x1="0.185" y1="0.356" x2="0.702" y2="0.591" gradientUnits="objectBoundingBox">
      <stop offset="0"/>
      <stop offset="0.131" stop-color="#3e1010"/>
      <stop offset="0.315" stop-color="#8f2626"/>
      <stop offset="0.466" stop-color="#cb3737"/>
      <stop offset="0.577" stop-color="#f04141"/>
      <stop offset="0.636" stop-color="#ff4545"/>
      <stop offset="0.684" stop-color="#f23f3f"/>
      <stop offset="0.774" stop-color="#cf3232"/>
      <stop offset="0.894" stop-color="#981d1d"/>
      <stop offset="1" stop-color="#630808"/>
    </linearGradient>
    <linearGradient id="linear-gradient-4" x1="0.312" y1="0.426" x2="0.706" y2="0.588" gradientUnits="objectBoundingBox">
      <stop offset="0" stop-color="#800c0c"/>
      <stop offset="1" stop-color="#ffe4bf"/>
    </linearGradient>
    <linearGradient id="linear-gradient-5" x1="0.176" y1="0.331" x2="0.81" y2="0.691" gradientUnits="objectBoundingBox">
      <stop offset="0.074" stop-color="#b36600"/>
      <stop offset="0.597" stop-color="#fc0"/>
      <stop offset="0.948" stop-color="#ed9500"/>
    </linearGradient>
    <linearGradient id="linear-gradient-6" x1="0.299" y1="0.419" x2="0.69" y2="0.584" gradientUnits="objectBoundingBox">
      <stop offset="0.574" stop-color="#ffa163"/>
      <stop offset="1" stop-color="#ffe4bf"/>
    </linearGradient>
    <linearGradient id="linear-gradient-7" x1="0.422" y1="0.467" x2="0.609" y2="0.546" gradientUnits="objectBoundingBox">
      <stop offset="0" stop-color="#960007"/>
      <stop offset="1" stop-color="#610000"/>
    </linearGradient>
    <linearGradient id="linear-gradient-8" x1="0.235" y1="0.347" x2="0.799" y2="0.634" gradientUnits="objectBoundingBox">
      <stop offset="0" stop-color="#9c0e0e"/>
      <stop offset="0.745" stop-color="#fc3f00"/>
      <stop offset="1" stop-color="#c4020b"/>
    </linearGradient>
    <linearGradient id="linear-gradient-9" x1="0.376" y1="0.457" x2="0.646" y2="0.552" gradientUnits="objectBoundingBox">
      <stop offset="0"/>
      <stop offset="0.684" stop-color="#ff7373"/>
      <stop offset="0.738" stop-color="#f26d6d"/>
      <stop offset="0.837" stop-color="#cf5d5d"/>
      <stop offset="0.971" stop-color="#984444"/>
      <stop offset="1" stop-color="#8c3f3f"/>
    </linearGradient>
    <linearGradient id="linear-gradient-10" x1="0.301" y1="0.407" x2="0.699" y2="0.593" gradientUnits="objectBoundingBox">
      <stop offset="0"/>
      <stop offset="0.018" stop-color="#0f0e0a"/>
      <stop offset="0.098" stop-color="#4d4935"/>
      <stop offset="0.178" stop-color="#837c5b"/>
      <stop offset="0.255" stop-color="#b0a579"/>
      <stop offset="0.328" stop-color="#d2c691"/>
      <stop offset="0.397" stop-color="#eadda2"/>
      <stop offset="0.461" stop-color="#f9ebac"/>
      <stop offset="0.513" stop-color="#fff0b0"/>
      <stop offset="0.558" stop-color="#f8eaab"/>
      <stop offset="0.619" stop-color="#e7daa0"/>
      <stop offset="0.689" stop-color="#cbbf8c"/>
      <stop offset="0.765" stop-color="#a49b71"/>
      <stop offset="0.847" stop-color="#726c4f"/>
      <stop offset="0.931" stop-color="#363325"/>
      <stop offset="1"/>
    </linearGradient>
    <linearGradient id="linear-gradient-11" x1="0.314" y1="0.412" x2="0.909" y2="0.687" gradientUnits="objectBoundingBox">
      <stop offset="0" stop-color="#ff3030"/>
      <stop offset="1" stop-color="#ffe4bf"/>
    </linearGradient>
    <linearGradient id="linear-gradient-12" x1="-0.045" y1="0.112" x2="1.053" y2="0.882" gradientUnits="objectBoundingBox">
      <stop offset="0" stop-color="#c4020b"/>
      <stop offset="1" stop-color="#fc3f00"/>
    </linearGradient>
    <linearGradient id="linear-gradient-13" x1="0.213" y1="0.327" x2="0.809" y2="0.645" xlink:href="#linear-gradient-5"/>
    <linearGradient id="linear-gradient-14" x1="0.358" y1="0.451" x2="0.641" y2="0.552" gradientUnits="objectBoundingBox">
      <stop offset="0"/>
      <stop offset="1" stop-color="#fff0b0"/>
    </linearGradient>
    <linearGradient id="linear-gradient-15" x1="0.293" y1="0.398" x2="0.718" y2="0.603" gradientUnits="objectBoundingBox">
      <stop offset="0" stop-color="#ffa163"/>
      <stop offset="1" stop-color="#ffe4bf"/>
    </linearGradient>
    <linearGradient id="linear-gradient-16" x1="0.362" y1="0.425" x2="0.663" y2="0.55" gradientUnits="objectBoundingBox">
      <stop offset="0" stop-color="#9c0e0e"/>
      <stop offset="0.303" stop-color="#fc3f00"/>
      <stop offset="1" stop-color="#c4020b"/>
    </linearGradient>
    <linearGradient id="linear-gradient-17" x1="0.469" y1="0.491" x2="0.538" y2="0.516" xlink:href="#linear-gradient-4"/>
    <linearGradient id="linear-gradient-18" x1="0.413" y1="0.468" x2="0.606" y2="0.538" gradientUnits="objectBoundingBox">
      <stop offset="0"/>
      <stop offset="0.086" stop-color="#3e1010"/>
      <stop offset="0.208" stop-color="#8f2626"/>
      <stop offset="0.308" stop-color="#cb3737"/>
      <stop offset="0.381" stop-color="#f04141"/>
      <stop offset="0.42" stop-color="#ff4545"/>
      <stop offset="0.497" stop-color="#f23f3f"/>
      <stop offset="0.64" stop-color="#cf3232"/>
      <stop offset="0.831" stop-color="#981d1d"/>
      <stop offset="1" stop-color="#630808"/>
    </linearGradient>
    <linearGradient id="linear-gradient-19" x1="0.448" y1="0.483" x2="0.549" y2="0.517" gradientUnits="objectBoundingBox">
      <stop offset="0" stop-color="#ffe4bf"/>
      <stop offset="1" stop-color="#800c0c"/>
    </linearGradient>
    <linearGradient id="linear-gradient-20" x1="0.385" y1="0.44" x2="0.636" y2="0.54" gradientUnits="objectBoundingBox">
      <stop offset="0" stop-color="#546578"/>
      <stop offset="0.316" stop-color="#8da0b8"/>
      <stop offset="1" stop-color="#546578"/>
    </linearGradient>
    <linearGradient id="linear-gradient-21" x1="0.438" y1="0.474" x2="0.547" y2="0.512" gradientUnits="objectBoundingBox">
      <stop offset="0" stop-color="#fff"/>
      <stop offset="0.524" stop-color="#c3cedf"/>
      <stop offset="1" stop-color="#8a9fc2"/>
    </linearGradient>
    <linearGradient id="linear-gradient-22" x1="0.477" y1="0.486" x2="0.651" y2="0.546" gradientUnits="objectBoundingBox">
      <stop offset="0" stop-color="#8a9fc2"/>
      <stop offset="0.476" stop-color="#c3cedf"/>
      <stop offset="1" stop-color="#fff"/>
    </linearGradient>
    <radialGradient id="radial-gradient-7" cx="0.255" cy="-0.911" r="2.089" gradientUnits="objectBoundingBox">
      <stop offset="0" stop-color="#adbdc9"/>
      <stop offset="1" stop-color="#263754"/>
    </radialGradient>
    <radialGradient id="radial-gradient-8" cx="-0.67" cy="-0.027" r="1.154" gradientUnits="objectBoundingBox">
      <stop offset="0" stop-color="#fff"/>
      <stop offset="0.11" stop-color="#fafafa"/>
      <stop offset="0.234" stop-color="#ececec"/>
      <stop offset="0.365" stop-color="#d6d6d6"/>
      <stop offset="0.5" stop-color="#b6b6b6"/>
      <stop offset="0.639" stop-color="#8e8e8e"/>
      <stop offset="0.781" stop-color="#5c5c5c"/>
      <stop offset="0.922" stop-color="#222"/>
      <stop offset="1"/>
    </radialGradient>
    <linearGradient id="linear-gradient-23" x1="0.34" y1="0.414" x2="0.476" y2="0.471" xlink:href="#linear-gradient-5"/>
    <linearGradient id="linear-gradient-24" x1="0.436" y1="0.476" x2="0.565" y2="0.523" xlink:href="#radial-gradient-6"/>
    <linearGradient id="linear-gradient-25" x1="0.464" y1="0.489" x2="0.539" y2="0.517" xlink:href="#linear-gradient-15"/>
    <linearGradient id="linear-gradient-26" x1="0.438" y1="0.48" x2="0.557" y2="0.52" gradientUnits="objectBoundingBox">
      <stop offset="0" stop-color="#ffe4bf"/>
      <stop offset="1" stop-color="#ffa163"/>
    </linearGradient>
  </defs>
  <g id="Group_810" data-name="Group 810" transform="translate(-130 -391)">
    <circle id="Ellipse_25" data-name="Ellipse 25" cx="24" cy="24" r="24" transform="translate(142 403)" fill="#c36262" opacity="0.18"/>
    <rect id="Rectangle_802" data-name="Rectangle 802" width="72" height="72" transform="translate(130 391)" fill="none"/>
    <g id="Group_812" data-name="Group 812" transform="translate(107.326 314.372)">
      <g id="Group_811" data-name="Group 811" transform="translate(57.017 86.234)">
        <path id="Path_17029" data-name="Path 17029" d="M53.085,86.709a3.544,3.544,0,1,1-4.84,1.3,3.544,3.544,0,0,1,4.84-1.3Z" transform="translate(-47.769 -86.234)" fill="url(#radial-gradient)"/>
        <path id="Path_17030" data-name="Path 17030" d="M52.271,86.8a2.707,2.707,0,1,1-3.7.991,2.708,2.708,0,0,1,3.7-.991Z" transform="translate(-47.53 -86.123)" fill="url(#radial-gradient-2)" style="mix-blend-mode: screen;isolation: isolate"/>
        <path id="Path_17031" data-name="Path 17031" d="M50.179,86.716a1.611,1.611,0,1,1,.8,3,1.611,1.611,0,1,1-.8-3Z" transform="translate(-47.333 -86.022)" fill="url(#radial-gradient-3)" style="mix-blend-mode: screen;isolation: isolate"/>
        <path id="Path_17032" data-name="Path 17032" d="M53.847,87.443a3.262,3.262,0,0,1-5.552,3.4,3.419,3.419,0,0,0,.633.472,3.37,3.37,0,0,0,4.919-3.872Z" transform="translate(-47.485 -85.579)" fill="url(#radial-gradient-4)" style="mix-blend-mode: screen;isolation: isolate"/>
      </g>
      <path id="Path_17033" data-name="Path 17033" d="M49.393,92.407a10.32,10.32,0,0,0,1.846.86c.831.274,1.518.143,1.865-.458s.116-1.259-.536-1.841A10.407,10.407,0,0,0,50.9,89.8a10.543,10.543,0,0,0-1.846-.86c-.831-.274-1.518-.143-1.865.458s-.116,1.26.536,1.843a10.411,10.411,0,0,0,1.667,1.168Z" transform="translate(8.847 1.389)" fill="url(#linear-gradient)"/>
      <path id="Path_17034" data-name="Path 17034" d="M51.2,92.908A11.636,11.636,0,0,1,47.69,90.88a2.358,2.358,0,0,1-.556-.7.545.545,0,0,1,.411-.713,2.35,2.35,0,0,1,.884.131,11.684,11.684,0,0,1,3.513,2.029,2.358,2.358,0,0,1,.556.7.545.545,0,0,1-.411.713,2.323,2.323,0,0,1-.884-.133Z" transform="translate(8.883 1.747)" fill="url(#radial-gradient-5)" style="mix-blend-mode: multiply;isolation: isolate"/>
      <path id="Path_17035" data-name="Path 17035" d="M47.445,89.477a.309.309,0,0,1,.046-.287c.787-.975,4.3,1.2,4.295,2.408a9.051,9.051,0,0,0-3.846-1.98c-.2-.025-.455-.06-.495-.142Z" transform="translate(9.063 1.467)" fill="url(#radial-gradient-6)" style="mix-blend-mode: screen;isolation: isolate"/>
      <path id="Path_17036" data-name="Path 17036" d="M65.357,129.164c-7.319-5.2-12.315-5.842-15.848-8.429a3.571,3.571,0,0,1-.9-.883,1.181,1.181,0,0,1,0-1.311A224.1,224.1,0,0,0,60.182,98.47c-.225.556,0,1.2,1.048,1.963,3.533,2.587,8.528,3.224,15.848,8.429a102.027,102.027,0,0,0-11.722,20.3Z" transform="translate(9.595 6.619)" fill="url(#linear-gradient-2)"/>
      <path id="Path_17037" data-name="Path 17037" d="M72.376,105.661a50.392,50.392,0,0,0-7.262-3.8,112.533,112.533,0,0,1-5.262,10.26,111.513,111.513,0,0,1-6.5,10.025,50.345,50.345,0,0,1,7.256,3.791,57.819,57.819,0,0,1,11.77-20.271Z" transform="translate(12.267 8.451)" opacity="0.75" fill="url(#linear-gradient-3)" style="mix-blend-mode: screen;isolation: isolate"/>
      <path id="Path_17038" data-name="Path 17038" d="M55.113,123.579c.418-2.923,1.854-6.678,4.72-11.645a39.51,39.51,0,0,1,6.52-8.862,25.51,25.51,0,0,1-5.122-2.64c-1.045-.766-1.273-1.407-1.048-1.963a224.1,224.1,0,0,1-11.571,20.071,1.181,1.181,0,0,0,0,1.311,3.571,3.571,0,0,0,.9.883,28.043,28.043,0,0,0,5.6,2.845Z" transform="translate(9.595 6.619)" fill="url(#linear-gradient-4)" style="mix-blend-mode: multiply;isolation: isolate"/>
      <path id="Path_17039" data-name="Path 17039" d="M66.522,125.156c-6.586-4.6-11.192-5.378-14.528-7.7a8.174,8.174,0,0,1-1.763-1.245,1.284,1.284,0,0,1-.325-.835q-.444.7-.889,1.4a1.2,1.2,0,0,0,.243.932,5.808,5.808,0,0,0,1.331,1.065c3.432,2.455,8.225,3.164,15.166,8.051.239-.539.495-1.094.764-1.66Zm-.509-20.835a31.629,31.629,0,0,1-6.073-3.053c-.79-.592-1.082-1.116-1.049-1.581q-.441.848-.9,1.7a2.07,2.07,0,0,0,.974,1.378,29.241,29.241,0,0,0,5.641,2.872,64.047,64.047,0,0,1,10.061,5.492q.511-.747,1.029-1.472a55.88,55.88,0,0,0-9.688-5.333Z" transform="translate(9.914 7.277)" fill="url(#linear-gradient-5)"/>
      <path id="Path_17040" data-name="Path 17040" d="M58.97,102.761a22.878,22.878,0,0,0,4.589,2.41c.4-.507.789-.974,1.173-1.407a23.852,23.852,0,0,1-4.791-2.5c-.79-.592-1.082-1.116-1.048-1.581q-.444.848-.9,1.7a2.07,2.07,0,0,0,.974,1.378Zm-3.305,16.647a22.026,22.026,0,0,1-3.671-1.957,8.174,8.174,0,0,1-1.763-1.245,1.284,1.284,0,0,1-.325-.835q-.444.7-.889,1.4a1.2,1.2,0,0,0,.243.932,5.808,5.808,0,0,0,1.331,1.065,24.443,24.443,0,0,0,4.56,2.373c.139-.55.31-1.125.513-1.729Z" transform="translate(9.914 7.277)" fill="url(#linear-gradient-6)" style="mix-blend-mode: multiply;isolation: isolate"/>
      <path id="Path_17041" data-name="Path 17041" d="M52.906,117.361c2.846-3.755,9.712-15.006,11.8-20.457-.274.681-1.358.969-2.276,1.207s-2,.527-2.274,1.207A198.121,198.121,0,0,1,48.46,119.2a5.344,5.344,0,0,1,2.25-.786,3.838,3.838,0,0,0,2.2-1.051Z" transform="translate(9.621 5.772)" fill="url(#linear-gradient-7)"/>
      <path id="Path_17042" data-name="Path 17042" d="M56.254,120.359c2.846-3.754,9.535-15.107,11.623-20.559.214-.559,0-1.2-1.048-1.962-2.609-1.911-7.292-3.495-12.509-6.289L42.6,111.852c5.219,2.794,9.9,4.378,12.509,6.289.618.451,1.678,1.388,1.146,2.219Z" transform="translate(6.45 2.876)" fill="url(#linear-gradient-8)"/>
      <path id="Path_17043" data-name="Path 17043" d="M62.964,95.987a15.32,15.32,0,0,0-1.613-1.015c-1.555,3.435-3.484,7.193-5.714,11.055-1.952,3.382-3.951,6.524-5.894,9.31a14.863,14.863,0,0,1,1.5.952c.618.451,1.678,1.388,1.146,2.219,2.846-3.754,9.535-15.107,11.623-20.559.214-.559,0-1.2-1.048-1.962Z" transform="translate(10.315 4.727)" fill="url(#linear-gradient-9)" style="mix-blend-mode: screen;isolation: isolate"/>
      <path id="Path_17044" data-name="Path 17044" d="M63.221,104.532a62.3,62.3,0,0,1,6.426,3.345c.379-.482.764-.952,1.151-1.411a57.944,57.944,0,0,0-6.8-3.558q-.377.8-.778,1.624ZM61.5,121.906A51.322,51.322,0,0,0,55.07,118.6c-.344.507-.687,1.006-1.031,1.493a50.728,50.728,0,0,1,6.8,3.523q.312-.851.661-1.709Z" transform="translate(12.639 9.02)" fill="url(#linear-gradient-10)" style="mix-blend-mode: screen;isolation: isolate"/>
      <path id="Path_17045" data-name="Path 17045" d="M61.762,95.122c-2.2-1.009-4.749-2.13-7.443-3.572l-11.72,20.3c2.783,1.49,5.413,2.637,7.66,3.672,1.473-2.39,2.965-4.888,4.455-7.47,2.589-4.483,4.957-8.843,7.048-12.932Z" transform="translate(6.451 2.876)" fill="url(#linear-gradient-11)" style="mix-blend-mode: multiply;isolation: isolate"/>
      <path id="Path_17046" data-name="Path 17046" d="M42.738,104.609c2.245,1.2,4.393,2.182,6.315,3.057a37.823,37.823,0,0,1,6.211,3.244,3.308,3.308,0,0,1,1.062,1.136,1.265,1.265,0,0,1,.055,1.071,1.783,1.783,0,0,1-1,.878,9.351,9.351,0,0,1-1.411.448,8.863,8.863,0,0,0-1.347.427,1.412,1.412,0,0,0-.79.658.867.867,0,0,0,.042.737,2.946,2.946,0,0,0,.937.983,26.153,26.153,0,0,0,5.231,2.681,53.637,53.637,0,0,1,10.5,5.914.759.759,0,0,1-.476.163,53.146,53.146,0,0,0-10.182-5.7,26.276,26.276,0,0,1-5.31-2.726,3.315,3.315,0,0,1-1.063-1.134,1.259,1.259,0,0,1-.054-1.071,1.78,1.78,0,0,1,1-.878,9.121,9.121,0,0,1,1.411-.448,9.057,9.057,0,0,0,1.348-.427,1.414,1.414,0,0,0,.789-.658.867.867,0,0,0-.042-.737,2.946,2.946,0,0,0-.937-.985,37.426,37.426,0,0,0-6.141-3.2c-1.937-.883-4.093-1.863-6.35-3.073l.206-.357Z" transform="translate(6.415 9.94)" fill="url(#linear-gradient-12)"/>
      <path id="Path_17047" data-name="Path 17047" d="M56.873,114.629c-2.617-1.915-7.472-3.592-12.788-6.447l-.9,1.561c5.276,2.831,10.061,4.469,12.674,6.383.652.476,1.647,1.39,1.14,2.2.319-.467.661-.983,1.02-1.538.451-.784-.467-1.663-1.145-2.159Zm9.988-13.7c.227-.578-.06-1.233-1.062-1.968-2.615-1.914-7.413-3.56-12.7-6.395l-.9,1.563c5.329,2.862,10.2,4.549,12.821,6.466.968.707,1.317,1.384,1.074,1.98.277-.575.535-1.125.767-1.646Z" transform="translate(6.767 3.424)" fill="url(#linear-gradient-13)"/>
      <path id="Path_17048" data-name="Path 17048" d="M62.953,99.047c.227-.578-.06-1.233-1.062-1.968a16.129,16.129,0,0,0-1.661-1.042c-.253.536-.516,1.08-.786,1.629a15.848,15.848,0,0,1,1.667,1.046c.968.707,1.317,1.384,1.074,1.98.277-.575.535-1.125.767-1.646ZM54.11,114.908c.451-.784-.467-1.663-1.145-2.159a15.584,15.584,0,0,0-1.559-.986q-.5.767-1,1.505a15.5,15.5,0,0,1,1.542.977c.652.476,1.647,1.39,1.14,2.2.319-.467.661-.983,1.02-1.538Z" transform="translate(10.675 5.304)" fill="url(#linear-gradient-14)" style="mix-blend-mode: screen;isolation: isolate"/>
      <path id="Path_17049" data-name="Path 17049" d="M52.2,94.127c2.724,1.464,5.332,2.62,7.578,3.657q.425-.807.838-1.6c-2.224-1.023-4.806-2.165-7.514-3.618l-.9,1.563Zm-.39,17.778c-2.277-1.052-4.937-2.225-7.725-3.723l-.9,1.563c2.786,1.493,5.433,2.655,7.7,3.7q.465-.763.929-1.539Z" transform="translate(6.767 3.424)" fill="url(#linear-gradient-15)" style="mix-blend-mode: multiply;isolation: isolate"/>
      <path id="Path_17050" data-name="Path 17050" d="M54.33,90.523A7.451,7.451,0,0,1,56.011,91.8c.382.411.556.777.43,1h0c-1.938,3.356-4.127,7.147-6.062,10.5s-3.872,6.706-5.809,10.061L42,111.877l-2.57-1.484c2.014-3.308,4-6.632,5.931-9.99s4.065-7.178,5.951-10.563c.125-.22.522-.256,1.068-.131a7.447,7.447,0,0,1,1.949.814Z" transform="translate(4.737 1.841)" fill="url(#linear-gradient-16)"/>
      <path id="Path_17051" data-name="Path 17051" d="M46.364,100.454c1.962-3.418,4.137-7.295,6.065-10.733l-.051-.012c-.533-.122-.926-.091-1.06.117-1.814,3.256-3.879,6.948-5.731,10.179q-.425.742-.854,1.481-2.6,4.479-5.3,8.9c.139-.217.562-.24,1.133-.1,1.962-3.258,3.9-6.53,5.8-9.828Z" transform="translate(4.74 1.841)" fill="url(#linear-gradient-17)" style="mix-blend-mode: multiply;isolation: isolate"/>
      <path id="Path_17052" data-name="Path 17052" d="M52.452,89.824C50.5,93.3,48.288,97.219,46.3,100.678q-2.8,4.882-5.709,9.709a8.7,8.7,0,0,1,1.237.595c.086.049.171.1.254.151q2.836-4.805,5.627-9.642C49.72,98,51.957,94.068,53.947,90.568c-.08-.049.012,0-.245-.146a10.52,10.52,0,0,0-1.25-.6Z" transform="translate(5.366 1.942)" fill="url(#linear-gradient-18)" style="mix-blend-mode: screen;isolation: isolate"/>
      <path id="Path_17053" data-name="Path 17053" d="M54.055,90.76c-1.979,3.459-4.21,7.355-6.2,10.807q-2.815,4.886-5.668,9.756c.692.581,1.062,1.137.891,1.432q2.905-5.03,5.809-10.061l.23-.4,5.832-10.1c.126-.219-.048-.584-.43-1a5.451,5.451,0,0,0-.465-.438Z" transform="translate(6.229 2.448)" fill="url(#linear-gradient-19)" style="mix-blend-mode: multiply;isolation: isolate"/>
      <path id="Path_17054" data-name="Path 17054" d="M42.473,103.867c1.419.82,2.365,1.838,2.111,2.277s-1.609.129-3.028-.69-2.364-1.838-2.111-2.277,1.609-.129,3.028.69Z" transform="translate(4.723 9.058)" fill="#a71b00"/>
      <path id="Path_17055" data-name="Path 17055" d="M48.9,106.005c-1.962,3.256-2.39,3.875-4.291,7.164s-7.527,13.158-9.346,16.493l-2.281-1.316L30.7,127.028c1.965-3.25,7.714-13.05,9.628-16.329s2.239-3.96,4.05-7.3c.108-.2.455-.231.935-.123a7.287,7.287,0,0,1,3.216,1.857c.336.364.485.684.37.875Z" transform="translate(0.013 9.185)" fill="url(#linear-gradient-20)"/>
      <path id="Path_17056" data-name="Path 17056" d="M47.5,104.713a5.69,5.69,0,0,0-.852-.729c-1.969,3.4-2.424,4.145-4.393,7.538s-7.711,13.361-9.649,16.784l1.627.938c1.818-3.335,7.443-13.206,9.346-16.493s2.33-3.908,4.291-7.164c.116-.191-.034-.512-.37-.875Z" transform="translate(1.043 9.602)" fill="url(#linear-gradient-21)" style="mix-blend-mode: multiply;isolation: isolate"/>
      <path id="Path_17057" data-name="Path 17057" d="M31.352,127.406c2.012-3.378,7.813-13.3,9.79-16.7,1.938-3.33,2.3-4.053,4.151-7.433-.472-.1-.812-.068-.918.126-1.811,3.342-2.134,4.022-4.05,7.3s-7.663,13.079-9.628,16.329l.655.378Z" transform="translate(0.013 9.185)" fill="url(#linear-gradient-22)" style="mix-blend-mode: multiply;isolation: isolate"/>
      <path id="Path_17058" data-name="Path 17058" d="M33.4,119.343c1.259.727,2.1,1.632,1.874,2.02s-1.427.116-2.687-.612-2.1-1.632-1.874-2.022,1.428-.114,2.687.613Z" transform="translate(0 17.483)" fill="url(#radial-gradient-7)"/>
      <path id="Path_17059" data-name="Path 17059" d="M45.7,103.889a6.9,6.9,0,0,0-1.358-.59c-5.3,9.23-11.685,20.662-11.341,20.87s7.335-10.961,12.7-20.28Z" transform="translate(1.251 9.231)" fill="url(#radial-gradient-8)" style="mix-blend-mode: screen;isolation: isolate"/>
      <path id="Path_17060" data-name="Path 17060" d="M46.122,109.416c.273-.473-.841-1.544-2.113-2.276-1.094-.633-2.35-1.04-2.849-.835q-.481.8-.968,1.607c.444-.253,1.7.116,2.9.809,1.342.775,2.37,1.817,2.113,2.274l.912-1.579ZM52.1,93.123c.6.345,2.475,1.649,2.111,2.277.308-.532.612-1.06.914-1.581.373-.647-1.587-1.975-2.111-2.279-.487-.28-2.385-1.207-2.926-.787q-.43.767-.868,1.552c.586-.328,2.339.505,2.88.818Z" transform="translate(5.149 2.387)" fill="url(#linear-gradient-23)"/>
      <path id="Path_17061" data-name="Path 17061" d="M50.29,92.439a9.433,9.433,0,0,1,1.217.573c.072.042.163.1.265.162q.455-.8.9-1.587c-.1-.066-.19-.119-.254-.157a10,10,0,0,0-1.236-.579q-.444.786-.9,1.589ZM43.7,107.2c-.092-.057-.186-.114-.282-.168a8.538,8.538,0,0,0-1.188-.573q-.465.788-.934,1.572a8.623,8.623,0,0,1,1.21.582c.091.052.18.106.27.162L43.7,107.2Z" transform="translate(5.744 2.497)" fill="url(#linear-gradient-24)" style="mix-blend-mode: screen;isolation: isolate"/>
      <path id="Path_17062" data-name="Path 17062" d="M49.223,92.3a1.525,1.525,0,0,1,1.023.034l.892-1.589a1.336,1.336,0,0,0-1.049,0q-.428.767-.866,1.55Zm-7.041,14.055a1.791,1.791,0,0,0-1.022-.052q-.483.8-.968,1.607a1.578,1.578,0,0,1,1.049.018q.472-.786.94-1.573Z" transform="translate(5.149 2.387)" fill="url(#linear-gradient-25)" style="mix-blend-mode: multiply;isolation: isolate"/>
      <path id="Path_17063" data-name="Path 17063" d="M43.791,107.384q-.458.788-.918,1.575c.667.566,1.054,1.119.888,1.419q.455-.788.911-1.578l0,0c.173-.307-.231-.861-.881-1.415ZM51.874,93.37c.587.49,1.091,1.057.891,1.411l.912-1.578c.208-.361-.307-.932-.9-1.419l-.908,1.586Z" transform="translate(6.599 3.002)" fill="url(#linear-gradient-26)" style="mix-blend-mode: multiply;isolation: isolate"/>
    </g>
  </g>
</svg>
