<svg xmlns="http://www.w3.org/2000/svg" xmlns:xlink="http://www.w3.org/1999/xlink" width="72" height="72" viewBox="0 0 72 72">
  <defs>
    <linearGradient id="linear-gradient" x1="0.068" y1="-0.041" x2="0.791" y2="0.886" gradientUnits="objectBoundingBox">
      <stop offset="0" stop-color="#fc0"/>
      <stop offset="1" stop-color="#b36600"/>
    </linearGradient>
    <linearGradient id="linear-gradient-2" x1="0.39" y1="-0.013" x2="0.503" y2="0.668" gradientUnits="objectBoundingBox">
      <stop offset="0" stop-color="#db7d00"/>
      <stop offset="1" stop-color="#914900"/>
    </linearGradient>
    <linearGradient id="linear-gradient-3" x1="0.098" y1="0.018" x2="0.694" y2="0.975" gradientUnits="objectBoundingBox">
      <stop offset="0" stop-color="#c77000"/>
      <stop offset="0.403" stop-color="#cc8b00"/>
      <stop offset="1" stop-color="#ba5e00"/>
    </linearGradient>
    <linearGradient id="linear-gradient-4" x1="0" y1="0.5" x2="1" y2="0.5" xlink:href="#linear-gradient"/>
    <linearGradient id="linear-gradient-5" x1="-0.012" y1="0.669" x2="1.998" y2="-0.201" gradientUnits="objectBoundingBox">
      <stop offset="0" stop-color="#b35100"/>
      <stop offset="1" stop-color="#fc0"/>
    </linearGradient>
    <linearGradient id="linear-gradient-6" x1="0.447" y1="0.436" x2="0.948" y2="-0.09" gradientUnits="objectBoundingBox">
      <stop offset="0" stop-color="#8a4500"/>
      <stop offset="1" stop-color="#b86800"/>
    </linearGradient>
    <linearGradient id="linear-gradient-7" x1="0.033" y1="1.098" x2="1.018" y2="0.148" gradientUnits="objectBoundingBox">
      <stop offset="0" stop-color="#c75a00"/>
      <stop offset="0.403" stop-color="#bf6d00"/>
      <stop offset="1" stop-color="#914900"/>
    </linearGradient>
    <linearGradient id="linear-gradient-8" x1="0.011" y1="0.201" x2="0.918" y2="0.944" gradientUnits="objectBoundingBox">
      <stop offset="0.007" stop-color="#781916"/>
      <stop offset="0.309" stop-color="#963333"/>
      <stop offset="1" stop-color="#450e0e"/>
    </linearGradient>
    <linearGradient id="linear-gradient-9" x1="0.104" y1="0.115" x2="1.067" y2="0.764" gradientUnits="objectBoundingBox">
      <stop offset="0.052" stop-color="#ed9500"/>
      <stop offset="0.403" stop-color="#fc0"/>
      <stop offset="0.926" stop-color="#b36600"/>
    </linearGradient>
    <radialGradient id="radial-gradient" cx="0.41" cy="1.272" r="1.728" gradientUnits="objectBoundingBox">
      <stop offset="0" stop-color="#fff"/>
      <stop offset="1" stop-color="#e08f48"/>
    </radialGradient>
    <radialGradient id="radial-gradient-2" cx="-0.329" cy="0.905" r="0.884" xlink:href="#radial-gradient"/>
    <radialGradient id="radial-gradient-3" cx="-0.377" cy="0.577" r="0.6" gradientUnits="objectBoundingBox">
      <stop offset="0" stop-color="#fff369"/>
      <stop offset="0.11" stop-color="#faee67"/>
      <stop offset="0.234" stop-color="#ece161"/>
      <stop offset="0.365" stop-color="#d6cc58"/>
      <stop offset="0.5" stop-color="#b6ae4b"/>
      <stop offset="0.639" stop-color="#8e873a"/>
      <stop offset="0.781" stop-color="#5c5826"/>
      <stop offset="0.922" stop-color="#22210e"/>
      <stop offset="1"/>
    </radialGradient>
    <radialGradient id="radial-gradient-4" cx="0.219" cy="0.379" r="0.745" xlink:href="#radial-gradient-3"/>
    <linearGradient id="linear-gradient-10" x1="0.305" y1="0.442" x2="0.758" y2="0.558" gradientUnits="objectBoundingBox">
      <stop offset="0" stop-color="#616dbe"/>
      <stop offset="0.603" stop-color="#c2c7e6"/>
      <stop offset="1" stop-color="#fff"/>
    </linearGradient>
    <linearGradient id="linear-gradient-11" x1="0.323" y1="0.385" x2="0.677" y2="0.608" gradientUnits="objectBoundingBox">
      <stop offset="0" stop-color="#fff"/>
      <stop offset="0.397" stop-color="#c2c7e6"/>
      <stop offset="1" stop-color="#616dbe"/>
    </linearGradient>
    <linearGradient id="linear-gradient-12" x1="0.142" y1="0.311" x2="0.858" y2="0.689" gradientUnits="objectBoundingBox">
      <stop offset="0" stop-color="#ab665d"/>
      <stop offset="1" stop-color="#2b2321"/>
    </linearGradient>
    <radialGradient id="radial-gradient-5" cx="0.227" cy="0.039" r="1.063" gradientUnits="objectBoundingBox">
      <stop offset="0" stop-color="#e08f48"/>
      <stop offset="1" stop-color="#fff"/>
    </radialGradient>
    <linearGradient id="linear-gradient-13" x1="0.22" y1="0.309" x2="0.78" y2="0.691" xlink:href="#linear-gradient-12"/>
    <radialGradient id="radial-gradient-6" cx="0.759" cy="0.158" r="1.725" gradientUnits="objectBoundingBox">
      <stop offset="0" stop-color="#ffa163"/>
      <stop offset="1" stop-color="#fff"/>
    </radialGradient>
    <linearGradient id="linear-gradient-14" x1="-0.049" y1="0.352" x2="0.802" y2="0.855" gradientUnits="objectBoundingBox">
      <stop offset="0.052" stop-color="#ed9500"/>
      <stop offset="0.403" stop-color="#fc0"/>
      <stop offset="1" stop-color="#d96d00"/>
    </linearGradient>
    <radialGradient id="radial-gradient-7" cx="0.194" cy="0.161" r="0.973" xlink:href="#radial-gradient-3"/>
    <radialGradient id="radial-gradient-8" cx="0.279" cy="0.061" r="0.947" xlink:href="#radial-gradient-3"/>
    <radialGradient id="radial-gradient-9" cx="2.002" cy="0.477" r="0.733" xlink:href="#radial-gradient"/>
    <radialGradient id="radial-gradient-10" cx="0.337" cy="0.096" r="1.143" xlink:href="#radial-gradient"/>
    <radialGradient id="radial-gradient-11" cx="0.219" cy="-0.289" r="1.284" xlink:href="#radial-gradient-3"/>
    <radialGradient id="radial-gradient-12" cx="-0.135" cy="0.033" r="0.981" xlink:href="#radial-gradient-3"/>
    <radialGradient id="radial-gradient-13" cx="0.147" cy="0.455" r="1.2" gradientUnits="objectBoundingBox">
      <stop offset="0" stop-color="#fc0"/>
      <stop offset="1" stop-color="#ed9500"/>
    </radialGradient>
    <radialGradient id="radial-gradient-14" cx="0.762" cy="-0.273" r="1.331" xlink:href="#radial-gradient-3"/>
    <radialGradient id="radial-gradient-15" cx="0.667" cy="-0.109" r="1.118" xlink:href="#radial-gradient-3"/>
    <radialGradient id="radial-gradient-16" cx="-0.235" cy="-0.144" r="2.099" gradientUnits="objectBoundingBox">
      <stop offset="0" stop-color="#fff"/>
      <stop offset="1" stop-color="#ffa163"/>
    </radialGradient>
    <radialGradient id="radial-gradient-17" cx="1.827" cy="0.926" r="1.451" xlink:href="#radial-gradient-16"/>
    <radialGradient id="radial-gradient-18" cx="-0.045" cy="-0.424" r="1.844" xlink:href="#radial-gradient-3"/>
    <radialGradient id="radial-gradient-19" cx="-0.148" cy="-0.132" r="1.718" xlink:href="#radial-gradient-3"/>
    <radialGradient id="radial-gradient-20" cx="0.002" cy="0.353" r="2.015" gradientUnits="objectBoundingBox">
      <stop offset="0" stop-color="#fcf80d"/>
      <stop offset="1" stop-color="#fc9c0d"/>
    </radialGradient>
    <radialGradient id="radial-gradient-21" cx="0.933" cy="0.104" r="1.127" gradientUnits="objectBoundingBox">
      <stop offset="0" stop-color="#fcf80d"/>
      <stop offset="1" stop-color="#f78a0c"/>
    </radialGradient>
    <radialGradient id="radial-gradient-22" cx="0.5" cy="0.962" r="1.44" gradientUnits="objectBoundingBox">
      <stop offset="0"/>
      <stop offset="0.151" stop-color="#201f0d"/>
      <stop offset="0.483" stop-color="#736e2f"/>
      <stop offset="0.971" stop-color="#f6eb65"/>
      <stop offset="1" stop-color="#fff369"/>
    </radialGradient>
    <radialGradient id="radial-gradient-23" cx="-0.171" cy="1.07" r="1.585" xlink:href="#radial-gradient-5"/>
    <radialGradient id="radial-gradient-24" cx="0.364" cy="-0.183" r="1.759" xlink:href="#radial-gradient-3"/>
    <radialGradient id="radial-gradient-25" cx="0.155" cy="-0.229" r="1.476" xlink:href="#radial-gradient-3"/>
    <radialGradient id="radial-gradient-26" cx="0.59" cy="-0.871" r="4.466" gradientUnits="objectBoundingBox">
      <stop offset="0"/>
      <stop offset="0.078" stop-color="#22210e"/>
      <stop offset="0.219" stop-color="#5c5826"/>
      <stop offset="0.361" stop-color="#8e873a"/>
      <stop offset="0.5" stop-color="#b6ae4b"/>
      <stop offset="0.635" stop-color="#d6cc58"/>
      <stop offset="0.766" stop-color="#ece161"/>
      <stop offset="0.89" stop-color="#faee67"/>
      <stop offset="1" stop-color="#fff369"/>
    </radialGradient>
    <radialGradient id="radial-gradient-27" cx="2.038" cy="0.5" r="0.653" xlink:href="#radial-gradient"/>
    <radialGradient id="radial-gradient-28" cx="0.255" cy="-0.476" r="2.006" xlink:href="#radial-gradient"/>
    <linearGradient id="linear-gradient-15" x1="0" y1="0.5" x2="1" y2="0.5" xlink:href="#radial-gradient-5"/>
    <linearGradient id="linear-gradient-16" x1="1.012" y1="1.054" x2="0.017" y2="-0.064" xlink:href="#radial-gradient-5"/>
  </defs>
  <g id="Group_814" data-name="Group 814" transform="translate(-130 -391)">
    <circle id="Ellipse_25" data-name="Ellipse 25" cx="24" cy="24" r="24" transform="translate(142 403)" fill="#ffb300" opacity="0.18"/>
    <rect id="Rectangle_802" data-name="Rectangle 802" width="72" height="72" transform="translate(130 391)" fill="none"/>
    <g id="Group_815" data-name="Group 815" transform="translate(-78.814 312.775)">
      <path id="Path_17064" data-name="Path 17064" d="M238.25,98.926l-9.827,14.62c-2.21-1.583-12.58-12.549-4.2-25.019l.52-.773.853-.471a7.482,7.482,0,0,1,5.855-.211c-2.575,4.179-1.5,6.033,1.33,7.667l5.966,3.444-.5.742Zm-11.894-6.177h0a7.814,7.814,0,0,0,3.923,4.82l3.965,2.291-5.524,8.218c-3.9-5.12-4.708-9.985-2.364-15.328Z" transform="translate(1.537 0.221)" fill="#bc7800"/>
      <path id="Path_17065" data-name="Path 17065" d="M243.647,99.688l-7.749,15.82c2.477,1.122,17.158,4.62,23.766-8.873l.41-.836-.02-.974a7.484,7.484,0,0,0-2.745-5.177c-2.331,4.321-4.475,4.316-7.3,2.683l-5.966-3.444-.392.8Zm11.294,7.211v0a7.806,7.806,0,0,1-6.133-.985l-3.967-2.291-4.356,8.893c6.383.817,11-.913,14.455-5.615Z" transform="translate(10.977 8.024)" fill="#bc7800"/>
      <path id="Path_17066" data-name="Path 17066" d="M238.25,98.6l-9.827,14.62c-2.21-1.583-12.58-12.549-4.2-25.019l.52-.773a7.327,7.327,0,0,1,5.205.27c-1.632,2.856-1.044,5.507,1.9,7.206l6.4,3.7Zm-4.006.933-3.965-2.291c-2.867-1.655-4.269-4.138-4.107-6.876a14.294,14.294,0,0,0-1.109,13.385,20.234,20.234,0,0,0,2.931,4.963l.042.056,6.208-9.237Z" transform="translate(1.537 0.543)" fill="url(#linear-gradient)"/>
      <path id="Path_17067" data-name="Path 17067" d="M235.127,98.732l.5-.742-5.966-3.444c-2.83-1.634-3.9-3.488-1.33-7.667l-1.5.951c-1.632,2.856-1.044,5.507,1.9,7.206l6.4,3.7Z" transform="translate(4.661 0.415)" fill="url(#linear-gradient-2)"/>
      <path id="Path_17068" data-name="Path 17068" d="M225.233,91.151a6.889,6.889,0,0,1-.185-2.057,14.294,14.294,0,0,0-1.109,13.385,20.248,20.248,0,0,0,2.973,5.019l.685-1.019c-3.9-5.12-4.708-9.985-2.364-15.328Z" transform="translate(2.661 1.819)" fill="url(#linear-gradient-3)"/>
      <path id="Path_17069" data-name="Path 17069" d="M223.293,87.754a7.327,7.327,0,0,1,5.205.27l1.5-.951a7.482,7.482,0,0,0-5.855.211l-.853.471Z" transform="translate(2.988 0.221)" fill="url(#linear-gradient-4)"/>
      <path id="Path_17070" data-name="Path 17070" d="M243.647,99.377,235.9,115.2c2.477,1.122,17.158,4.62,23.766-8.873l.41-.836a7.33,7.33,0,0,0-2.836-4.372c-1.658,2.839-4.248,3.656-7.192,1.956l-6.4-3.694Zm1.194,3.934,3.967,2.291c2.866,1.655,5.718,1.627,8.007.118a14.286,14.286,0,0,1-11.036,7.652,20.165,20.165,0,0,1-5.764-.056l-.069-.01,4.895-10Z" transform="translate(10.977 8.335)" fill="url(#linear-gradient-5)"/>
      <path id="Path_17071" data-name="Path 17071" d="M240.641,99.688l.392-.8L247,102.33c2.83,1.634,4.973,1.639,7.3-2.683l-.072,1.779c-1.658,2.839-4.248,3.656-7.192,1.956l-6.4-3.694Z" transform="translate(13.983 8.024)" fill="url(#linear-gradient-6)"/>
      <path id="Path_17072" data-name="Path 17072" d="M253.371,104.128a6.844,6.844,0,0,0,1.874-.869,14.287,14.287,0,0,1-11.036,7.652,20.225,20.225,0,0,1-5.832-.065l.539-1.1c6.383.817,11-.913,14.455-5.615Z" transform="translate(12.547 10.796)" fill="url(#linear-gradient-7)"/>
      <path id="Path_17073" data-name="Path 17073" d="M240.026,122.484l-1.84,3.187c-.918,1.59-6.02.364-11.4-2.74s-8.989-6.908-8.071-8.5l1.84-3.187,19.466,11.239Z" transform="translate(0 15.857)" fill="url(#linear-gradient-8)"/>
      <path id="Path_17074" data-name="Path 17074" d="M239.312,124.577c-.918,1.591-6.02.364-11.4-2.738s-8.989-6.909-8.071-8.5c1.7-2.937,4.542-2.073,8.005-1.862a3.892,3.892,0,0,0,3.95-1.737l1.039-1.8,2.323,1.341,2.325,1.343-1.037,1.8a3.892,3.892,0,0,0,.472,4.29c1.915,2.893,4.084,4.926,2.389,7.863Z" transform="translate(0.714 13.764)" fill="url(#linear-gradient-9)"/>
      <path id="Path_17075" data-name="Path 17075" d="M220.872,113.93c1.694-2.937,4.276-2.227,7.456-2.178a3.876,3.876,0,0,0,3.718-1.871q.52-.9,1.037-1.8l-.243-.141-1.039,1.8a3.892,3.892,0,0,1-3.95,1.737c-3.464-.211-6.31-1.075-8.005,1.862a1.945,1.945,0,0,0,.281,1.879q.372-.642.745-1.287Z" transform="translate(0.714 13.764)" fill="url(#radial-gradient)" style="mix-blend-mode: multiply;isolation: isolate"/>
      <path id="Path_17076" data-name="Path 17076" d="M230.072,115.349c1.5,2.656,3.284,4.465,1.588,7.4q-.441.767-.885,1.536c1.2.1,2.059-.106,2.384-.671,1.7-2.937-.474-4.97-2.389-7.863a3.892,3.892,0,0,1-.472-4.29l1.037-1.8-.358-.207q-.52.9-1.037,1.8a3.886,3.886,0,0,0,.132,4.094Z" transform="translate(6.868 14.724)" fill="url(#radial-gradient-2)" style="mix-blend-mode: multiply;isolation: isolate"/>
      <path id="Path_17077" data-name="Path 17077" d="M231.666,122.227c1.7-2.937.242-4.555-.905-7.006a4,4,0,0,1,.16-3.926l1.039-1.8-.665-.384-1.037,1.8a5.057,5.057,0,0,0-.792,3.56c.379,2.006,1.116,3.212-.58,6.149l-1.5,2.6a21.534,21.534,0,0,0,3.12,1.018l1.163-2.016Z" transform="translate(5.58 14.507)" opacity="0.5" fill="url(#radial-gradient-3)" style="mix-blend-mode: screen;isolation: isolate"/>
      <path id="Path_17078" data-name="Path 17078" d="M226.583,117.626a10.757,10.757,0,0,1,3.847-4.264,9.311,9.311,0,0,0,2.183-2.758q.517-.9,1.037-1.8l-.93-.538q-.52.9-1.037,1.8a4.234,4.234,0,0,1-3.067,2.246c-2.389.41-4.231.126-5.927,3.063l-1.33,2.3a29.168,29.168,0,0,0,3.594,2.768q.814-1.414,1.629-2.823Z" transform="translate(1.763 13.971)" fill="url(#radial-gradient-4)" style="mix-blend-mode: screen;isolation: isolate"/>
      <path id="Path_17079" data-name="Path 17079" d="M220.56,111.245l-1.84,3.187a1.945,1.945,0,0,0,.281,1.879l1.84-3.187a1.945,1.945,0,0,1-.281-1.879Z" transform="translate(0 15.857)" opacity="0.5" fill="url(#linear-gradient-10)" style="mix-blend-mode: multiply;isolation: isolate"/>
      <path id="Path_17080" data-name="Path 17080" d="M230.961,118.8l-1.84,3.187c1.2.1,2.057-.108,2.384-.671l1.84-3.187c-.325.565-1.18.774-2.384.671Z" transform="translate(6.682 20.216)" opacity="0.5" fill="url(#linear-gradient-11)" style="mix-blend-mode: multiply;isolation: isolate"/>
      <path id="Path_17081" data-name="Path 17081" d="M223.827,119.984l1.841-3.186a29.168,29.168,0,0,1-3.594-2.768l-1.84,3.187a28.985,28.985,0,0,0,3.593,2.766Z" transform="translate(1.05 17.622)" opacity="0.75" fill="url(#linear-gradient-12)" style="mix-blend-mode: screen;isolation: isolate"/>
      <path id="Path_17082" data-name="Path 17082" d="M243.647,99.377,235.9,115.2a16.346,16.346,0,0,0,3.954,1,28.623,28.623,0,0,0,4.79-2.705,20.5,20.5,0,0,1-4.627-.178l-.069-.01,4.895-10,3.967,2.291a9.174,9.174,0,0,0,3.153,1.157q.24-.289.469-.578l1.964-2.47a5.1,5.1,0,0,1-4.347-.639l-6.4-3.694Z" transform="translate(10.977 8.335)" fill="url(#radial-gradient-5)" style="mix-blend-mode: multiply;isolation: isolate"/>
      <path id="Path_17083" data-name="Path 17083" d="M228.1,117.752l-1.84,3.187a21.862,21.862,0,0,0,3.119,1.018l1.841-3.187a21.534,21.534,0,0,1-3.12-1.018Z" transform="translate(4.866 19.981)" opacity="0.35" fill="url(#linear-gradient-13)" style="mix-blend-mode: screen;isolation: isolate"/>
      <path id="Path_17084" data-name="Path 17084" d="M231.838,112.062h0c-.219.381-1.376-.018-2.585-.89s-2.01-1.885-1.791-2.266l.671-1.163,4.375,3.156-.671,1.163Z" transform="translate(5.608 13.637)" fill="url(#radial-gradient-6)" style="mix-blend-mode: multiply;isolation: isolate"/>
      <path id="Path_17085" data-name="Path 17085" d="M230.133,89.869l14.616,8.438,14.616,8.438-2.884,3.816c-5.716,7.568-16.524,16.387-25.331,11.3s-6.576-18.853-2.88-27.589l1.864-4.4Z" transform="translate(4.08 2.31)" fill="url(#linear-gradient-14)"/>
      <path id="Path_17086" data-name="Path 17086" d="M230.236,90.068l11.8,6.814,11.805,6.816-2.418,3.379c-4.793,6.7-13.769,14.63-20.883,10.523s-5.066-16.04-1.9-23.68l1.595-3.852Z" transform="translate(4.539 2.436)" opacity="0.75" fill="url(#radial-gradient-7)" style="mix-blend-mode: screen;isolation: isolate"/>
      <path id="Path_17087" data-name="Path 17087" d="M230.652,90.385l9.013,5.205,9.015,5.2-2.016,2.872c-4,5.7-11.314,12.559-16.746,9.423s-3.4-13.054-.654-19.468l1.387-3.236Z" transform="translate(5.022 2.637)" opacity="0.75" fill="url(#radial-gradient-8)" style="mix-blend-mode: screen;isolation: isolate"/>
      <path id="Path_17088" data-name="Path 17088" d="M231.149,121.863c-7.881-4.55-5.2-18.058-1.4-26.731q.958-2.186,1.918-4.374l-1.539-.889-1.864,4.4c-3.7,8.736-5.929,22.5,2.88,27.589Z" transform="translate(4.08 2.31)" fill="url(#radial-gradient-9)" style="mix-blend-mode: multiply;isolation: isolate"/>
      <path id="Path_17089" data-name="Path 17089" d="M252.221,103.367c-5.581,7.644-15.818,16.793-23.451,12.385,8.808,5.086,19.615-3.733,25.331-11.3l2.884-3.816-1.949-1.124q-1.407,1.926-2.815,3.856Z" transform="translate(6.459 8.42)" opacity="0.75" fill="url(#radial-gradient-10)" style="mix-blend-mode: multiply;isolation: isolate"/>
      <path id="Path_17090" data-name="Path 17090" d="M228.77,117.186c6.29,3.632,15.873-5.893,21.3-13.627l2.737-3.9-4.176-2.41q-1.3,1.992-2.591,3.985c-5.14,7.9-13.5,18.133-17.272,15.954Z" transform="translate(6.459 6.986)" opacity="0.6" fill="url(#radial-gradient-11)" style="mix-blend-mode: screen;isolation: isolate"/>
      <path id="Path_17091" data-name="Path 17091" d="M229.758,120.553c-1.763-1.016,3.9-12.805,8.4-21.074q1.137-2.083,2.273-4.169l-5.847-3.375q-1.034,2.144-2.067,4.287c-4.1,8.5-8.048,21.281-2.763,24.331Z" transform="translate(5.472 3.619)" fill="url(#radial-gradient-12)" style="mix-blend-mode: screen;isolation: isolate"/>
      <path id="Path_17092" data-name="Path 17092" d="M240.311,104.777c-6.929-4-11.917-8.822-12.47-11.774-.292-1.554,1.662-4.575,2.518-6.058l15.187,8.768,15.186,8.767c-.884,1.532-2.5,4.686-3.986,5.21-2.835,1-9.5-.912-16.434-4.913Z" transform="translate(5.852 0.457)" fill="url(#radial-gradient-13)"/>
      <path id="Path_17093" data-name="Path 17093" d="M238.527,103c-5.685-3.584-9.762-7.821-10.195-10.355-.229-1.333,1.408-3.862,2.127-5.107l12.461,7.853,12.459,7.855c-.742,1.286-2.1,3.937-3.331,4.347-2.348.783-7.835-1.01-13.521-4.594Z" transform="translate(6.168 0.831)" fill="url(#radial-gradient-14)" style="mix-blend-mode: screen;isolation: isolate"/>
      <path id="Path_17094" data-name="Path 17094" d="M236.692,100.9c-4.437-3.073-7.605-6.636-7.924-8.716-.168-1.093,1.14-3.116,1.717-4.112l9.726,6.734,9.726,6.734c-.595,1.031-1.683,3.16-2.656,3.462-1.853.577-6.149-1.029-10.588-4.1Z" transform="translate(6.449 1.17)" fill="url(#radial-gradient-15)" style="mix-blend-mode: screen;isolation: isolate"/>
      <path id="Path_17095" data-name="Path 17095" d="M250.621,97.678c-.565.98-2.063,1.328-4.163,1.121l-1.108,1.768-1.586,2.529a6.923,6.923,0,0,0,2.87-.207l.033-.011c1.482-.559,3.075-3.678,3.954-5.2Z" transform="translate(15.962 7.259)" opacity="0.75" fill="url(#radial-gradient-16)" style="mix-blend-mode: multiply;isolation: isolate"/>
      <path id="Path_17096" data-name="Path 17096" d="M230.077,92.668l1.086-2.05c-.951-1.456-1.292-2.71-.868-3.6l0,0c-.881,1.508-2.709,4.385-2.459,5.908l.007.036a4.53,4.53,0,0,0,.3.941,8.011,8.011,0,0,0,.609,1.131l.042.069,1.287-2.431Z" transform="translate(5.851 0.501)" opacity="0.75" fill="url(#radial-gradient-17)" style="mix-blend-mode: multiply;isolation: isolate"/>
      <path id="Path_17097" data-name="Path 17097" d="M241.737,97.223l-2.439,4.225h0c1.224.5,2.4.915,3.5,1.24.369.108.73.207,1.082.3l1.959-3.393.552-.956a35.793,35.793,0,0,1-4.57-1.554l-.082.142Z" transform="translate(13.131 6.88)" opacity="0.65" fill="url(#radial-gradient-18)" style="mix-blend-mode: screen;isolation: isolate"/>
      <path id="Path_17098" data-name="Path 17098" d="M238.333,95.692a45.366,45.366,0,0,1-5.261-4l-2.516,4.359a44.065,44.065,0,0,0,5.253,4.011l2.524-4.372Z" transform="translate(7.591 3.466)" fill="url(#radial-gradient-19)" style="mix-blend-mode: screen;isolation: isolate"/>
      <path id="Path_17099" data-name="Path 17099" d="M247.26,91.465c8.3,4.792,13.789,10.824,12.26,13.472s-9.5.912-17.8-3.88-13.789-10.824-12.26-13.472,9.5-.912,17.8,3.88Z" transform="translate(6.736 0.077)" fill="#fffce4" opacity="0.75" style="mix-blend-mode: screen;isolation: isolate"/>
      <path id="Path_17100" data-name="Path 17100" d="M247.358,91.479c8.388,4.842,13.973,10.868,12.479,13.457s-9.507.765-17.894-4.078S227.969,89.991,229.464,87.4s9.507-.765,17.894,4.078Z" transform="translate(6.746 0)" fill="url(#radial-gradient-20)"/>
      <path id="Path_17101" data-name="Path 17101" d="M246.757,91.6c7.871,4.545,13.161,10.116,11.817,12.446s-8.816.534-16.687-4.009S228.725,89.919,230.07,87.589s8.816-.533,16.687,4.011Z" transform="translate(7.151 0.219)" fill="url(#radial-gradient-21)"/>
      <path id="Path_17102" data-name="Path 17102" d="M243.582,90.607c5.816,3.357,9.843,7.863,10.5,11.325a3.973,3.973,0,0,1-.368,2.79c-.038.064-.075.126-.116.188,2.166.345,3.743.127,4.369-.735.029-.042.057-.085.083-.129,1.345-2.33-3.946-7.9-11.817-12.446-6.579-3.8-12.877-5.676-15.555-4.831,3.415-.209,8.19,1.117,12.9,3.838Z" transform="translate(7.671 0.219)" fill="url(#radial-gradient-22)" style="mix-blend-mode: screen;isolation: isolate"/>
      <path id="Path_17103" data-name="Path 17103" d="M248.311,102.541c.359-1.846-.969-4.378-3.452-6.885a31.354,31.354,0,0,0-13.33-7.7q-.855-.225-1.66-.364c-.235,2.606,4.81,7.63,12.018,11.792a51.348,51.348,0,0,0,6.424,3.153Z" transform="translate(7.151 0.869)" fill="url(#radial-gradient-23)" style="mix-blend-mode: multiply;isolation: isolate"/>
      <path id="Path_17104" data-name="Path 17104" d="M224.961,112.311c1.483,1.083,2.407,2.449,2.059,3.049s-1.831.211-3.315-.872-2.408-2.447-2.06-3.049,1.831-.211,3.316.872Z" transform="translate(1.897 15.801)" fill="url(#radial-gradient-24)" style="mix-blend-mode: screen;isolation: isolate"/>
      <path id="Path_17105" data-name="Path 17105" d="M225.063,88.61c.885-.778,3.506-.364,3.748.555a9.192,9.192,0,0,0,.446,2.828,5.3,5.3,0,0,1,.693-4.292,7.327,7.327,0,0,0-5.205-.27l-.52.773a17.388,17.388,0,0,0-3.2,10.768c.085-4.1,2.518-9.026,4.039-10.363Z" transform="translate(1.537 0.543)" opacity="0.5" fill="url(#radial-gradient-25)" style="mix-blend-mode: screen;isolation: isolate"/>
      <path id="Path_17106" data-name="Path 17106" d="M227.492,87.255a9.32,9.32,0,0,0-3.87.322,7.22,7.22,0,0,1,4.668.415l1.5-.951a5.261,5.261,0,0,0-1.434-.417c.163.155.281.412.038.542a2.05,2.05,0,0,1-.9.088Z" transform="translate(3.197 0.253)" opacity="0.5" fill="url(#radial-gradient-26)" style="mix-blend-mode: screen;isolation: isolate"/>
      <path id="Path_17107" data-name="Path 17107" d="M226.408,104.771c.021.379-.088.779-.6.356-2.79-2.313-3.509-8.4-2.449-11.523.09-.265.5-1.41.861-1.263.237.095.281.453.291.761a17.253,17.253,0,0,1,.722-1.952,6.889,6.889,0,0,1-.185-2.057,14.294,14.294,0,0,0-1.109,13.385h0a19.556,19.556,0,0,0,1.938,3.614c.214.317.438.629.668.935q.076-.87.2-1.74c-.116-.173-.229-.345-.337-.516Z" transform="translate(2.661 1.819)" opacity="0.5" fill="url(#radial-gradient-27)" style="mix-blend-mode: multiply;isolation: isolate"/>
      <path id="Path_17108" data-name="Path 17108" d="M240.76,109.921c-.34.17-.629.466-.007.7,3.4,1.26,9.031-1.163,11.2-3.642.183-.211.972-1.137.663-1.377-.2-.157-.533-.018-.805.129a17.19,17.19,0,0,0,1.328-1.6,6.844,6.844,0,0,0,1.874-.869,14.287,14.287,0,0,1-11.036,7.652h0a19.709,19.709,0,0,1-4.1.129c-.382-.028-.765-.065-1.144-.113q.713-.5,1.408-1.041c.207.015.412.026.614.034Z" transform="translate(12.776 10.796)" opacity="0.5" fill="url(#radial-gradient-28)" style="mix-blend-mode: multiply;isolation: isolate"/>
      <path id="Path_17109" data-name="Path 17109" d="M246.4,101.672a6.034,6.034,0,0,1-.993-.343l-.567.752a4.88,4.88,0,0,0,3.888.392c-.291.091-2.408.136-2.562-.48-.038-.154.075-.255.234-.32Z" transform="translate(16.643 9.573)" fill="url(#linear-gradient-15)" style="mix-blend-mode: multiply;isolation: isolate"/>
      <path id="Path_17110" data-name="Path 17110" d="M227.83,91.379a6.146,6.146,0,0,0,.794.688l-.368.868a4.879,4.879,0,0,1-2.282-3.171c.065.3,1.086,2.153,1.7,1.978.152-.044.185-.193.16-.363Z" transform="translate(4.687 2.243)" opacity="0.75" fill="url(#linear-gradient-16)" style="mix-blend-mode: multiply;isolation: isolate"/>
    </g>
  </g>
</svg>
