<svg xmlns="http://www.w3.org/2000/svg" width="24" height="24" viewBox="0 0 24 24">
  <g id="Group_1020" data-name="Group 1020" transform="translate(-38 -68)">
    <rect id="Rectangle_832" data-name="Rectangle 832" width="24" height="24" transform="translate(38 68)" fill="none"/>
    <g id="Group_1228" data-name="Group 1228" transform="translate(41.345 74)">
      <path id="Path_17500" data-name="Path 17500" d="M175.9,557.079V555.7a1.539,1.539,0,0,1,1.539-1.539h3.882a1.54,1.54,0,0,1,1.071.433l.921.893a1.538,1.538,0,0,0,1.071.433h3.826a1.539,1.539,0,0,1,1.539,1.539v6.358a1.539,1.539,0,0,1-1.539,1.539H177.438a1.539,1.539,0,0,1-1.539-1.539v-.636" transform="translate(-172.437 -553.358)" fill="none" stroke="#596584" stroke-linecap="round" stroke-linejoin="round" stroke-width="2"/>
      <g id="Group_1227" data-name="Group 1227" transform="translate(0 9.515) rotate(-90)">
        <path id="Path_17501" data-name="Path 17501" d="M6.78,0H3.96A3.96,3.96,0,0,0,0,3.965l.007,6.421" transform="translate(2.735)" fill="none" stroke="#596584" stroke-linecap="round" stroke-linejoin="round" stroke-width="2"/>
        <path id="Path_17502" data-name="Path 17502" d="M0,0,2.741,2.741,5.481,0" transform="translate(0 7.645)" fill="none" stroke="#596584" stroke-linecap="round" stroke-linejoin="round" stroke-width="2"/>
      </g>
    </g>
  </g>
</svg>
