<?xml version="1.0" encoding="utf-8"?>
<!-- Generator: Adobe Illustrator 24.2.0, SVG Export Plug-In . SVG Version: 6.00 Build 0)  -->
<svg version="1.1" id="Layer_1" xmlns="http://www.w3.org/2000/svg" xmlns:xlink="http://www.w3.org/1999/xlink" x="0px" y="0px"
	 viewBox="0 0 200 213.8" enable-background="new 0 0 200 213.8" xml:space="preserve">
<g>
	<g>
		<ellipse id="Ellipse_15_1_" fill="#00184D" cx="100.2" cy="71.3" rx="47.8" ry="66.2"/>
		<path id="Rectangle_772_1_" fill="#00184D" d="M100.2,87L100.2,87c14.1,0,25.5,11.4,25.5,25.5v26.9c0,14.1-11.4,25.5-25.5,25.5
			l0,0c-14.1,0-25.5-11.4-25.5-25.5v-26.9C74.7,98.5,86.1,87,100.2,87z"/>
		<path id="Path_12667_1_" fill="#00184D" d="M60,75.1c1.4,10.6-0.9,19.8-5.3,20.5c-4.3,0.7-9-7.3-10.4-17.9s0.9-19.8,5.3-20.5
			S58.6,64.5,60,75.1z"/>
		<path id="Path_12668_1_" fill="#00184D" d="M140.4,75.1c-1.4,10.6,0.9,19.8,5.3,20.5c4.3,0.7,9-7.3,10.4-17.9s-0.9-19.8-5.3-20.5
			S141.9,64.5,140.4,75.1z"/>
		<path id="Path_12669_1_" fill="#00184D" d="M54.1,68.7c-1.6-10.6-3.2-21.2-4.8-31.8c-0.9-3.8-0.8-7.8,0.3-11.5
			c1.3-3.8,5.2-6.1,9.2-5.1C57.3,13,65.4,7.5,72.6,5.1c11.9-4.4,24.6-5.9,37.1-4.6c12.6,1.4,24.4,7.3,33.1,16.5
			c2.7,2.9,4.9,6.3,6.2,10.1c1.8,7.5,1.5,15.3-0.7,22.7l-3.8,17.9c-0.2,1.4-0.7,2.7-1.5,3.8c-1.7,1.4-4,2.1-6.2,1.8l-71,0.2
			c-4.5,0-10.3-1.1-10.8-5.5"/>
	</g>
	<path fill="#00184D" d="M99.5,133.3c-27.3,0-52.7,4.5-73.5,12.1C10.4,151.1,0,165.8,0,182.4v31.4h200v-31.5c0-16.6-10.4-31.4-26-37
		C152.9,137.6,127.2,133.3,99.5,133.3z"/>
</g>
</svg>
