<svg xmlns="http://www.w3.org/2000/svg" width="16.75" height="12.561" viewBox="0 0 16.75 12.561">
  <g id="Group_1736" data-name="Group 1736" transform="translate(-547.29 -271.248)">
    <g id="Group_1735" data-name="Group 1735" transform="translate(548.04 271.998)">
      <path id="Path_23959" data-name="Path 23959" d="M560.895,273.668v-.241A1.428,1.428,0,0,0,559.466,272h-9.695a1.731,1.731,0,0,0-1.731,1.731h0a1.731,1.731,0,0,0,1.731,1.731h9.695a1.428,1.428,0,0,1,1.428,1.428v5.1a1.071,1.071,0,0,1-1.071,1.071h-9.641a2.143,2.143,0,0,1-2.142-2.142V273.81A1.812,1.812,0,0,1,549.852,272h6.971" transform="translate(-548.04 -271.998)" fill="none" stroke="#00184d" stroke-linecap="round" stroke-linejoin="round" stroke-width="1.5"/>
      <path id="Rectangle_1008" data-name="Rectangle 1008" d="M1.28,0H4.258a0,0,0,0,1,0,0V2.56a0,0,0,0,1,0,0H1.28A1.28,1.28,0,0,1,0,1.28v0A1.28,1.28,0,0,1,1.28,0Z" transform="translate(8.596 5.881)" fill="none" stroke="#00184d" stroke-linecap="round" stroke-linejoin="round" stroke-width="1.5"/>
    </g>
    <path id="Path_23960" data-name="Path 23960" d="M592.849,282.839" transform="translate(-28.809 -6.97)" fill="none" stroke="#00184d" stroke-linecap="round" stroke-linejoin="round" stroke-width="1.5"/>
  </g>
</svg>
